<?xml version="1.0" encoding="UTF-8"?>
<svg width="505px" height="213px" viewBox="0 0 505 213" version="1.1" xmlns="http://www.w3.org/2000/svg" xmlns:xlink="http://www.w3.org/1999/xlink">
    <!-- Generator: sketchtool 50.2 (55047) - http://www.bohemiancoding.com/sketch -->
    <title>E97FE7D0-3765-4F7F-AD79-1C7574D30D4A</title>
    <desc>Created with sketchtool.</desc>
    <defs></defs>
    <g id="Emails/Estaticas" stroke="none" stroke-width="1" fill="none" fill-rule="evenodd">
        <g id="error_404" transform="translate(-388.000000, -258.000000)" fill="#FF3C50">
            <g id="Group" transform="translate(391.000000, 258.000000)">
                <path d="M312.223342,40.3516711 L312.208141,40.3397668 C312.143538,40.2921495 312.063734,40.2683408 311.99913,40.2246917 C312.166339,37.8398599 311.159287,35.5383584 309.145183,34.1931704 C299.363477,27.6457953 280.438497,18.0866277 261.692127,25.9276054 L261.692127,11.0551436 C261.692127,4.96013264 257.462509,0 252.26384,0 L243.816002,0 C238.613533,0 234.383914,4.96013264 234.383914,11.0551436 L234.383914,27.3442192 C225.932277,25.7728492 207.520324,24.2173516 189.826609,35.2526547 C187.14367,36.9192593 186.041613,40.2326279 187.14747,43.2999739 C187.257676,43.6134543 187.462887,43.8475726 187.611094,44.1293081 C187.223474,44.236447 186.820653,44.3277134 186.436834,44.4348523 C185.539987,44.684843 184.681143,45.1491114 183.936304,45.7879765 C163.004821,63.9738068 151,89.9014121 151,116.916279 C151,169.898431 196.081733,213 251.5,213 C306.918267,213 352,169.898431 352,116.916279 C352,86.607884 337.50225,58.7001937 312.223342,40.3516711 Z M251.496508,192.178658 C208.591569,192.178658 173.682564,159.057605 173.682564,118.345134 C173.682564,97.7545748 182.853061,77.9517416 198.825833,64.0053355 C205.691769,62.0975096 213.079733,60.56859 220.56319,59.4584614 C220.814654,59.5049937 221.091583,59.5315836 221.333499,59.5847634 C221.534034,59.627972 221.740935,59.6678569 221.931921,59.7143892 C221.645442,59.9304322 221.327133,60.2029788 221.024738,60.4422879 C220.693697,60.708187 220.37857,60.9474962 220.031613,61.2399851 C219.729219,61.495913 219.407726,61.8016969 219.095783,62.0775672 C218.710628,62.4199123 218.338206,62.7356674 217.940319,63.1112498 C217.564714,63.4668898 217.176376,63.8790334 216.791222,64.2679108 C216.437898,64.6235508 216.094124,64.9492772 215.734434,65.3315071 C215.091449,66.0161972 214.442098,66.7706858 213.792746,67.5451168 C213.684521,67.6747426 213.579479,67.7811022 213.471254,67.910728 C210.421849,71.6133726 207.359711,76.3364048 204.88008,82.2426879 C203.883771,84.6258083 204.549038,87.284799 206.538472,88.8536035 C208.524724,90.422408 211.252636,90.3625807 213.172043,88.7140065 C218.611952,84.0375066 228.775575,76.4062033 237.112101,76.98121 C237.029341,86.3308861 237.503622,106.612338 242.825757,115.267352 C243.780686,116.819538 245.407247,117.780098 247.164316,117.833278 C247.218428,117.833278 247.269358,117.833278 247.323471,117.833278 C249.023243,117.833278 250.62434,116.985725 251.633381,115.539899 C254.934251,110.803572 262.497285,97.7379561 262.47182,77.5362743 C267.122322,77.8553532 276.579298,79.4873088 284.097769,87.1551732 C285.740246,88.8270136 288.127567,89.2225384 290.167931,88.1556184 C292.230577,87.0853747 293.379674,84.8484987 293.090013,82.4520834 C292.905393,80.9397824 292.577534,79.2779132 292.05869,77.5362743 C292.036408,77.4598284 292.023676,77.3900299 292.001394,77.3102601 C291.511197,75.7048945 290.810917,74.0264066 289.926016,72.3279763 C289.805058,72.0919909 289.715932,71.862653 289.585425,71.6266675 C289.187538,70.9054163 288.700524,70.1808413 288.216694,69.4595901 C288.04799,69.206986 287.917483,68.9543819 287.73923,68.7017778 C287.325427,68.1234473 286.822498,67.5484406 286.348217,66.9734338 C286.023541,66.577909 285.746612,66.1790603 285.393289,65.7868592 C284.979486,65.3281833 284.470191,64.8794786 284.011825,64.4274502 C283.508896,63.9288895 283.050531,63.4236812 282.493489,62.931768 C282.012842,62.5096532 281.430335,62.1041571 280.905124,61.6886898 C280.271689,61.1868053 279.685999,60.6749496 278.985718,60.1863601 C280.577266,59.9005186 282.563517,59.641267 284.982669,59.4584614 C285.078162,59.4518139 285.176838,59.4451664 285.275514,59.4385189 C285.752978,59.4052816 286.252724,59.3753679 286.76202,59.348778 C287.035766,59.3354831 287.312695,59.3221881 287.59599,59.3088931 C287.990694,59.2922745 288.388581,59.2756558 288.802384,59.2623608 C289.305313,59.2457421 289.824157,59.2357709 290.355734,59.2291234 C290.600832,59.2257997 290.842747,59.2191522 291.094212,59.2158285 C292.065056,59.2058573 293.093196,59.2125047 294.159533,59.2291234 L295.302264,59.3354831 C296.24446,59.4684326 297.189839,59.5847634 298.135218,59.704418 L298.924626,59.8008064 C318.239647,73.9100758 329.313635,95.2318574 329.313635,118.335163 C329.313635,159.057605 294.404631,192.178658 251.496508,192.178658 Z" id="Shape" fill-rule="nonzero"></path>
                <path d="M474.74548,146.367445 L500.5,146.367445 L500.5,168.553571 L474.74548,168.553571 L474.74548,211.5 L448.030923,211.5 L448.030923,168.553571 L363.5,168.553571 L363.5,152.760237 L447.313332,23.5 L474.74548,23.5 L474.74548,146.367445 Z M394.519247,146.367445 L448.030923,146.367445 L448.030923,62.9618808 L447.988426,63.038781 L394.519247,146.367445 Z" id="4" stroke="#FF3C50" stroke-width="3" stroke-linecap="round" stroke-linejoin="round"></path>
                <path d="M109.74548,146.367445 L135.5,146.367445 L135.5,168.553571 L109.74548,168.553571 L109.74548,211.5 L83.0309229,211.5 L83.0309229,168.553571 L-1.5,168.553571 L-1.5,152.760237 L82.3133321,23.5 L109.74548,23.5 L109.74548,146.367445 Z M29.5192467,146.367445 L83.0309229,146.367445 L83.0309229,62.9618808 L82.9884265,63.038781 L29.5192467,146.367445 Z" id="4" stroke="#FF3C50" stroke-width="3" stroke-linecap="round" stroke-linejoin="round"></path>
            </g>
        </g>
    </g>
</svg>