<?xml version="1.0" encoding="UTF-8"?>
<svg width="313px" height="210px" viewBox="0 0 313 210" version="1.1" xmlns="http://www.w3.org/2000/svg" xmlns:xlink="http://www.w3.org/1999/xlink">
    <!-- Generator: sketchtool 50.2 (55047) - http://www.bohemiancoding.com/sketch -->
    <title>4D3B3566-B5FB-438D-87D2-81FE026EF005</title>
    <desc>Created with sketchtool.</desc>
    <defs>
        <path d="M42.4575,0 C18.9975,0 0,19.04 0,42.5 C0,65.96 18.9975,85 42.4575,85 C65.96,85 85,65.96 85,42.5 C85,19.04 65.96,0 42.4575,0 Z" id="path-1"></path>
    </defs>
    <g id="Emails/Estaticas" stroke="none" stroke-width="1" fill="none" fill-rule="evenodd">
        <g id="sin_conexión" transform="translate(-486.000000, -260.000000)">
            <g id="error" transform="translate(477.000000, 260.000000)">
                <g id="planting" transform="translate(14.000000, 0.000000)" fill="#FF001F" fill-rule="nonzero">
                    <path d="M246.575789,59.4056952 C254.048427,51.8625552 254.004951,39.9762822 253.999618,39.4740687 L253.965986,36.4388439 L250.95954,36.4053078 C250.446024,36.4024096 238.687253,36.3572808 231.214615,43.8995928 C229.605162,45.5242309 228.345982,47.3504996 227.358736,49.2210692 L227.358736,40.1754287 C229.432486,37.8804825 235.378932,30.5141316 235.378932,21.5148621 C235.378932,10.8470677 227.022408,2.47380546 226.666802,2.12229737 L224.517583,0 L222.368364,2.12229737 C222.012759,2.47339143 213.656234,10.8470677 213.656234,21.5148621 C213.656234,29.9133798 218.833637,36.8872341 221.210903,39.6463035 L221.210903,48.3793543 C220.300766,46.8052274 219.187602,45.2791275 217.820961,43.8995928 C210.348323,36.3564527 198.585861,36.4115182 198.075626,36.4053078 L195.068771,36.4388439 L195.035548,39.4740687 C195.030216,39.9762822 194.98756,51.8621412 202.460197,59.4056952 C208.770452,65.7754855 218.146215,66.7347838 221.210903,66.8759667 L221.210903,73.6411518 L151.971597,73.6411518 L151.971597,66.8929417 C154.400542,66.8283537 164.509255,66.1468669 171.18865,59.4056952 C178.660878,51.8625552 178.618221,39.9762822 178.612889,39.4740687 L178.579667,36.4388439 L175.572811,36.4053078 C175.067908,36.4024096 163.299704,36.3572808 155.827476,43.8995928 C154.218023,45.5242309 152.958843,47.3504996 151.971597,49.2210692 L151.971597,40.1754287 C154.044937,37.8804825 159.991793,30.5141316 159.991793,21.5152761 C159.991793,10.8474817 151.635269,2.47421949 151.279663,2.1227114 L149.130444,0.000414026019 L146.981225,2.1227114 C146.625619,2.47380546 138.269095,10.8474817 138.269095,21.5152761 C138.269095,29.9137939 143.446498,36.8876481 145.823764,39.6467175 L145.823764,48.3793543 C144.913627,46.8052274 143.800463,45.2795415 142.433822,43.9000068 C134.960774,36.3568668 123.195851,36.4119322 122.688487,36.4057218 L119.681631,36.4392579 L119.648409,39.4744827 C119.643077,39.9766962 119.60042,51.8625552 127.073058,59.4061092 C133.383313,65.7758995 142.759076,66.7351978 145.823764,66.8763807 L145.823764,73.6415658 L76.5844576,73.6415658 L76.5844576,66.8933558 C79.0134032,66.8287677 89.1221155,66.1472809 95.801511,59.4061092 C103.273739,51.8629692 103.231082,39.9766962 103.22575,39.4744827 L103.192528,36.4392579 L100.185672,36.4057218 C99.6774881,36.4028237 87.9129747,36.3576948 80.440337,43.9004208 C78.8308837,45.5250589 77.5717038,47.3517417 76.5844576,49.2218972 L76.5844576,40.1754287 C78.6582079,37.8804825 84.604654,30.5141316 84.604654,21.5148621 C84.604654,10.8470677 76.2481294,2.47380546 75.8925239,2.12229737 L73.7433048,0 L71.5940858,2.12229737 C71.2384803,2.47339143 62.8819557,10.8470677 62.8819557,21.5148621 C62.8819557,29.9133798 68.0593587,36.8872341 70.4366247,39.6463035 L70.4366247,48.3789403 C69.5264879,46.8048133 68.4133236,45.2791275 67.0466828,43.8995928 C59.5728146,36.3564527 47.8054302,36.4119322 47.3013481,36.4053078 L44.2949024,36.4388439 L44.2612696,39.4740687 C44.2559375,39.9762822 44.212461,51.8621412 51.6855089,59.4056952 C57.9957636,65.7754855 67.3715266,66.7347838 70.4362145,66.8759667 L70.4362145,73.6411518 L0,73.6411518 L0,79.8469878 L70.4362145,79.8469878 L70.4362145,90.8108108 L76.5840474,90.8108108 L76.5840474,79.8469878 L145.823354,79.8469878 L145.823354,90.8108108 L151.971187,90.8108108 L151.971187,79.8469878 L221.210493,79.8469878 L221.210493,90.8108108 L227.358326,90.8108108 L227.358326,79.8469878 L295.850322,79.8469878 L295.850322,73.6411518 L227.357916,73.6411518 L227.357916,66.8929417 C229.787682,66.8283537 239.896394,66.1468669 246.575789,59.4056952 Z M235.562682,48.2882686 C239.108073,44.7090136 244.245691,43.3857865 247.577391,42.8972358 C247.100379,46.2516746 245.795262,51.4158211 242.228132,55.0166054 C238.686433,58.591306 233.558249,59.9153613 230.223678,60.405154 C230.709713,57.0395365 232.020983,51.8629692 235.562682,48.2882686 Z M206.807854,55.0170194 C203.262053,51.4381785 201.951193,46.2520886 201.467209,42.8885412 C204.790295,43.3704675 209.906175,44.6878983 213.473304,48.2886826 C217.014594,51.8637973 218.326274,57.0403646 218.811489,60.4059821 C215.477328,59.9153613 210.348323,58.591306 206.807854,55.0170194 Z M160.175133,48.2882686 C163.720524,44.7090136 168.858142,43.3857865 172.190252,42.8972358 C171.71283,46.2516746 170.407713,51.4158211 166.840583,55.0166054 C163.298883,58.591306 158.170699,59.9153613 154.836128,60.405154 C155.322574,57.0395365 156.633843,51.8629692 160.175133,48.2882686 Z M131.420305,55.0170194 C127.874504,51.4381785 126.563644,46.2520886 126.07966,42.8885412 C129.402746,43.3704675 134.518626,44.6878983 138.085755,48.2890966 C141.627455,51.8637973 142.938724,57.0403646 143.424349,60.4059821 C140.089779,59.9153613 134.961594,58.591306 131.420305,55.0170194 Z M84.7879938,48.2882686 C88.333385,44.7090136 93.4710028,43.3857865 96.8031127,42.8972358 C96.3256907,46.2516746 95.0205734,51.4158211 91.453444,55.0166054 C87.9117443,58.591306 82.78356,59.9153613 79.4493994,60.405154 C79.9354346,57.0395365 81.2471145,51.8629692 84.7879938,48.2882686 Z M56.0327555,55.0170194 C52.4906457,51.4414907 51.1789658,46.2632673 50.6941611,42.8997199 C54.0283217,43.3899267 59.1569161,44.713982 62.6982057,48.2886826 C66.2399054,51.8633832 67.5511751,57.0399506 68.0368002,60.4055681 C64.7026395,59.9153613 59.5740451,58.591306 56.0327555,55.0170194 Z M73.7433048,33.893826 C71.7290272,31.1674647 69.0297886,26.5705338 69.0297886,21.5152761 C69.0297886,16.4591903 71.7298475,11.8610174 73.7433048,9.13589813 C75.7575825,11.8626735 78.4568211,16.4600184 78.4568211,21.5152761 C78.4564109,26.5705338 75.7571723,31.1674647 73.7433048,33.893826 Z M149.130444,33.893826 C147.116166,31.1674647 144.416928,26.5705338 144.416928,21.5152761 C144.416928,16.4591903 147.116987,11.8610174 149.130444,9.13589813 C151.144722,11.8626735 153.84396,16.4600184 153.84396,21.5152761 C153.84396,26.5705338 151.144722,31.1674647 149.130444,33.893826 Z M219.804477,21.5152761 C219.804477,16.4591903 222.504536,11.8610174 224.517993,9.13589813 C226.532271,11.8626735 229.23151,16.4600184 229.23151,21.5152761 C229.23151,26.5701197 226.532271,31.1670506 224.517993,33.893826 C222.503716,31.1674647 219.804477,26.5705338 219.804477,21.5152761 Z" id="Shape"></path>
                    <path d="M253.999618,139.228651 L253.966396,136.233015 L250.959944,136.199917 C250.446427,136.199508 238.687633,136.152516 231.214981,143.596452 C229.605525,145.199899 228.346342,147.002347 227.359094,148.848519 L227.359094,139.920863 C229.206032,137.903886 234.122995,131.916701 235.177919,124.357942 L295.851962,124.357942 L295.851962,118.23305 L235.111474,118.23305 C233.689049,109.310298 226.985441,102.674216 226.667569,102.364886 L224.518346,100.27027 L222.369123,102.364886 C222.051251,102.674216 215.347233,109.310707 213.925218,118.23305 L159.723777,118.23305 C158.301352,109.310298 151.597744,102.674216 151.279873,102.364886 L149.130649,100.27027 L146.981426,102.364886 C146.663554,102.674216 139.959536,109.310707 138.537522,118.23305 L84.3364905,118.23305 C82.9140657,109.310298 76.2104579,102.674216 75.8925862,102.364886 L73.7433629,100.27027 L71.5941397,102.364886 C71.2762679,102.674216 64.57225,109.310707 63.1502353,118.23305 L0,118.23305 L0,124.357942 L63.0837899,124.357942 C64.0591435,131.350755 68.3383126,136.995102 70.4362662,139.398639 L70.4362662,148.017374 C69.5261276,146.463779 68.4129612,144.957993 67.0463177,143.596452 C59.5732552,136.151699 47.8058478,136.208089 47.3013546,136.199917 L44.294903,136.233015 L44.2612701,139.228651 C44.255938,139.724314 44.2124614,151.455142 51.6855239,158.900304 C57.995791,165.187011 67.3715723,166.133797 70.4362662,166.273138 L70.4362662,185.404588 L76.5841111,185.404588 L76.5841111,166.289892 C79.0130614,166.226146 89.1217935,165.553548 95.801202,158.900304 C103.273444,151.455551 103.230788,139.724314 103.225456,139.228651 L103.192233,136.233015 L100.185371,136.199917 C99.6771867,136.199508 87.9126504,136.152516 80.439998,143.59686 C78.8305415,145.200308 77.5713592,147.003165 76.5841111,148.848927 L76.5841111,139.921271 C78.4310485,137.904295 83.3480119,131.91711 84.402936,124.358351 L138.471076,124.358351 C139.44643,131.351163 143.725599,136.995511 145.823553,139.399048 L145.823553,148.017782 C144.913414,146.464187 143.799837,144.958401 142.433604,143.59686 C134.960542,136.152107 123.195595,136.208498 122.688231,136.200325 L119.681369,136.233424 L119.648146,139.229059 C119.642814,139.724722 119.600158,151.455551 127.07281,158.900712 C133.383077,165.18742 142.758859,166.134206 145.823553,166.273547 L145.823553,185.404997 L151.971397,185.404997 L151.971397,166.290301 C154.400348,166.226555 164.50908,165.553957 171.188488,158.900712 C178.660731,151.45596 178.618074,139.724722 178.612742,139.229059 L178.579519,136.233424 L175.572658,136.200325 C175.067754,136.199917 163.299527,136.152925 155.827284,143.59686 C154.217828,145.200308 152.958646,147.002756 151.971397,148.848927 L151.971397,139.92168 C153.818335,137.904703 158.735298,131.917519 159.789812,124.358759 L213.857953,124.358759 C214.833306,131.351572 219.112475,136.99592 221.210429,139.399456 L221.210429,148.0186 C220.30029,146.465004 219.186714,144.95881 217.82048,143.597269 C210.347828,136.152516 198.585343,136.208906 198.075107,136.200734 L195.068245,136.233833 L195.035023,139.229468 C195.029691,139.725131 194.987034,151.45596 202.459687,158.901121 C208.769954,165.187828 218.145735,166.134614 221.210429,166.273956 L221.210429,185.405405 L227.358274,185.405405 L227.358274,166.290709 C229.787224,166.226964 239.895956,165.554366 246.575365,158.901121 C254.048427,151.455142 254.004951,139.724314 253.999618,139.228651 Z M56.032779,154.568871 C52.4906623,151.039979 51.1789798,145.929296 50.6941741,142.60962 C54.0283413,143.093433 59.1569457,144.400218 62.6982422,147.928293 C66.2399488,151.456368 67.5512211,156.565416 68.0368471,159.887135 C64.70268,159.403322 59.5740755,158.096537 56.032779,154.568871 Z M84.7880735,147.928293 C88.3334715,144.395724 93.4710995,143.089756 96.8032158,142.607577 C96.3257929,145.918263 95.020673,151.015052 91.4535367,154.568871 C87.91183,158.096945 82.7836357,159.403731 79.4494686,159.887135 C79.9355048,156.565416 81.2471872,151.45596 84.7880735,147.928293 Z M73.7433629,133.721193 C71.7290814,131.030392 69.0298375,126.49342 69.0298375,121.5041 C69.0298375,116.513962 71.7299017,111.976173 73.7433629,109.286189 C75.7576445,111.977398 78.4568884,116.51437 78.4568884,121.5041 C78.4564782,126.49342 75.7572343,131.030392 73.7433629,133.721193 Z M131.420476,154.568871 C127.874667,151.03671 126.563805,145.918263 126.07982,142.598587 C129.402913,143.074228 134.518802,144.374475 138.085939,147.928702 C141.627645,151.456777 142.938918,156.565825 143.424544,159.887544 C140.089966,159.403322 134.961772,158.096537 131.420476,154.568871 Z M160.17536,147.928293 C163.720758,144.395724 168.858386,143.089756 172.190502,142.607577 C171.713079,145.918263 170.407959,151.015052 166.840823,154.568871 C163.299116,158.096945 158.170922,159.403731 154.836345,159.887135 C155.322791,156.565416 156.634063,151.45596 160.17536,147.928293 Z M149.130649,133.721193 C147.116368,131.030392 144.417124,126.49342 144.417124,121.5041 C144.417124,116.513962 147.117188,111.976173 149.130649,109.286189 C151.144931,111.977398 153.844175,116.51437 153.844175,121.5041 C153.844175,126.49342 151.144931,131.030392 149.130649,133.721193 Z M206.808172,154.568871 C203.262364,151.03671 201.951502,145.918263 201.467517,142.598587 C204.790609,143.074228 209.906499,144.374475 213.473635,147.928293 C217.014932,151.456777 218.326614,156.565825 218.81183,159.887544 C215.477663,159.403322 210.348648,158.096537 206.808172,154.568871 Z M224.518346,133.721193 C222.504064,131.030392 219.80482,126.49342 219.80482,121.5041 C219.80482,116.513962 222.504885,111.976173 224.518346,109.286189 C226.532628,111.977398 229.231871,116.51437 229.231871,121.5041 C229.231871,126.49342 226.532628,131.030392 224.518346,133.721193 Z M242.22893,154.568871 C238.687223,158.096945 233.559029,159.403731 230.224452,159.887135 C230.710488,156.565416 232.02176,151.456368 235.563057,147.928293 C239.108455,144.395724 244.246082,143.089756 247.577789,142.607577 C247.100776,145.918263 245.796066,151.014644 242.22893,154.568871 Z" id="Shape"></path>
                    <polygon id="Rectangle-path" points="0 204 296 204 296 209.675676 0 209.675676"></polygon>
                    <rect id="Rectangle-path" x="51.5675676" y="92.7027027" width="5.67567568" height="5.67567568"></rect>
                    <rect id="Rectangle-path" x="106.432432" y="107.837838" width="5.67567568" height="5.67567568"></rect>
                    <rect id="Rectangle-path" x="89.4054054" y="100.27027" width="5.67567568" height="5.67567568"></rect>
                    <rect id="Rectangle-path" x="100.756757" y="85.1351351" width="5.67567568" height="5.67567568"></rect>
                    <rect id="Rectangle-path" x="123.459459" y="100.27027" width="5.67567568" height="5.67567568"></rect>
                    <rect id="Rectangle-path" x="114" y="85.1351351" width="5.67567568" height="5.67567568"></rect>
                    <rect id="Rectangle-path" x="93.1891892" y="187.297297" width="5.67567568" height="5.67567568"></rect>
                    <rect id="Rectangle-path" x="51.5675676" y="191.081081" width="5.67567568" height="5.67567568"></rect>
                    <rect id="Rectangle-path" x="102.648649" y="174.054054" width="5.67567568" height="5.67567568"></rect>
                    <rect id="Rectangle-path" x="114" y="160.810811" width="5.67567568" height="5.67567568"></rect>
                    <rect id="Rectangle-path" x="108.324324" y="145.675676" width="5.67567568" height="5.67567568"></rect>
                    <rect id="Rectangle-path" x="115.891892" y="187.297297" width="5.67567568" height="5.67567568"></rect>
                    <rect id="Rectangle-path" x="121.567568" y="172.162162" width="5.67567568" height="5.67567568"></rect>
                    <rect id="Rectangle-path" x="165.081081" y="170.27027" width="5.67567568" height="5.67567568"></rect>
                    <rect id="Rectangle-path" x="172.648649" y="192.972973" width="5.67567568" height="5.67567568"></rect>
                    <rect id="Rectangle-path" x="178.324324" y="177.837838" width="5.67567568" height="5.67567568"></rect>
                    <rect id="Rectangle-path" x="187.783784" y="160.810811" width="5.67567568" height="5.67567568"></rect>
                    <rect id="Rectangle-path" x="184" y="145.675676" width="5.67567568" height="5.67567568"></rect>
                    <rect id="Rectangle-path" x="191.567568" y="187.297297" width="5.67567568" height="5.67567568"></rect>
                    <rect id="Rectangle-path" x="204.810811" y="174.054054" width="5.67567568" height="5.67567568"></rect>
                    <rect id="Rectangle-path" x="235.081081" y="187.297297" width="5.67567568" height="5.67567568"></rect>
                    <rect id="Rectangle-path" x="242.648649" y="174.054054" width="5.67567568" height="5.67567568"></rect>
                    <rect id="Rectangle-path" x="168.864865" y="100.27027" width="5.67567568" height="5.67567568"></rect>
                    <rect id="Rectangle-path" x="172.648649" y="85.1351351" width="5.67567568" height="5.67567568"></rect>
                    <rect id="Rectangle-path" x="185.891892" y="104.054054" width="5.67567568" height="5.67567568"></rect>
                    <rect id="Rectangle-path" x="191.567568" y="85.1351351" width="5.67567568" height="5.67567568"></rect>
                    <rect id="Rectangle-path" x="240.756757" y="85.1351351" width="5.67567568" height="5.67567568"></rect>
                    <rect id="Rectangle-path" x="236.972973" y="100.27027" width="5.67567568" height="5.67567568"></rect>
                </g>
                <g id="Group-3" transform="translate(300.105429, 162.393035) rotate(-69.000000) translate(-300.105429, -162.393035) translate(265.605429, 128.393035)">
                    <path d="M46.5323284,42.6905479 C46.5323225,42.6905041 46.5323173,42.6904651 46.5323101,42.690412 C46.532311,42.6904187 46.5323115,42.690422 46.5323166,42.6904596 Z M48.5232112,42.4926375 C48.5320199,42.5659904 48.5320465,42.5662322 48.5441723,42.6765369 C48.5652864,42.8735871 48.5862476,43.103001 48.6057119,43.3630998 C48.8232214,46.2696501 48.6879295,49.8131268 47.9395176,53.6729765 C47.323548,56.8497702 44.4087407,60.4302189 41.7981234,61.758039 C39.6422612,62.9340026 36.2948763,63.8288811 33.9311979,63.8288811 C27.792319,63.8288811 22.4269301,59.9318641 20.3219058,54.2672827 L18.9304727,55.203045 C18.5380696,55.465568 18.0840842,55.6022455 17.6218523,55.6022455 C16.8370318,55.6022455 16.0965499,55.2116189 15.6553807,54.5429716 C14.9362764,53.4547365 15.2270923,51.9878254 16.3085694,51.2604381 L19.3408891,49.221258 C19.3395535,49.1881526 19.3389298,49.1542744 19.3389298,49.1176932 L19.3389298,41.8909291 L16.2613385,41.8909291 C14.9557918,41.8909291 13.902099,40.8279874 13.902099,39.5197589 C13.902099,38.2115303 14.9557918,37.1485887 16.2613385,37.1485887 L19.3389298,37.1485887 L19.3389298,29.8172183 L16.3085095,27.7791678 C15.2270862,27.0518168 14.936249,25.5847295 15.6532922,24.4998482 C16.3719818,23.4032053 17.8398215,23.1085408 18.9326178,23.8379546 L20.3294728,24.7773904 C21.4671415,22.6960394 23.4935718,21.227492 25.8536807,20.8307792 L26.2985157,17.5242557 C26.465972,16.5120184 26.87942,15.5795293 27.4943671,14.7861339 L27.4943671,13.3866712 C27.4943671,10.9577636 25.5376508,8.98387241 23.1385784,8.98387241 C21.8330808,8.98387241 20.7780646,7.92097284 20.7780646,6.6127022 C20.7780646,5.30447362 21.8317575,4.24153199 23.1373042,4.24153199 C27.8367909,4.24153199 31.709202,7.8561213 32.1674668,12.4683155 C32.1722392,12.4683026 32.1770115,12.4682962 32.1817838,12.4682962 L35.680612,12.4682962 C35.6853881,12.4682962 35.6901644,12.4683026 35.6949406,12.4683155 C36.1532425,7.85626119 40.025347,4.24153199 44.7238174,4.24153199 C46.029315,4.24153199 47.0843312,5.30443156 47.0843312,6.6127022 C47.0843312,7.92093078 46.0306383,8.98387241 44.7250916,8.98387241 C42.3256708,8.98387241 40.3679013,10.9581128 40.3679013,13.3866712 L40.3679013,14.7769306 C40.9803703,15.5634627 41.3923775,16.4890269 41.5615908,17.5136527 L42.0082362,20.8305258 C44.3685375,21.2272657 46.3950139,22.6957405 47.5326809,24.7771261 L48.9315311,23.8363507 C50.0201807,23.1080108 51.4879001,23.4026511 52.2067603,24.4964176 C52.9258645,25.5846527 52.6350487,27.0515638 51.5535993,27.7789323 L48.5232112,29.8169612 L48.5232112,37.1484601 L51.6008024,37.1484601 C52.9063491,37.1484601 53.960042,38.2114017 53.960042,39.5196303 C53.960042,40.8278589 52.9063491,41.8908005 51.6008024,41.8908005 L48.5232112,41.8908005 L48.5232112,42.4926375 Z" id="Shape" stroke="#EFF2F5" stroke-width="2" fill="#EFF2F5" stroke-linecap="round" stroke-linejoin="round" transform="translate(33.931070, 34.035207) rotate(46.000000) translate(-33.931070, -34.035207) "></path>
                    <path d="M47.7228782,42.2737675 C47.7228782,42.2737675 48.3650293,46.9727143 47.1574686,53.2005721 C46.5430029,56.3696097 43.5640233,59.5575516 41.5189262,60.5980971 C39.5540369,61.6698902 36.3723933,62.5468282 34.1308649,62.5468282 C27.8712527,62.5468282 22.6391934,58.232276 21.067282,52.4131258 L18.5740898,54.0898431 C18.3417945,54.2452519 18.080319,54.3201925 17.8215194,54.3201925 C17.3822863,54.3201925 16.9508262,54.105911 16.6893507,53.7096124 C16.2725444,53.078851 16.4411273,52.2286663 17.066273,51.8082015 L20.5984864,49.4328519 C20.5896941,49.2305249 20.5385968,49.0401525 20.5385968,48.8356402 L20.5385968,40.6088761 L16.4610056,40.6088761 C15.7097094,40.6088761 15.101766,39.9955965 15.101766,39.2377059 C15.101766,38.4798152 15.7097094,37.8665357 16.4610056,37.8665357 L20.5385968,37.8665357 L20.5385968,29.0025829 L17.066273,26.6673388 C16.4411273,26.246874 16.2725444,25.3965608 16.6893507,24.7659279 C17.103481,24.1340096 17.9463956,23.9666463 18.5742172,24.3856971 L20.9551482,25.9869597 C21.8496698,23.4527307 24.1654868,21.6172625 26.9406699,21.4532414 L27.4847735,17.4054163 C27.6478771,16.41949 28.0839245,15.5554227 28.6940341,14.8632176 L28.6940341,13.1046182 C28.6940341,10.1253727 26.2915683,7.70181942 23.3382455,7.70181942 C22.5869493,7.70181942 21.9777317,7.08853986 21.9777317,6.33064922 C21.9777317,5.57275857 22.585675,4.95947901 23.3369712,4.95947901 C27.7902106,4.95947901 31.4125132,8.61357627 31.4125132,13.1044897 L31.4125132,13.2877923 C31.7271249,13.2250632 32.0496369,13.1862432 32.3814509,13.1862432 L35.880279,13.1862432 C36.212093,13.1862432 36.534605,13.2250632 36.8492166,13.2876637 L36.8492166,13.1046182 C36.8492166,8.61357627 40.4715193,4.95947901 44.9234844,4.95947901 C45.6747806,4.95947901 46.2839982,5.57275857 46.2839982,6.33064922 C46.2839982,7.08853986 45.6760548,7.70181942 44.9247587,7.70181942 C41.9714358,7.70181942 39.5675683,10.1253727 39.5675683,13.1046182 L39.5675683,14.855505 C40.1760214,15.5416686 40.6097751,16.3959666 40.7702029,17.3650537 L41.3206777,21.4529843 C44.0959882,21.6171339 46.4118052,23.452345 47.3063268,25.9867026 L49.6872578,24.3854401 C50.3138052,23.9662607 51.1567197,24.133624 51.5721244,24.7656708 C51.9889306,25.3964323 51.8203477,26.2466169 51.195202,26.6670817 L47.7228782,29.0023258 L47.7228782,37.8664071 L51.8004695,37.8664071 C52.5517657,37.8664071 53.159709,38.4796867 53.159709,39.2375773 C53.159709,39.995468 52.5517657,40.6087475 51.8004695,40.6087475 L47.7228782,40.6087475 L47.7228782,42.2737675 Z M37.101766,58.959479 C41.3318422,58.3185694 44.625697,54.0357557 44.625697,48.8053166 L44.625697,29.5225917 C44.625697,27.3959482 43.1792949,25.6660467 41.4011695,25.6660467 L37.101766,25.6660467 L37.101766,58.959479 Z M32.101766,58.959479 L32.101766,25.6660467 L28.1017526,25.6660467 C26.4474475,25.6660467 25.101766,27.3959482 25.101766,29.5225917 L25.101766,48.8053166 C25.101766,54.0357557 28.1662523,58.3185694 32.101766,58.959479 Z M31.334345,20.3974954 L36.9268751,20.3974954 L36.6188447,18.1066908 C36.5094012,17.4439423 35.9243118,16.943967 35.2322663,16.943967 L33.0291143,16.943967 C32.3370688,16.943967 31.7520597,17.4439423 31.6383636,18.1319445 L31.334345,20.3974954 Z" id="Combined-Shape" fill="#FF001F" fill-rule="nonzero" transform="translate(34.130738, 33.753154) rotate(46.000000) translate(-34.130738, -33.753154) "></path>
                </g>
                <g id="Group-3" transform="translate(40.353644, 117.958235) rotate(11.000000) translate(-40.353644, -117.958235) translate(5.853644, 83.958235)">
                    <path d="M49.5701119,42.8908005 C49.5813717,43.0148477 49.5923726,43.1474837 49.6029235,43.2884743 C49.8266473,46.2780645 49.6880288,49.9086685 48.9212336,53.8633279 C48.2437791,57.3572232 45.1256124,61.1874717 42.2769877,62.6359279 C39.9775541,63.8902058 36.4663427,64.8288811 33.9311979,64.8288811 C27.7950278,64.8288811 22.3852993,61.1909254 19.8691862,55.7768467 L19.4865227,56.0341939 C18.9288759,56.4072672 18.2812394,56.6022455 17.6218523,56.6022455 C16.5040756,56.6022455 15.4486844,56.0454946 14.8210777,55.0942778 C13.7996626,53.5485496 14.2127435,51.4649186 15.7505329,50.4306217 L18.3389298,48.6899717 L18.3389298,42.8909291 L16.2613385,42.8909291 C14.4015414,42.8909291 12.902099,41.3783254 12.902099,39.5197589 C12.902099,37.6611923 14.4015414,36.1485887 16.2613385,36.1485887 L18.3389298,36.1485887 L18.3389298,30.3498007 L15.750413,28.6089439 C14.2127212,27.5747126 13.7996145,25.4908544 14.8169008,23.9517156 C15.8408474,22.3892833 17.9339795,21.9690932 19.4906853,23.0081591 L20.0339814,23.3735455 C21.2253081,21.7181097 22.9616633,20.5143702 24.9566066,19.9999756 L25.3119249,17.3610421 C25.4871434,16.3018841 25.8942066,15.3169118 26.4943671,14.4581939 L26.4943671,13.3866712 C26.4943671,11.5081016 24.9834003,9.98387241 23.1385784,9.98387241 C21.2791227,9.98387241 19.7780646,8.47159798 19.7780646,6.6127022 C19.7780646,4.75413569 21.277507,3.24153199 23.1373042,3.24153199 C28.0467562,3.24153199 32.1400057,6.78965681 33.0322972,11.4682962 L34.8301177,11.4682962 C35.7224115,6.78978641 39.8153077,3.24153199 44.7238174,3.24153199 C46.583273,3.24153199 48.0843312,4.75380642 48.0843312,6.6127022 C48.0843312,8.47126871 46.5848887,9.98387241 44.7250916,9.98387241 C42.8798396,9.98387241 41.3679013,11.5085308 41.3679013,13.3866712 L41.3679013,14.4481499 C41.9656571,15.3014037 42.3723,16.2863594 42.5526458,17.3801987 L42.9053888,19.9997351 C44.9004457,20.5141417 46.6368424,21.7178377 47.8281771,23.373282 L48.3754714,23.0052083 C49.9251602,21.9684192 52.0180475,22.3885601 53.0410632,23.9451113 C54.0624783,25.4908396 53.6493974,27.5744705 52.1116637,28.60873 L49.5232112,30.3495436 L49.5232112,36.1484601 L51.6008024,36.1484601 C53.4605995,36.1484601 54.960042,37.6610638 54.960042,39.5196303 C54.960042,41.3781968 53.4605995,42.8908005 51.6008024,42.8908005 L49.5701119,42.8908005 Z" id="Shape" stroke="#EFF2F5" stroke-width="4" fill="#EFF2F5" stroke-linecap="round" stroke-linejoin="round" transform="translate(33.931070, 34.035207) rotate(46.000000) translate(-33.931070, -34.035207) "></path>
                    <path d="M47.7228782,42.2737675 C47.7228782,42.2737675 48.3650293,46.9727143 47.1574686,53.2005721 C46.5430029,56.3696097 43.5640233,59.5575516 41.5189262,60.5980971 C39.5540369,61.6698902 36.3723933,62.5468282 34.1308649,62.5468282 C27.8712527,62.5468282 22.6391934,58.232276 21.067282,52.4131258 L18.5740898,54.0898431 C18.3417945,54.2452519 18.080319,54.3201925 17.8215194,54.3201925 C17.3822863,54.3201925 16.9508262,54.105911 16.6893507,53.7096124 C16.2725444,53.078851 16.4411273,52.2286663 17.066273,51.8082015 L20.5984864,49.4328519 C20.5896941,49.2305249 20.5385968,49.0401525 20.5385968,48.8356402 L20.5385968,40.6088761 L16.4610056,40.6088761 C15.7097094,40.6088761 15.101766,39.9955965 15.101766,39.2377059 C15.101766,38.4798152 15.7097094,37.8665357 16.4610056,37.8665357 L20.5385968,37.8665357 L20.5385968,29.0025829 L17.066273,26.6673388 C16.4411273,26.246874 16.2725444,25.3965608 16.6893507,24.7659279 C17.103481,24.1340096 17.9463956,23.9666463 18.5742172,24.3856971 L20.9551482,25.9869597 C21.8496698,23.4527307 24.1654868,21.6172625 26.9406699,21.4532414 L27.4847735,17.4054163 C27.6478771,16.41949 28.0839245,15.5554227 28.6940341,14.8632176 L28.6940341,13.1046182 C28.6940341,10.1253727 26.2915683,7.70181942 23.3382455,7.70181942 C22.5869493,7.70181942 21.9777317,7.08853986 21.9777317,6.33064922 C21.9777317,5.57275857 22.585675,4.95947901 23.3369712,4.95947901 C27.7902106,4.95947901 31.4125132,8.61357627 31.4125132,13.1044897 L31.4125132,13.2877923 C31.7271249,13.2250632 32.0496369,13.1862432 32.3814509,13.1862432 L35.880279,13.1862432 C36.212093,13.1862432 36.534605,13.2250632 36.8492166,13.2876637 L36.8492166,13.1046182 C36.8492166,8.61357627 40.4715193,4.95947901 44.9234844,4.95947901 C45.6747806,4.95947901 46.2839982,5.57275857 46.2839982,6.33064922 C46.2839982,7.08853986 45.6760548,7.70181942 44.9247587,7.70181942 C41.9714358,7.70181942 39.5675683,10.1253727 39.5675683,13.1046182 L39.5675683,14.855505 C40.1760214,15.5416686 40.6097751,16.3959666 40.7702029,17.3650537 L41.3206777,21.4529843 C44.0959882,21.6171339 46.4118052,23.452345 47.3063268,25.9867026 L49.6872578,24.3854401 C50.3138052,23.9662607 51.1567197,24.133624 51.5721244,24.7656708 C51.9889306,25.3964323 51.8203477,26.2466169 51.195202,26.6670817 L47.7228782,29.0023258 L47.7228782,37.8664071 L51.8004695,37.8664071 C52.5517657,37.8664071 53.159709,38.4796867 53.159709,39.2375773 C53.159709,39.995468 52.5517657,40.6087475 51.8004695,40.6087475 L47.7228782,40.6087475 L47.7228782,42.2737675 Z M36.7769793,57.959479 C40.964844,57.3462057 44.2258299,53.2480683 44.2258299,48.2431674 L44.2258299,29.7919198 C44.2258299,27.7569778 42.7938612,26.1016703 41.0334796,26.1016703 L36.7769793,26.1016703 L36.7769793,57.959479 Z M31.7261405,57.8172877 L31.7261405,25.959479 L27.4841536,25.959479 C25.7297743,25.959479 24.3026882,27.6147866 24.3026882,29.6497285 L24.3026882,48.1009761 C24.3026882,53.105877 27.5525551,57.2040144 31.7261405,57.8172877 Z M31.334345,20.3974954 L36.9268751,20.3974954 L36.6188447,18.1066908 C36.5094012,17.4439423 35.9243118,16.943967 35.2322663,16.943967 L33.0291143,16.943967 C32.3370688,16.943967 31.7520597,17.4439423 31.6383636,18.1319445 L31.334345,20.3974954 Z" id="Combined-Shape" fill="#FF001F" fill-rule="nonzero" transform="translate(34.130738, 33.753154) rotate(46.000000) translate(-34.130738, -33.753154) "></path>
                </g>
                <g id="Group-3" transform="translate(206.322926, 79.804552) rotate(-96.000000) translate(-206.322926, -79.804552) translate(182.822926, 56.804552)">
                    <path d="M33.8186883,29.2699086 C33.8217983,29.3081606 33.8248635,29.3474106 33.8278746,29.3876471 C33.9806916,31.4297196 33.8860809,33.9076991 33.3627264,36.6068413 C32.8939353,39.0245781 30.7474879,41.6612001 28.7791814,42.6619815 C27.1972301,43.5248925 24.7894606,44.1685774 23.043478,44.1685774 C18.876589,44.1685774 15.1968618,41.7317395 13.4360841,38.0889037 L13.3125795,38.1719624 C12.9104446,38.4409961 12.4431688,38.5816748 11.9674162,38.5816748 C11.1611102,38.5816748 10.3997298,38.1800235 9.94707924,37.4939748 C9.21055872,36.3793833 9.50842314,34.8769185 10.6174558,34.1309978 L12.3126477,32.9910119 L12.3126477,29.2699959 L11.0434591,29.2699959 C9.70186042,29.2699959 8.62036743,28.1790102 8.62036743,26.8388018 C8.62036743,25.4985935 9.70186042,24.4076077 11.0434591,24.4076077 L12.3126477,24.4076077 L12.3126477,20.6867616 L10.6173658,19.5466327 C9.50840569,18.8007607 9.21052315,17.2981343 9.94394657,16.1884765 C10.6826039,15.0613649 12.1927363,14.7582103 13.3156925,15.5077586 L13.5719822,15.6801228 C14.3779842,14.6113934 15.5170161,13.8280481 16.8207834,13.4697971 L17.0500742,11.7671579 C17.1700657,11.0418353 17.445637,10.3661812 17.8511978,9.77462714 L17.8511978,9.09120467 C17.8511978,7.89343556 16.8882508,6.92203636 15.7139552,6.92203636 C14.3726298,6.92203636 13.2899981,5.83131494 13.2899981,4.49084228 C13.2899981,3.15063394 14.3714911,2.0596482 15.7130898,2.0596482 C19.0762225,2.0596482 21.8864191,4.46097348 22.5493111,7.64663808 L23.5376587,7.64663808 C24.2005474,4.46106019 27.0104987,2.0596482 30.3730009,2.0596482 C31.7143262,2.0596482 32.7969579,3.15036961 32.7969579,4.49084228 C32.7969579,5.83105062 31.7154649,6.92203636 30.3738662,6.92203636 C29.199267,6.92203636 28.2356717,7.89373841 28.2356717,9.09120467 L28.2356717,9.76776227 C28.6396402,10.3559365 28.9150971,11.0327247 29.0389918,11.784386 L29.2659256,13.4696397 C30.5697552,13.8278994 31.7088081,14.611216 32.5148129,15.6799444 L32.7741024,15.5055637 C33.8918862,14.7577322 35.4018347,15.0608498 36.1397038,16.1835416 C36.8762243,17.2981331 36.5783599,18.8005978 35.469369,19.5464905 L33.7741353,20.686587 L33.7741353,24.4075204 L35.0433239,24.4075204 C36.3849226,24.4075204 37.4664156,25.4985062 37.4664156,26.8387145 C37.4664156,28.1789229 36.3849226,29.2699086 35.0433239,29.2699086 L33.8186883,29.2699086 Z" id="Shape" stroke="#EFF2F5" stroke-width="3" fill="#EFF2F5" stroke-linecap="round" stroke-linejoin="round" transform="translate(23.043392, 23.114113) rotate(46.000000) translate(-23.043392, -23.114113) "></path>
                    <path d="M32.409734,28.7091141 C32.409734,28.7091141 32.8458339,31.9002799 32.0257509,36.1297653 C31.6084528,38.2819336 29.5853574,40.4469402 28.1964836,41.1535992 C26.8620809,41.8814793 24.7013515,42.4770285 23.1790767,42.4770285 C18.9280261,42.4770285 15.3748111,39.5469142 14.3072889,35.5949919 L12.6141032,36.7336902 C12.4563459,36.839232 12.2787717,36.890126 12.1030148,36.890126 C11.8047213,36.890126 11.5117065,36.7446023 11.3341323,36.4754665 C11.0510693,36.0471016 11.1655579,35.4697211 11.5901092,35.1841735 L13.9889187,33.5710175 C13.9829477,33.4336124 13.9482463,33.304326 13.9482463,33.1654369 L13.9482463,27.578447 L11.1790577,27.578447 C10.6688347,27.578447 10.255966,27.1619544 10.255966,26.647253 C10.255966,26.1325515 10.6688347,25.7160589 11.1790577,25.7160589 L13.9482463,25.7160589 L13.9482463,19.6963392 L11.5901092,18.1104197 C11.1655579,17.8248722 11.0510693,17.2474044 11.3341323,16.8191267 C11.615378,16.389976 12.1878212,16.2763157 12.6141897,16.560903 L14.2311362,17.6483582 C14.8386269,15.9273034 16.4113529,14.6807936 18.2960453,14.569403 L18.6655589,11.8204294 C18.7763265,11.1508636 19.0724566,10.564055 19.4867964,10.0939622 L19.4867964,8.89965582 C19.4867964,6.87637981 17.8552251,5.23048751 15.8495538,5.23048751 C15.3393308,5.23048751 14.9255967,4.81399487 14.9255967,4.29929343 C14.9255967,3.78459199 15.3384655,3.36809935 15.8486884,3.36809935 C18.8729885,3.36809935 21.3329798,5.84968312 21.3329798,8.89956852 L21.3329798,9.02405364 C21.54664,8.98145284 21.7656655,8.95508924 21.9910082,8.95508924 L24.3671451,8.95508924 C24.5924878,8.95508924 24.8115133,8.98145284 25.0251735,9.02396635 L25.0251735,8.89965582 C25.0251735,5.84968312 27.4851648,3.36809935 30.5085995,3.36809935 C31.0188225,3.36809935 31.4325566,3.78459199 31.4325566,4.29929343 C31.4325566,4.81399487 31.0196878,5.23048751 30.5094649,5.23048751 C28.5037935,5.23048751 26.8712703,6.87637981 26.8712703,8.89965582 L26.8712703,10.0887244 C27.2844852,10.5547143 27.5790576,11.1348883 27.6880079,11.7930182 L28.0618483,14.5692284 C29.9466273,14.6807063 31.5193533,15.9270415 32.126844,17.6481836 L33.7437905,16.5607284 C34.1692937,16.2760538 34.7417369,16.3897141 35.0238479,16.8189521 C35.3069109,17.2473171 35.1924223,17.8246976 34.7678711,18.1102451 L32.409734,19.6961646 L32.409734,25.7159716 L35.1789225,25.7159716 C35.6891455,25.7159716 36.1020142,26.1324642 36.1020142,26.6471657 C36.1020142,27.1618671 35.6891455,27.5783598 35.1789225,27.5783598 L32.409734,27.5783598 L32.409734,28.7091141 Z M24.2747262,38.3680994 C26.5758109,37.9830927 28.3676081,35.4103248 28.3676081,32.2683003 L28.3676081,20.6847995 C28.3676081,19.4072842 27.5807916,18.3680994 26.6135237,18.3680994 L24.2747262,18.3680994 L24.2747262,38.3680994 Z M21.3488479,38.3680994 L21.3488479,18.3680994 L19.0100504,18.3680994 C18.0427825,18.3680994 17.255966,19.4072842 17.255966,20.6847995 L17.255966,32.2683003 C17.255966,35.4103248 19.0477632,37.9830927 21.3488479,38.3680994 Z M21.1324626,13.9434635 L25.2253445,13.9434635 L24.999913,12.2669428 C24.919817,11.7819116 24.4916206,11.4160057 23.9851485,11.4160057 L22.3727761,11.4160057 C21.866304,11.4160057 21.4381663,11.7819116 21.354958,12.2854247 L21.1324626,13.9434635 Z" id="Combined-Shape" fill="#FF001F" fill-rule="nonzero" transform="translate(23.178990, 22.922564) rotate(46.000000) translate(-23.178990, -22.922564) "></path>
                </g>
                <g id="Group" transform="translate(121.000000, 101.000000)">
                    <g id="Path">
                        <path stroke="#FF001F" stroke-width="6" d="M42.4575,3 C20.663384,3 3,20.6878147 3,42.5 C3,64.3121853 20.663384,82 42.4575,82 C64.2970346,82 82,64.309252 82,42.5 C82,20.690748 64.2970346,3 42.4575,3 Z" stroke-linejoin="square" fill="#EFF2F5" fill-rule="evenodd"></path>
                        <path stroke="#EFF2F5" stroke-width="3" d="M42.4575,-1.5 C66.7816208,-1.5 86.5,18.2047709 86.5,42.5 C86.5,66.7952291 66.7816208,86.5 42.4575,86.5 C18.1767092,86.5 -1.5,66.7960754 -1.5,42.5 C-1.5,18.2039246 18.1767092,-1.5 42.4575,-1.5 Z"></path>
                    </g>
                    <polygon id="Path" stroke="#FF001F" stroke-width="4" fill="#FF001F" stroke-linecap="round" stroke-linejoin="round" points="42 59 44 59 44 64 42 64"></polygon>
                    <polygon id="Path" stroke="#FF001F" stroke-width="4" fill="#FF001F" stroke-linecap="round" stroke-linejoin="round" points="42 19 44 19 44 47 42 47"></polygon>
                </g>
            </g>
        </g>
    </g>
</svg>