<?xml version="1.0" encoding="UTF-8"?>
<svg width="297px" height="215px" viewBox="0 0 297 215" version="1.1" xmlns="http://www.w3.org/2000/svg" xmlns:xlink="http://www.w3.org/1999/xlink">
    <!-- Generator: sketchtool 50.2 (55047) - http://www.bohemiancoding.com/sketch -->
    <title>00C14D7E-35F3-4509-B3AD-5D5B65F1CD17</title>
    <desc>Created with sketchtool.</desc>
    <defs></defs>
    <g id="Emails/Estaticas" stroke="none" stroke-width="1" fill="none" fill-rule="evenodd">
        <g id="acceso_restringido" transform="translate(-494.000000, -257.000000)">
            <g id="Group-2" transform="translate(494.000000, 257.000000)">
                <g id="farmer">
                    <path d="M4.53083722,205 L4.46916278,205 C2.00129109,205 0,207.01465 0,209.5 C0,211.98535 2.00129109,214 4.46916278,214 L4.53083722,214 C6.99870891,214 9,211.98535 9,209.5 C9,207.01465 6.99870891,205 4.53083722,205 Z" id="Shape" fill="#FF7C59" fill-rule="nonzero"></path>
                    <path d="M210.254188,148.405053 C210.190313,148.383127 210.126438,148.362078 210.062125,148.342783 L173.86425,137.57832 C172.888625,137.216098 172.2035,136.541648 172.121688,135.885176 L172.121688,125.125537 C172.121688,124.980824 172.113812,124.837865 172.10025,124.69666 L185.899875,116.765504 C185.9795,116.719898 186.057375,116.671221 186.134375,116.620352 C192.468062,112.427619 196.627813,104.961738 197.262187,96.648627 C197.270938,96.5372418 197.274875,96.4258566 197.274875,96.3140328 L197.274875,91.7665328 C203.679875,89.8699139 208.36725,83.9204508 208.36725,76.8939713 C208.36725,73.2362377 207.095,69.871877 204.973562,67.2174877 C206.93575,67.8406311 208.871688,68.4900861 210.76125,69.1816393 C211.252125,69.3614344 211.759187,69.4478238 212.261437,69.4478238 C213.600187,69.4478238 214.898687,68.8308197 215.7435,67.7187213 C216.904625,66.1895861 216.937437,64.0802828 215.824,62.515627 L195.574312,34.0659057 L195.574312,12.8185123 C195.574312,11.0003893 194.45475,9.37039344 192.759875,8.72181557 C191.828875,8.36573361 169.72375,0 148.329125,0 C126.9345,0 104.828938,8.36573361 103.898375,8.72181557 C102.203938,9.37039344 101.083938,11.0003893 101.083938,12.8185123 L101.083938,34.0724836 L80.926125,62.5248361 C79.8170625,64.0903689 79.8529375,66.1974795 81.0149375,67.7235451 C82.1769375,69.2504877 84.195125,69.8416189 85.994125,69.1829549 C87.8416875,68.50675 89.7343125,67.8713279 91.651875,67.2604631 C89.550125,69.9082746 88.2905625,73.2564098 88.2905625,76.8948484 C88.2905625,83.9213279 92.978375,89.8712295 99.383375,91.7674098 L99.383375,96.3149098 C99.383375,96.4262951 99.38775,96.5376803 99.3960625,96.6490656 C100.032188,104.997258 104.162625,112.463578 110.443813,116.62123 C110.522125,116.672975 110.60175,116.72209 110.683563,116.769012 L124.642438,124.767701 C124.63325,124.886102 124.6245,125.004943 124.6245,125.125975 L124.6245,133.927164 C124.579875,134.178 124.55275,134.434975 124.55275,134.698529 L124.55275,135.75625 C124.55275,136.451311 123.833063,137.192857 122.793563,137.578758 L86.56375,148.342783 C86.499,148.362078 86.4338125,148.383127 86.3699375,148.405492 C78.2775,151.226082 72.625,158.85641 72.625,166.960344 L72.625,205.229508 L44.625,205.229508 L44.625,162.254098 L52.9375,162.254098 C61.3808125,162.254098 68.25,155.368824 68.25,146.905738 L68.25,86.8094508 C68.25,84.3874795 66.290875,82.4242049 63.875,82.4242049 C61.459125,82.4242049 59.5,84.3874795 59.5,86.8094508 L59.5,146.905738 C59.5,150.532775 56.5560625,153.483607 52.9375,153.483607 L48.4369375,153.483607 L48.4369375,86.4029385 C48.4369375,83.9809672 46.4778125,82.0176926 44.0619375,82.0176926 C41.6460625,82.0176926 39.6869375,83.9809672 39.6869375,86.4029385 L39.6869375,153.483607 L28.6234375,153.483607 L28.6234375,86.4029385 C28.6234375,83.9809672 26.6643125,82.0176926 24.2484375,82.0176926 C21.8325625,82.0176926 19.8734375,83.9809672 19.8734375,86.4029385 L19.8734375,153.483607 L15.3125,153.483607 C11.6939375,153.483607 8.75,150.532775 8.75,146.905738 L8.75,86.8094508 C8.75,84.3874795 6.790875,82.4242049 4.375,82.4242049 C1.959125,82.4242049 0,84.3874795 0,86.8094508 L0,146.905738 C0,155.368824 6.8691875,162.254098 15.3125,162.254098 L23.625,162.254098 L23.625,205.229508 L17.4934375,205.229508 C15.0775625,205.229508 13.1184375,207.192783 13.1184375,209.614754 C13.1184375,212.036725 15.0775625,214 17.4934375,214 L219.625,214 C222.040875,214 224,212.036725 224,209.614754 C224,209.094225 224,166.960344 224,166.960344 C224,158.85641 218.3475,151.226082 210.254188,148.405053 Z M35.875,205.229508 L32.375,205.229508 L32.375,162.254098 L35.875,162.254098 L35.875,205.229508 Z M109.834375,15.9228279 C116.284,13.7508156 132.770313,8.7704918 148.329125,8.7704918 C163.85425,8.7704918 180.36725,13.7538852 186.823438,15.9250205 L186.823438,29.9626311 C179.815125,28.5632992 166.383875,26.5386311 147.306688,26.5386311 C128.845063,26.5386311 116.460313,28.4440205 109.834375,29.8486148 L109.834375,15.9228279 Z M108.139063,39.2628607 C112.100625,38.2134713 125.079063,35.309123 147.306688,35.309123 C169.774063,35.309123 184.184,38.2770574 188.566438,39.323377 L201.099063,56.9314549 C185.009563,52.5650656 167.038813,50.2851762 148.37725,50.2851762 C129.698625,50.2851762 111.713438,52.5690123 95.6125625,56.9432951 L108.139063,39.2628607 Z M115.157438,109.229459 C111.213813,106.562791 108.599313,101.689029 108.133813,96.1399385 L108.133813,88.0136393 C108.133813,85.591668 106.174688,83.6283934 103.758813,83.6283934 C100.0545,83.6283934 97.041,80.6078361 97.041,76.8948484 C97.041,73.1818607 100.054938,70.1613033 103.758813,70.1613033 C106.091563,70.1613033 108.014375,68.3265164 108.128563,65.991373 L108.277313,62.9532746 C120.849313,60.3879057 134.39475,59.0561066 148.37725,59.0561066 C162.37725,59.0561066 175.938875,60.3909754 188.524438,62.9624836 L188.524438,65.7760574 C188.524438,68.1980287 190.483563,70.1613033 192.899438,70.1613033 C196.60375,70.1613033 199.616813,73.1818607 199.616813,76.8948484 C199.616813,80.6078361 196.603313,83.6283934 192.899438,83.6283934 C190.483563,83.6283934 188.524438,85.591668 188.524438,88.0136393 L188.524438,96.1390615 C188.060688,101.656578 185.415563,106.530779 181.419,109.230775 L154.811125,124.523004 C154.7315,124.569049 154.653188,124.617287 154.576625,124.668156 C150.6645,127.257643 145.994188,127.257205 142.0825,124.668156 C142.004188,124.61641 141.924563,124.566857 141.84275,124.520373 L115.157438,109.229459 Z M163.370813,136.144783 L163.370813,138.978967 L148.392563,153.924762 L133.374937,138.975898 L133.374937,129.771266 L137.384625,132.068258 C140.766938,134.274037 144.547813,135.376049 148.329563,135.376049 C152.11175,135.376049 155.8935,134.27316 159.27625,132.066504 L163.370813,129.713381 L163.370813,134.376213 C163.362938,134.483213 163.354625,134.589775 163.354625,134.698529 L163.354625,135.75625 C163.354625,135.88693 163.365563,136.015418 163.370813,136.144783 Z M93.169125,205.229508 L81.375,205.229508 L81.375,166.960344 C81.375,162.69657 84.714,158.310447 89.1568125,156.719918 L93.169125,155.528008 L93.169125,205.229508 Z M194.6875,205.229508 L189.571375,205.229508 L189.571375,174.377111 C189.571375,171.955139 187.61225,169.991865 185.196375,169.991865 C182.7805,169.991865 180.821375,171.955139 180.821375,174.377111 L180.821375,205.229508 L115.78525,205.229508 L115.78525,174.377111 C115.78525,171.955139 113.826125,169.991865 111.41025,169.991865 C108.994375,169.991865 107.03525,171.955139 107.03525,174.377111 L107.03525,205.229508 L101.919125,205.229508 L101.919125,152.928434 L125.395813,145.953262 C125.461,145.933967 125.52575,145.912918 125.589625,145.890553 C126.154875,145.693656 126.694313,145.460799 127.208813,145.198561 L145.313438,163.21973 C146.166563,164.069152 147.281313,164.493205 148.3965,164.493205 C149.513,164.493205 150.6295,164.067398 151.483063,163.215783 L169.510688,145.227504 C170.00725,145.477025 170.52525,145.701111 171.068625,145.890553 C171.1325,145.912918 171.196375,145.933529 171.260688,145.952824 L194.6875,152.919225 L194.6875,205.229508 Z M215.25,205.229508 L203.4375,205.229508 L203.4375,155.520992 L207.468188,156.71948 C211.910563,158.310447 215.25,162.69657 215.25,166.960344 L215.25,205.229508 Z" id="Shape" fill="#FF7C59" fill-rule="nonzero"></path>
                    <path d="M136.5,106.5 C140.166667,102.186745 143.833333,100.030118 147.5,100.030118 C151.166667,100.030118 154.833333,102.186745 158.5,106.5" id="Line-2" stroke="#FF7C59" stroke-width="6" stroke-linecap="round" stroke-linejoin="round"></path>
                    <path d="M167,73 C164.243007,73 162,75.2430071 162,78 C162,80.7569929 164.243007,83 167,83 C169.756993,83 172,80.7569929 172,78 C172,75.2430071 169.756993,73 167,73 Z" id="Shape" fill="#FF7C59" fill-rule="nonzero"></path>
                    <path d="M131,73 C128.243007,73 126,75.2430071 126,78 C126,80.7569929 128.243007,83 131,83 C133.756993,83 136,80.7569929 136,78 C136,75.2430071 133.756993,73 131,73 Z" id="Shape" fill="#FF7C59" fill-rule="nonzero"></path>
                    <path d="M111.5,157 C109.0151,157 107,159.000546 107,161.468497 L107,161.531503 C107,163.999454 109.0151,166 111.5,166 C113.9849,166 116,163.999454 116,161.531503 L116,161.468497 C116,159.000546 113.9849,157 111.5,157 Z" id="Shape" fill="#FF7C59" fill-rule="nonzero"></path>
                    <path d="M184.5,157 C182.0151,157 180,159.000546 180,161.468497 L180,161.531503 C180,163.999454 182.01465,166 184.5,166 C186.9849,166 189,163.999454 189,161.531503 L189,161.468497 C189,159.000546 186.9849,157 184.5,157 Z" id="Shape" fill="#FF7C59" fill-rule="nonzero"></path>
                </g>
                <g id="Group" transform="translate(161.000000, 79.000000)">
                    <path d="M65.4345,-2.5 C103.026193,-2.5 133.5,27.952776 133.5,65.5 C133.5,103.047224 103.026193,133.5 65.4345,133.5 C27.9094988,133.5 -2.5,103.048441 -2.5,65.5 C-2.5,27.951559 27.9094988,-2.5 65.4345,-2.5 Z" id="Shape" stroke="#EFF2F5" stroke-width="5" fill="#EFF2F5"></path>
                    <path d="M65.4345,0 C29.2785,0 0,29.344 0,65.5 C0,101.656 29.2785,131 65.4345,131 C101.656,131 131,101.656 131,65.5 C131,29.344 101.656,0 65.4345,0 Z M65.5,117.9 C36.549,117.9 13.1,94.451 13.1,65.5 C13.1,36.549 36.549,13.1 65.5,13.1 C94.451,13.1 117.9,36.549 117.9,65.5 C117.9,94.451 94.451,117.9 65.5,117.9 Z" id="Combined-Shape" fill="#FF7C59" fill-rule="nonzero"></path>
                    <polygon id="Path" fill="#FF7C59" points="108.543896 100.079553 100.079553 108.543896 66.5223333 74.9866767 58.0579899 66.5223333 23 31.4643434 31.4643434 23 66.5223333 58.0579899 74.9866767 66.5223333"></polygon>
                </g>
            </g>
        </g>
    </g>
</svg>