<?xml version="1.0" encoding="UTF-8"?>
<svg width="164px" height="34px" viewBox="0 0 164 34" version="1.1" xmlns="http://www.w3.org/2000/svg" xmlns:xlink="http://www.w3.org/1999/xlink">
    <!-- Generator: sketchtool 50.2 (55047) - http://www.bohemiancoding.com/sketch -->
    <title>5AB37DDC-7F1D-4FD4-9A87-17AB780A6248</title>
    <desc>Created with sketchtool.</desc>
    <defs>
        <linearGradient x1="3.67593931%" y1="96.3240607%" x2="100%" y2="0%" id="linearGradient-1">
            <stop stop-color="#4780FF" offset="0%"></stop>
            <stop stop-color="#49D4FF" offset="100%"></stop>
        </linearGradient>
        <linearGradient x1="52.1809233%" y1="278.941127%" x2="22.6043806%" y2="-59.6411843%" id="linearGradient-2">
            <stop stop-color="#4780FF" offset="0%"></stop>
            <stop stop-color="#49D4FF" offset="100%"></stop>
        </linearGradient>
    </defs>
    <g id="Inicio-de-sesión/-Cerrar-sesión" stroke="none" stroke-width="1" fill="none" fill-rule="evenodd">
        <g id="sesion/vacio" transform="translate(-36.000000, -13.000000)">
            <g id="nav_bar">
                <g id="logo_viva" transform="translate(35.000000, 13.000000)">
                    <rect id="Background" x="0" y="0" width="165" height="34"></rect>
                    <g>
                        <path d="M18.9578454,34 C9.02448038,34 0.971896956,26.3888407 0.971896956,17 C0.971896956,7.61115925 9.02448038,0 18.9578454,0 C28.8912105,0 36.9437939,7.61115925 36.9437939,17 C36.9437939,26.3888407 28.8912105,34 18.9578454,34 Z M18.9578454,24 C23.3726743,24 26.9516003,20.6421356 26.9516003,16.5 C26.9516003,12.3578644 23.3726743,9 18.9578454,9 C14.5430165,9 10.9640906,12.3578644 10.9640906,16.5 C10.9640906,20.6421356 14.5430165,24 18.9578454,24 Z" id="circle_vivas" fill="url(#linearGradient-1)"></path>
                        <path d="M63.9706792,24.688 C63.7468529,24.8640009 63.4191122,25.0079994 62.9874473,25.12 C62.5557824,25.2320006 62.0681682,25.288 61.5245902,25.288 C60.9010742,25.288 60.3615011,25.2080008 59.9058548,25.048 C59.4502085,24.8879992 59.1344583,24.6320018 58.9585948,24.28 C58.8147065,24.0079986 58.6428425,23.6280024 58.4429977,23.14 C58.2431528,22.6519976 58.0313204,22.108003 57.8074941,21.508 C57.5836679,20.907997 57.3518513,20.2640034 57.1120375,19.576 C56.8722236,18.8879966 56.6444039,18.2080034 56.4285714,17.536 C56.212739,16.8639966 56.0168939,16.2160031 55.8410304,15.592 C55.665167,14.9679969 55.5212808,14.4160024 55.4093677,13.936 C55.6331939,13.7119989 55.9329567,13.5160008 56.3086651,13.348 C56.6843735,13.1799992 57.0960477,13.096 57.5437002,13.096 C58.1032659,13.096 58.5629022,13.2119988 58.922623,13.444 C59.2823437,13.6760012 59.5501318,14.1119968 59.7259953,14.752 L60.6612646,18.424 C60.8371281,19.1440036 61.0049953,19.7959971 61.1648712,20.38 C61.3247471,20.9640029 61.4446522,21.4159984 61.5245902,21.736 L61.6444965,21.736 C61.9482607,20.5519941 62.2680077,19.2400072 62.6037471,17.8 C62.9394865,16.3599928 63.2432461,14.944007 63.5150351,13.552 C63.7868242,13.4079993 64.0945806,13.2960004 64.4383138,13.216 C64.782047,13.1359996 65.1137845,13.096 65.4335363,13.096 C65.9931019,13.096 66.4647288,13.2159988 66.8484309,13.456 C67.2321331,13.6960012 67.4239813,14.111997 67.4239813,14.704 C67.4239813,14.9600013 67.3640287,15.3319976 67.2441218,15.82 C67.1242149,16.3080024 66.972335,16.8599969 66.7884778,17.476 C66.6046205,18.0920031 66.3887912,18.7439966 66.1409836,19.432 C65.893176,20.1200034 65.6413752,20.7919967 65.3855738,21.448 C65.1297723,22.1040033 64.8779716,22.7159972 64.6301639,23.284 C64.3823563,23.8520028 64.1625302,24.3199982 63.9706792,24.688 Z M69.1506323,10.096 C69.1506323,9.48799696 69.354471,8.97600208 69.7621546,8.56 C70.1698381,8.14399792 70.7094112,7.936 71.3808899,7.936 C72.0523687,7.936 72.5919418,8.14399792 72.9996253,8.56 C73.4073088,8.97600208 73.6111475,9.48799696 73.6111475,10.096 C73.6111475,10.704003 73.4073088,11.2159979 72.9996253,11.632 C72.5919418,12.0480021 72.0523687,12.256 71.3808899,12.256 C70.7094112,12.256 70.1698381,12.0480021 69.7621546,11.632 C69.354471,11.2159979 69.1506323,10.704003 69.1506323,10.096 Z M73.4192974,24.976 C73.2434339,25.0080002 72.9836395,25.0519997 72.6399063,25.108 C72.2961731,25.1640003 71.9484483,25.192 71.5967213,25.192 C71.2449943,25.192 70.9292442,25.1680002 70.6494614,25.12 C70.3696785,25.0719998 70.1338651,24.9760007 69.9420141,24.832 C69.750163,24.6879993 69.60228,24.4920012 69.4983607,24.244 C69.3944413,23.9959988 69.3424824,23.672002 69.3424824,23.272 L69.3424824,13.504 C69.5183459,13.4719998 69.7781404,13.4280003 70.1218735,13.372 C70.4656067,13.3159997 70.8133316,13.288 71.1650585,13.288 C71.5167855,13.288 71.8325357,13.3119998 72.1123185,13.36 C72.3921013,13.4080002 72.6279147,13.5039993 72.8197658,13.648 C73.0116169,13.7920007 73.1594999,13.9879988 73.2634192,14.236 C73.3673385,14.4840012 73.4192974,14.807998 73.4192974,15.208 L73.4192974,24.976 Z M83.803185,24.688 C83.5793588,24.8640009 83.2516181,25.0079994 82.8199532,25.12 C82.3882882,25.2320006 81.9006741,25.288 81.357096,25.288 C80.73358,25.288 80.194007,25.2080008 79.7383607,25.048 C79.2827143,24.8879992 78.9669642,24.6320018 78.7911007,24.28 C78.6472124,24.0079986 78.4753484,23.6280024 78.2755035,23.14 C78.0756586,22.6519976 77.8638263,22.108003 77.64,21.508 C77.4161737,20.907997 77.1843572,20.2640034 76.9445433,19.576 C76.7047295,18.8879966 76.4769097,18.2080034 76.2610773,17.536 C76.0452448,16.8639966 75.8493998,16.2160031 75.6735363,15.592 C75.4976728,14.9679969 75.3537867,14.4160024 75.2418735,13.936 C75.4656998,13.7119989 75.7654626,13.5160008 76.141171,13.348 C76.5168793,13.1799992 76.9285536,13.096 77.3762061,13.096 C77.9357717,13.096 78.395408,13.2119988 78.7551288,13.444 C79.1148496,13.6760012 79.3826377,14.1119968 79.5585012,14.752 L80.4937705,18.424 C80.669634,19.1440036 80.8375012,19.7959971 80.997377,20.38 C81.1572529,20.9640029 81.2771581,21.4159984 81.357096,21.736 L81.4770023,21.736 C81.7807665,20.5519941 82.1005135,19.2400072 82.4362529,17.8 C82.7719923,16.3599928 83.075752,14.944007 83.347541,13.552 C83.61933,13.4079993 83.9270865,13.2960004 84.2708197,13.216 C84.6145529,13.1359996 84.9462904,13.096 85.2660422,13.096 C85.8256078,13.096 86.2972346,13.2159988 86.6809368,13.456 C87.0646389,13.6960012 87.2564871,14.111997 87.2564871,14.704 C87.2564871,14.9600013 87.1965346,15.3319976 87.0766276,15.82 C86.9567207,16.3080024 86.8048409,16.8599969 86.6209836,17.476 C86.4371263,18.0920031 86.2212971,18.7439966 85.9734895,19.432 C85.7256818,20.1200034 85.4738811,20.7919967 85.2180796,21.448 C84.9622782,22.1040033 84.7104774,22.7159972 84.4626698,23.284 C84.2148621,23.8520028 83.9950361,24.3199982 83.803185,24.688 Z M93.8273536,22.408 C94.0991427,22.408 94.3989055,22.3800003 94.7266511,22.324 C95.0543966,22.2679997 95.2982037,22.1920005 95.4580796,22.096 L95.4580796,20.176 L93.7314286,20.32 C93.2837761,20.3520002 92.916067,20.4479992 92.6282904,20.608 C92.3405138,20.7680008 92.1966276,21.0079984 92.1966276,21.328 C92.1966276,21.6480016 92.3205296,21.907999 92.5683372,22.108 C92.8161449,22.308001 93.2358128,22.408 93.8273536,22.408 Z M93.6355035,12.976 C94.4988334,12.976 95.2862103,13.0639991 95.9976581,13.24 C96.7091058,13.4160009 97.3166251,13.6839982 97.8202342,14.044 C98.3238433,14.4040018 98.7115365,14.8599972 98.9833255,15.412 C99.2551146,15.9640028 99.391007,16.6159962 99.391007,17.368 L99.391007,22.744 C99.391007,23.1600021 99.2750987,23.4999987 99.0432787,23.764 C98.8114586,24.0280013 98.5356769,24.255999 98.2159251,24.448 C97.1767317,25.0720031 95.7138892,25.384 93.8273536,25.384 C92.9800114,25.384 92.2166154,25.3040008 91.5371429,25.144 C90.8576703,24.9839992 90.274132,24.7440016 89.7865105,24.424 C89.2988891,24.1039984 88.9231863,23.6960025 88.6593911,23.2 C88.3955959,22.7039975 88.2637002,22.1280033 88.2637002,21.472 C88.2637002,20.3679945 88.5914409,19.520003 89.2469321,18.928 C89.9024233,18.335997 90.91762,17.9680007 92.2925527,17.824 L95.4340984,17.488 L95.4340984,17.32 C95.4340984,16.8559977 95.2302596,16.524001 94.8225761,16.324 C94.4148926,16.123999 93.8273575,16.024 93.0599532,16.024 C92.4524248,16.024 91.8608928,16.0879994 91.2853396,16.216 C90.7097863,16.3440006 90.1901975,16.503999 89.7265574,16.696 C89.5187187,16.5519993 89.3428579,16.3320015 89.1989696,16.036 C89.0550812,15.7399985 88.9831382,15.4320016 88.9831382,15.112 C88.9831382,14.6959979 89.0830591,14.3640012 89.282904,14.116 C89.4827489,13.8679988 89.7905053,13.6560009 90.2061827,13.48 C90.6698228,13.3039991 91.2173895,13.1760004 91.8488993,13.096 C92.4804091,13.0159996 93.0759379,12.976 93.6355035,12.976 Z M111.717377,21.52 C111.717377,22.7360061 111.261738,23.6879966 110.350445,24.376 C109.439152,25.0640034 108.096215,25.408 106.321593,25.408 C105.650114,25.408 105.026607,25.3600005 104.451054,25.264 C103.875501,25.1679995 103.38389,25.020001 102.976206,24.82 C102.568523,24.619999 102.248776,24.3680015 102.016956,24.064 C101.785135,23.7599985 101.669227,23.4000021 101.669227,22.984 C101.669227,22.5999981 101.749164,22.2760013 101.90904,22.012 C102.068916,21.7479987 102.260764,21.5280009 102.48459,21.352 C102.94823,21.6080013 103.47981,21.835999 104.079344,22.036 C104.678879,22.236001 105.370332,22.336 106.153724,22.336 C106.649339,22.336 107.029038,22.2640007 107.292834,22.12 C107.556629,21.9759993 107.688525,21.7840012 107.688525,21.544 C107.688525,21.3199989 107.5926,21.1440006 107.400749,21.016 C107.208898,20.8879994 106.889151,20.7840004 106.441499,20.704 L105.722061,20.56 C104.331141,20.2879986 103.29596,19.8600029 102.616487,19.276 C101.937015,18.6919971 101.597283,17.8560054 101.597283,16.768 C101.597283,16.175997 101.725182,15.6400024 101.980984,15.16 C102.236785,14.6799976 102.5965,14.2800016 103.060141,13.96 C103.523781,13.6399984 104.079341,13.3920009 104.726838,13.216 C105.374336,13.0399991 106.08977,12.952 106.873162,12.952 C107.464702,12.952 108.020263,12.9959996 108.539859,13.084 C109.059456,13.1720004 109.511099,13.3039991 109.894801,13.48 C110.278503,13.6560009 110.582263,13.8839986 110.806089,14.164 C111.029915,14.4440014 111.141827,14.7759981 111.141827,15.16 C111.141827,15.5280018 111.07388,15.8439987 110.937986,16.108 C110.802091,16.3720013 110.630227,16.5919991 110.422389,16.768 C110.294488,16.6879996 110.10264,16.6040004 109.846838,16.516 C109.591037,16.4279996 109.311258,16.3480004 109.007494,16.276 C108.70373,16.2039996 108.395973,16.1440002 108.084215,16.096 C107.772457,16.0479998 107.488682,16.024 107.232881,16.024 C106.70529,16.024 106.297613,16.0839994 106.009836,16.204 C105.722059,16.3240006 105.578173,16.5119987 105.578173,16.768 C105.578173,16.9440009 105.65811,17.0879994 105.817986,17.2 C105.977862,17.3120006 106.281621,17.4159995 106.729274,17.512 L107.472693,17.68 C109.007502,18.0320018 110.098638,18.5159969 110.746136,19.132 C111.393633,19.7480031 111.717377,20.5439951 111.717377,21.52 Z M119.271475,12.976 C119.926967,12.976 120.570457,13.0679991 121.201967,13.252 C121.833477,13.4360009 122.381044,13.7119982 122.844684,14.08 C123.324312,13.7599984 123.863885,13.496001 124.463419,13.288 C125.062954,13.079999 125.786381,12.976 126.633724,12.976 C127.241252,12.976 127.836781,13.0559992 128.420328,13.216 C129.003875,13.3760008 129.523464,13.6279983 129.97911,13.972 C130.434756,14.3160017 130.798469,14.7719972 131.070258,15.34 C131.342047,15.9080028 131.477939,16.5999959 131.477939,17.416 L131.477939,24.976 C131.318063,25.0240002 131.066262,25.0719998 130.722529,25.12 C130.378796,25.1680002 130.023078,25.192 129.655363,25.192 C129.303636,25.192 128.987886,25.1680002 128.708103,25.12 C128.42832,25.0719998 128.192507,24.9760007 128.000656,24.832 C127.808805,24.6879993 127.660922,24.4920012 127.557002,24.244 C127.453083,23.9959988 127.401124,23.672002 127.401124,23.272 L127.401124,17.536 C127.401124,17.0559976 127.265232,16.7080011 126.993443,16.492 C126.721654,16.2759989 126.353945,16.168 125.890304,16.168 C125.666478,16.168 125.426668,16.2199995 125.170867,16.324 C124.915065,16.4280005 124.723217,16.5359994 124.595316,16.648 C124.611304,16.7120003 124.619297,16.7719997 124.619297,16.828 L124.619297,24.976 C124.443434,25.0240002 124.18364,25.0719998 123.839906,25.12 C123.496173,25.1680002 123.148448,25.192 122.796721,25.192 C122.444994,25.192 122.129244,25.1680002 121.849461,25.12 C121.569679,25.0719998 121.333865,24.9760007 121.142014,24.832 C120.950163,24.6879993 120.80228,24.4920012 120.698361,24.244 C120.594441,23.9959988 120.542482,23.672002 120.542482,23.272 L120.542482,17.536 C120.542482,17.0559976 120.394599,16.7080011 120.098829,16.492 C119.803059,16.2759989 119.44734,16.168 119.031663,16.168 C118.743886,16.168 118.496082,16.2119996 118.288244,16.3 C118.080405,16.3880004 117.904544,16.4719996 117.760656,16.552 L117.760656,24.976 C117.60078,25.0240002 117.348979,25.0719998 117.005246,25.12 C116.661513,25.1680002 116.305794,25.192 115.93808,25.192 C115.586353,25.192 115.270602,25.1680002 114.99082,25.12 C114.711037,25.0719998 114.475223,24.9760007 114.283372,24.832 C114.091521,24.6879993 113.943638,24.4920012 113.839719,24.244 C113.7358,23.9959988 113.683841,23.672002 113.683841,23.272 L113.683841,16.024 C113.683841,15.5919978 113.775768,15.2480013 113.959625,14.992 C114.143483,14.7359987 114.395283,14.4960011 114.715035,14.272 C115.258613,13.8879981 115.934079,13.5760012 116.741452,13.336 C117.548825,13.0959988 118.392158,12.976 119.271475,12.976 Z M138.960094,22.408 C139.231883,22.408 139.531646,22.3800003 139.859391,22.324 C140.187137,22.2679997 140.430944,22.1920005 140.59082,22.096 L140.59082,20.176 L138.864169,20.32 C138.416516,20.3520002 138.048807,20.4479992 137.76103,20.608 C137.473254,20.7680008 137.329368,21.0079984 137.329368,21.328 C137.329368,21.6480016 137.45327,21.907999 137.701077,22.108 C137.948885,22.308001 138.368553,22.408 138.960094,22.408 Z M138.768244,12.976 C139.631573,12.976 140.41895,13.0639991 141.130398,13.24 C141.841846,13.4160009 142.449365,13.6839982 142.952974,14.044 C143.456583,14.4040018 143.844277,14.8599972 144.116066,15.412 C144.387855,15.9640028 144.523747,16.6159962 144.523747,17.368 L144.523747,22.744 C144.523747,23.1600021 144.407839,23.4999987 144.176019,23.764 C143.944199,24.0280013 143.668417,24.255999 143.348665,24.448 C142.309472,25.0720031 140.846629,25.384 138.960094,25.384 C138.112751,25.384 137.349355,25.3040008 136.669883,25.144 C135.99041,24.9839992 135.406872,24.7440016 134.919251,24.424 C134.431629,24.1039984 134.055926,23.6960025 133.792131,23.2 C133.528336,22.7039975 133.39644,22.1280033 133.39644,21.472 C133.39644,20.3679945 133.724181,19.520003 134.379672,18.928 C135.035163,18.335997 136.05036,17.9680007 137.425293,17.824 L140.566838,17.488 L140.566838,17.32 C140.566838,16.8559977 140.363,16.524001 139.955316,16.324 C139.547633,16.123999 138.960098,16.024 138.192693,16.024 C137.585165,16.024 136.993633,16.0879994 136.41808,16.216 C135.842526,16.3440006 135.322938,16.503999 134.859297,16.696 C134.651459,16.5519993 134.475598,16.3320015 134.33171,16.036 C134.187821,15.7399985 134.115878,15.4320016 134.115878,15.112 C134.115878,14.6959979 134.215799,14.3640012 134.415644,14.116 C134.615489,13.8679988 134.923245,13.6560009 135.338923,13.48 C135.802563,13.3039991 136.35013,13.1760004 136.981639,13.096 C137.613149,13.0159996 138.208678,12.976 138.768244,12.976 Z M151.094614,24.976 C150.934738,25.0240002 150.682937,25.0719998 150.339204,25.12 C149.995471,25.1680002 149.639752,25.192 149.272037,25.192 C148.92031,25.192 148.60456,25.1680002 148.324778,25.12 C148.044995,25.0719998 147.809181,24.9760007 147.61733,24.832 C147.425479,24.6879993 147.277596,24.4920012 147.173677,24.244 C147.069757,23.9959988 147.017799,23.672002 147.017799,23.272 L147.017799,16.072 C147.017799,15.7039982 147.085745,15.3880013 147.221639,15.124 C147.357534,14.8599987 147.553379,14.624001 147.80918,14.416 C148.064982,14.207999 148.380732,14.0200008 148.75644,13.852 C149.132149,13.6839992 149.535829,13.5360006 149.967494,13.408 C150.399159,13.2799994 150.846805,13.1800004 151.310445,13.108 C151.774085,13.0359996 152.237718,13 152.701358,13 C153.468763,13 154.076282,13.1479985 154.523934,13.444 C154.971587,13.7400015 155.19541,14.2239966 155.19541,14.896 C155.19541,15.1200011 155.163435,15.3399989 155.099485,15.556 C155.035534,15.7720011 154.955598,15.9679991 154.859672,16.144 C154.523933,16.144 154.180205,16.1599998 153.828478,16.192 C153.476751,16.2240002 153.133023,16.2719997 152.797283,16.336 C152.461544,16.4000003 152.145794,16.4679996 151.850023,16.54 C151.554253,16.6120004 151.302452,16.6959995 151.094614,16.792 L151.094614,24.976 Z M160.950913,20.992 C160.950913,21.4080021 161.082809,21.7039991 161.346604,21.88 C161.610399,22.0560009 161.982105,22.144 162.461733,22.144 C162.701547,22.144 162.949351,22.1240002 163.205152,22.084 C163.460954,22.0439998 163.684777,21.9920003 163.876628,21.928 C164.020516,22.1040009 164.144418,22.2999989 164.248337,22.516 C164.352257,22.7320011 164.404215,22.9919985 164.404215,23.296 C164.404215,23.904003 164.176396,24.3999981 163.720749,24.784 C163.265103,25.1680019 162.461739,25.36 161.310632,25.36 C159.903724,25.36 158.820581,25.0400032 158.061171,24.4 C157.30176,23.7599968 156.922061,22.7200072 156.922061,21.28 L156.922061,11.008 C157.097924,10.9599998 157.349725,10.9080003 157.677471,10.852 C158.005216,10.7959997 158.352941,10.768 158.720656,10.768 C159.42411,10.768 159.971676,10.8919988 160.363372,11.14 C160.755068,11.3880012 160.950913,11.911996 160.950913,12.712 L160.950913,14.248 L164.092459,14.248 C164.188385,14.4240009 164.280312,14.6439987 164.368244,14.908 C164.456175,15.1720013 164.500141,15.4639984 164.500141,15.784 C164.500141,16.3440028 164.376239,16.7479988 164.128431,16.996 C163.880623,17.2440012 163.548886,17.368 163.133208,17.368 L160.950913,17.368 L160.950913,20.992 Z" id="vivasmart" fill="url(#linearGradient-2)"></path>
                    </g>
                </g>
            </g>
        </g>
    </g>
</svg>