<?xml version="1.0" encoding="UTF-8"?>
<svg width="35px" height="35px" viewBox="0 0 35 35" version="1.1" xmlns="http://www.w3.org/2000/svg" xmlns:xlink="http://www.w3.org/1999/xlink">
    <!-- Generator: sketchtool 50.2 (55047) - http://www.bohemiancoding.com/sketch -->
    <title>7A635A2C-29A7-4D00-B8C7-5023CC14F541</title>
    <desc>Created with sketchtool.</desc>
    <defs></defs>
    <g id="Inicio-de-sesión/-Cerrar-sesión" stroke="none" stroke-width="1" fill="none" fill-rule="evenodd">
        <g id="menu_colapsado" transform="translate(-1045.000000, -8.000000)">
            <g id="user" transform="translate(1045.000000, 8.000000)">
                <rect id="Background" x="0" y="0" width="35" height="35"></rect>
                <g>
                    <path d="M35,17.5 C35,7.85081818 27.1491818,0 17.5,0 C7.85081818,0 0,7.85081818 0,17.5 C0,22.5966364 2.19163636,27.1905455 5.68018182,30.3914545 L5.66363636,30.4060909 L6.23127273,30.8846364 C6.26818182,30.9158182 6.30827273,30.9412727 6.34518182,30.9718182 C6.64681818,31.2219091 6.95927273,31.4592727 7.27745455,31.689 C7.38054545,31.7634545 7.48363636,31.8379091 7.58863636,31.9104545 C7.92845455,32.1446364 8.27718182,32.3667273 8.63354545,32.5773636 C8.71118182,32.6231818 8.78945455,32.6677273 8.86772727,32.7122727 C9.25781818,32.9343636 9.65618182,33.1437273 10.0640909,33.3359091 C10.094,33.3499091 10.1245455,33.3626364 10.1544545,33.3766364 C11.4838182,33.9945455 12.9029091,34.4482727 14.3869091,34.7161818 C14.4257273,34.7231818 14.4645455,34.7301818 14.504,34.7371818 C14.9647273,34.8167273 15.4305455,34.8803636 15.9020909,34.923 C15.9593636,34.9280909 16.0166364,34.9312727 16.0745455,34.9363636 C16.5441818,34.9751818 17.0189091,35 17.5,35 C17.9766364,35 18.4469091,34.9751818 18.914,34.9376364 C18.9731818,34.9325455 19.0323636,34.9293636 19.0915455,34.9242727 C19.5592727,34.8816364 20.0212727,34.8199091 20.4775455,34.7416364 C20.517,34.7346364 20.5570909,34.7276364 20.5965455,34.72 C22.0582727,34.4578182 23.457,34.0142727 24.7691818,33.4122727 C24.8175455,33.39 24.8665455,33.369 24.9149091,33.3460909 C25.3075455,33.1615455 25.6912727,32.9623636 26.0673636,32.7504545 C26.1609091,32.6976364 26.2538182,32.6441818 26.3467273,32.5894545 C26.6890909,32.3877273 27.0257273,32.1770909 27.3528182,31.9530909 C27.4705455,31.8729091 27.5857273,31.7882727 27.7021818,31.7042727 C27.9815455,31.5031818 28.2558182,31.2957273 28.5224545,31.0787273 C28.5816364,31.031 28.6452727,30.9896364 28.7031818,30.9406364 L29.2854545,30.4544545 L29.2682727,30.4398182 C32.7873636,27.2376364 35,22.6227273 35,17.5 Z" id="Shape" fill="#E3E1E1" fill-rule="nonzero"></path>
                    <path d="M27.0193636,30.6294545 C26.7966364,30.7910909 26.5700909,30.9476364 26.3403636,31.0971818 C26.2347273,31.1659091 26.1297273,31.2346364 26.0221818,31.3014545 C25.7218182,31.4872727 25.4163636,31.6641818 25.1045455,31.8296364 C25.0358182,31.8659091 24.9664545,31.9002727 24.8970909,31.9359091 C24.1805455,32.3030909 23.4391818,32.6187273 22.6774545,32.8751818 C22.6507273,32.8840909 22.624,32.8936364 22.5966364,32.9025455 C22.1976364,33.0349091 21.7935455,33.1526364 21.385,33.2538182 C21.3837273,33.2538182 21.3824545,33.2544545 21.3811818,33.2544545 C20.9688182,33.3562727 20.5513636,33.4409091 20.1313636,33.5102727 C20.1199091,33.5121818 20.1084545,33.5147273 20.097,33.5166364 C19.7018182,33.5809091 19.3034545,33.6273636 18.9038182,33.6623636 C18.8331818,33.6687273 18.7625455,33.6731818 18.6912727,33.6782727 C18.2960909,33.7081818 17.899,33.7272727 17.5,33.7272727 C17.0965455,33.7272727 16.6943636,33.7075455 16.2940909,33.6776364 C16.2247273,33.6725455 16.1553636,33.6680909 16.0866364,33.6617273 C15.6831818,33.6260909 15.2816364,33.5783636 14.8839091,33.5134545 C14.8660909,33.5102727 14.8482727,33.5070909 14.8304545,33.5039091 C13.9891818,33.3632727 13.1612727,33.1564545 12.355,32.886 C12.3301818,32.8777273 12.3047273,32.8688182 12.2799091,32.8605455 C11.8796364,32.7243636 11.4838182,32.5735455 11.095,32.4068182 C11.0924545,32.4055455 11.0892727,32.4042727 11.0867273,32.403 C10.7189091,32.2445455 10.3580909,32.0689091 10.0017273,31.8837273 C9.95527273,31.8595455 9.90818182,31.8366364 9.86236364,31.8118182 C9.53718182,31.6380909 9.219,31.4503636 8.90527273,31.2543636 C8.81236364,31.1958182 8.72009091,31.1366364 8.62845455,31.0768182 C8.33954545,30.8878182 8.05445455,30.6911818 7.777,30.4830909 C7.74836364,30.4614545 7.721,30.4385455 7.69236364,30.4169091 C7.71272727,30.4054545 7.73309091,30.394 7.75345455,30.3825455 L12.7851818,27.6379091 C13.6506364,27.1657273 14.1883636,26.2601818 14.1883636,25.2744545 L14.1877273,22.9822727 L14.0413636,22.8053636 C14.0273636,22.7894545 12.6515455,21.1158182 12.1316364,18.8497273 L12.0737273,18.5977273 L11.8567273,18.4570909 C11.5506364,18.2591818 11.3673636,17.9282727 11.3673636,17.5712727 L11.3673636,15.3153636 C11.3673636,15.0194545 11.4927273,14.7439091 11.7218182,14.5370909 L11.9318182,14.3474545 L11.9318182,10.8029091 L11.9260909,10.7195455 C11.9241818,10.7042727 11.7364545,9.17381818 12.8144545,7.945 C13.7346364,6.89627273 15.3115455,6.36363636 17.5,6.36363636 C19.6801818,6.36363636 21.252,6.89181818 22.1747273,7.93290909 C23.2514545,9.149 23.0751818,10.7080909 23.0739091,10.7208182 L23.0681818,14.3487273 L23.2781818,14.5383636 C23.5066364,14.7445455 23.6326364,15.0207273 23.6326364,15.3166364 L23.6326364,17.5725455 C23.6326364,18.0262727 23.324,18.438 22.8810909,18.5748182 L22.5648182,18.6721818 L22.463,18.9871818 C22.0875455,20.1536364 21.553,21.231 20.8746364,22.1893636 C20.7079091,22.4248182 20.5456364,22.6335455 20.4062727,22.7932727 L20.2484545,22.9733636 L20.2484545,25.3272727 C20.2484545,26.3530909 20.8186364,27.2758182 21.7362727,27.734 L27.1243636,30.4277273 C27.1587273,30.4449091 27.1924545,30.4627273 27.2261818,30.4805455 C27.1580909,30.5320909 27.0880909,30.5798182 27.0193636,30.6294545 Z" id="Path" fill="#E3E1E1"></path>
                    <path d="M1.27272727,17.5 C1.27272727,8.55209091 8.55209091,1.27272727 17.5,1.27272727 C26.4479091,1.27272727 33.7272727,8.55209091 33.7272727,17.5 C33.7272727,22.3217273 31.6113636,26.6566364 28.2615455,29.631 C28.0744545,29.5018182 27.8860909,29.386 27.6932727,29.2892727 L22.3051818,26.5955455 C21.8215455,26.3537273 21.5211818,25.8675455 21.5211818,25.3272727 L21.5211818,23.4455455 C21.6459091,23.2915455 21.7776364,23.1171818 21.9138182,22.9256364 C22.6112727,21.9405455 23.1706364,20.8447273 23.5785455,19.6655455 C24.3848182,19.2824545 24.9053636,18.4793636 24.9053636,17.5725455 L24.9053636,15.3166364 C24.9053636,14.7649091 24.703,14.2297273 24.3409091,13.8090909 L24.3409091,10.8391818 C24.374,10.5089091 24.4910909,8.645 23.1426364,7.10754545 C21.9698182,5.76863636 20.0715455,5.09090909 17.5,5.09090909 C14.9284545,5.09090909 13.0301818,5.76863636 11.8573636,7.10690909 C10.5089091,8.64436364 10.626,10.5082727 10.6590909,10.8385455 L10.6590909,13.8084545 C10.2976364,14.2290909 10.0946364,14.7642727 10.0946364,15.316 L10.0946364,17.5719091 C10.0946364,18.2725455 10.409,18.9260909 10.9473636,19.3670909 C11.4628182,21.3862727 12.5236364,22.9148182 12.9156364,23.4328182 L12.9156364,25.2744545 C12.9156364,25.7937273 12.6324545,26.271 12.1761818,26.5204545 L7.14445455,29.2650909 C6.98409091,29.3522727 6.825,29.4540909 6.66590909,29.568 C3.35745455,26.5949091 1.27272727,22.2867273 1.27272727,17.5 Z" id="Path" fill="#FFFFFF"></path>
                </g>
            </g>
        </g>
    </g>
</svg>