<?xml version="1.0" encoding="UTF-8"?>
<svg width="269px" height="26px" viewBox="0 0 269 26" version="1.1" xmlns="http://www.w3.org/2000/svg" xmlns:xlink="http://www.w3.org/1999/xlink">
    <!-- Generator: Sketch 50.2 (55047) - http://www.bohemiancoding.com/sketch -->
    <title>logo_sidnav</title>
    <desc>Created with Sketch.</desc>
    <defs>
        <path d="M12.5,24 C5.59644063,24 0,18.627417 0,12 C0,5.372583 5.59644063,0 12.5,0 C19.4035594,0 25,5.372583 25,12 C25,18.627417 19.4035594,24 12.5,24 Z M12.5,17 C15.5375661,17 18,14.5375661 18,11.5 C18,8.46243388 15.5375661,6 12.5,6 C9.46243388,6 7,8.46243388 7,11.5 C7,14.5375661 9.46243388,17 12.5,17 Z" id="path-1"></path>
        <filter x="-8.0%" y="-4.2%" width="116.0%" height="116.7%" filterUnits="objectBoundingBox" id="filter-2">
            <feOffset dx="0" dy="1" in="SourceAlpha" result="shadowOffsetOuter1"></feOffset>
            <feGaussianBlur stdDeviation="0.5" in="shadowOffsetOuter1" result="shadowBlurOuter1"></feGaussianBlur>
            <feColorMatrix values="0 0 0 0 0   0 0 0 0 0   0 0 0 0 0  0 0 0 0.5 0" type="matrix" in="shadowBlurOuter1"></feColorMatrix>
        </filter>
    </defs>
    <g id="Planta-de-empaques-(lineas)" stroke="none" stroke-width="1" fill="none" fill-rule="evenodd">
        <g id="nueva_pdempaque_formulario_linea" transform="translate(-12.000000, -13.000000)">
            <g id="pantalla/completa" transform="translate(0.000000, -1.000000)">
                <g id="top/left" transform="translate(0.000000, 1.000000)">
                    <g id="logo_sidnav" transform="translate(13.000000, 13.000000)">
                        <g id="logo">
                            <use fill="black" fill-opacity="1" filter="url(#filter-2)" xlink:href="#path-1"></use>
                            <use fill="#FFFFFF" fill-rule="evenodd" xlink:href="#path-1"></use>
                        </g>
                        <path d="M57,5.99133413 L60.6761974,5.99133413 L64.2904364,15.5742308 L64.331742,15.5742308 L68.0079394,5.99133413 L71.4569561,5.99133413 L65.4263401,20.6135126 L62.8447408,20.6135126 L57,5.99133413 Z M72.8406933,10.5762545 L75.9386125,10.5762545 L75.9386125,20.6135126 L72.8406933,20.6135126 L72.8406933,10.5762545 Z M72.5928598,7.41637695 C72.5928598,6.92070741 72.7684068,6.49732935 73.1195061,6.14623009 C73.4706053,5.79513083 73.8939834,5.61958383 74.3896529,5.61958383 C74.8853225,5.61958383 75.3087005,5.79513083 75.6597998,6.14623009 C76.010899,6.49732935 76.186446,6.92070741 76.186446,7.41637695 C76.186446,7.9120465 76.010899,8.33542455 75.6597998,8.68652381 C75.3087005,9.03762307 74.8853225,9.21317007 74.3896529,9.21317007 C73.8939834,9.21317007 73.4706053,9.03762307 73.1195061,8.68652381 C72.7684068,8.33542455 72.5928598,7.9120465 72.5928598,7.41637695 Z M77.1158218,10.5762545 L80.4615745,10.5762545 L83.0018682,17.3916767 L83.0431738,17.3916767 L85.3975924,10.5762545 L88.5161643,10.5762545 L84.5508278,20.6135126 L81.2670335,20.6135126 L77.1158218,10.5762545 Z M99.1523535,18.8786779 C98.6566839,19.5120334 98.0302221,20.0008113 97.2729492,20.3450263 C96.5156763,20.6892412 95.7308779,20.8613461 94.9185306,20.8613461 C94.1474891,20.8613461 93.4212064,20.7374306 92.7396608,20.4895958 C92.0581152,20.2417611 91.4660743,19.887225 90.9635205,19.4259769 C90.4609666,18.9647289 90.0651254,18.4105511 89.7759848,17.763427 C89.4868442,17.1163028 89.3422761,16.3934623 89.3422761,15.5948836 C89.3422761,14.7963048 89.4868442,14.0734643 89.7759848,13.4263401 C90.0651254,12.779216 90.4609666,12.2250382 90.9635205,11.7637902 C91.4660743,11.3025421 92.0581152,10.948006 92.7396608,10.7001713 C93.4212064,10.4523365 94.1474891,10.328421 94.9185306,10.328421 C95.6344977,10.328421 96.2850543,10.4523365 96.8702197,10.7001713 C97.4553851,10.948006 97.9510472,11.3025421 98.3572209,11.7637902 C98.7633945,12.2250382 99.0766255,12.779216 99.296923,13.4263401 C99.5172206,14.0734643 99.6273678,14.7963048 99.6273678,15.5948836 L99.6273678,16.5655649 L92.4401953,16.5655649 C92.5641127,17.1576146 92.8325963,17.6291821 93.2456543,17.9802813 C93.6587122,18.3313806 94.1681427,18.5069276 94.7739611,18.5069276 C95.2833992,18.5069276 95.7136614,18.3933383 96.0647607,18.1661565 C96.41586,17.9389746 96.7222067,17.6463963 96.9838101,17.2884127 L99.1523535,18.8786779 Z M96.5294486,14.4589799 C96.5432172,13.9357731 96.3711123,13.4883004 96.0131287,13.1165482 C95.6551452,12.7447961 95.193904,12.5589228 94.6293915,12.5589228 C94.2851765,12.5589228 93.9822719,12.6139963 93.7206685,12.7241451 C93.4590652,12.8342939 93.2353288,12.9754199 93.0494527,13.1475274 C92.8635766,13.3196349 92.7190085,13.5192766 92.615744,13.7464585 C92.5124795,13.9736403 92.4539639,14.2111451 92.4401953,14.4589799 L96.5294486,14.4589799 Z M101.56873,18.8373723 C101.56873,18.5757689 101.61692,18.3279379 101.7133,18.0938717 C101.80968,17.8598055 101.943922,17.6567217 102.116029,17.4846142 C102.288137,17.3125068 102.491221,17.1782649 102.725287,17.0818848 C102.959353,16.9855046 103.207184,16.9373152 103.468788,16.9373152 C103.730391,16.9373152 103.978222,16.9855046 104.212288,17.0818848 C104.446354,17.1782649 104.649438,17.3125068 104.821546,17.4846142 C104.993653,17.6567217 105.127895,17.8598055 105.224275,18.0938717 C105.320655,18.3279379 105.368845,18.5757689 105.368845,18.8373723 C105.368845,19.0989757 105.320655,19.3468067 105.224275,19.5808729 C105.127895,19.8149391 104.993653,20.0180228 104.821546,20.1901303 C104.649438,20.3622378 104.446354,20.4964796 104.212288,20.5928598 C103.978222,20.68924 103.730391,20.7374294 103.468788,20.7374294 C103.207184,20.7374294 102.959353,20.68924 102.725287,20.5928598 C102.491221,20.4964796 102.288137,20.3622378 102.116029,20.1901303 C101.943922,20.0180228 101.80968,19.8149391 101.7133,19.5808729 C101.61692,19.3468067 101.56873,19.0989757 101.56873,18.8373723 Z M123.687873,9.79144831 C123.371196,9.40592756 122.982238,9.10990713 122.52099,8.90337815 C122.059742,8.69684917 121.526217,8.59358623 120.920399,8.59358623 C120.31458,8.59358623 119.753519,8.71061757 119.237196,8.94468374 C118.720874,9.17874991 118.273401,9.50574922 117.894764,9.92569148 C117.516128,10.3456337 117.220108,10.8447379 117.006694,11.4230191 C116.793281,12.0013002 116.686576,12.627762 116.686576,13.3024234 C116.686576,13.9908533 116.793281,14.6207572 117.006694,15.1921541 C117.220108,15.7635509 117.512686,16.259213 117.884438,16.6791553 C118.25619,17.0990975 118.693337,17.4260968 119.19589,17.660163 C119.698444,17.8942292 120.238854,18.0112605 120.817135,18.0112605 C121.478028,18.0112605 122.063184,17.8735766 122.572622,17.5982046 C123.082061,17.3228326 123.501996,16.9373177 123.832443,16.4416481 L126.517306,18.4449692 C125.897719,19.3123909 125.112921,19.9526211 124.162888,20.3656791 C123.212854,20.778737 122.235298,20.9852629 121.230191,20.9852629 C120.087397,20.9852629 119.034115,20.8062738 118.070313,20.4482903 C117.106511,20.0903067 116.273524,19.5774341 115.571325,18.9096571 C114.869127,18.24188 114.321833,17.432987 113.929428,16.4829537 C113.537023,15.5329204 113.340823,14.4727542 113.340823,13.3024234 C113.340823,12.1320925 113.537023,11.0719263 113.929428,10.121893 C114.321833,9.17185973 114.869127,8.3629667 115.571325,7.69518968 C116.273524,7.02741265 117.106511,6.51454005 118.070313,6.15655649 C119.034115,5.79857293 120.087397,5.61958383 121.230191,5.61958383 C121.643249,5.61958383 122.073511,5.65744691 122.52099,5.7331742 C122.96847,5.80890149 123.409058,5.92937492 123.842769,6.09459811 C124.27648,6.25982129 124.692974,6.48011556 125.092263,6.75548753 C125.491553,7.0308595 125.849531,7.3681851 126.166209,7.76747446 L123.687873,9.79144831 Z M127.880391,10.5762545 L130.97831,10.5762545 L130.97831,12.1871725 L131.019615,12.1871725 C131.350062,11.5675855 131.742461,11.1029023 132.196825,10.7931088 C132.651188,10.4833154 133.222577,10.328421 133.911007,10.328421 C134.089998,10.328421 134.268987,10.3353052 134.447979,10.3490738 C134.626971,10.3628424 134.792192,10.3903791 134.943646,10.4316849 L134.943646,13.2611178 C134.723349,13.1922748 134.506497,13.1406433 134.293083,13.1062218 C134.07967,13.0718003 133.855934,13.0545898 133.621867,13.0545898 C133.029818,13.0545898 132.561692,13.1372002 132.217477,13.3024234 C131.873262,13.4676466 131.608221,13.6982671 131.422345,13.994292 C131.236469,14.2903169 131.115995,14.6448529 131.060921,15.0579109 C131.005847,15.4709689 130.97831,15.9253258 130.97831,16.4209953 L130.97831,20.6135126 L127.880391,20.6135126 L127.880391,10.5762545 Z M145.414613,18.8786779 C144.918944,19.5120334 144.292482,20.0008113 143.535209,20.3450263 C142.777936,20.6892412 141.993138,20.8613461 141.18079,20.8613461 C140.409749,20.8613461 139.683466,20.7374306 139.00192,20.4895958 C138.320375,20.2417611 137.728334,19.887225 137.22578,19.4259769 C136.723226,18.9647289 136.327385,18.4105511 136.038244,17.763427 C135.749104,17.1163028 135.604536,16.3934623 135.604536,15.5948836 C135.604536,14.7963048 135.749104,14.0734643 136.038244,13.4263401 C136.327385,12.779216 136.723226,12.2250382 137.22578,11.7637902 C137.728334,11.3025421 138.320375,10.948006 139.00192,10.7001713 C139.683466,10.4523365 140.409749,10.328421 141.18079,10.328421 C141.896757,10.328421 142.547314,10.4523365 143.132479,10.7001713 C143.717645,10.948006 144.213307,11.3025421 144.61948,11.7637902 C145.025654,12.2250382 145.338885,12.779216 145.559183,13.4263401 C145.77948,14.0734643 145.889627,14.7963048 145.889627,15.5948836 L145.889627,16.5655649 L138.702455,16.5655649 C138.826372,17.1576146 139.094856,17.6291821 139.507914,17.9802813 C139.920972,18.3313806 140.430402,18.5069276 141.036221,18.5069276 C141.545659,18.5069276 141.975921,18.3933383 142.32702,18.1661565 C142.67812,17.9389746 142.984466,17.6463963 143.24607,17.2884127 L145.414613,18.8786779 Z M142.791708,14.4589799 C142.805477,13.9357731 142.633372,13.4883004 142.275388,13.1165482 C141.917405,12.7447961 141.456164,12.5589228 140.891651,12.5589228 C140.547436,12.5589228 140.244531,12.6139963 139.982928,12.7241451 C139.721325,12.8342939 139.497588,12.9754199 139.311712,13.1475274 C139.125836,13.3196349 138.981268,13.5192766 138.878004,13.7464585 C138.774739,13.9736403 138.716223,14.2111451 138.702455,14.4589799 L142.791708,14.4589799 Z M154.563801,13.8187432 C154.412346,13.5984457 154.198936,13.4160145 153.923564,13.2714442 C153.648192,13.1268739 153.352172,13.0545898 153.035494,13.0545898 C152.250684,13.0545898 151.641433,13.2886525 151.207722,13.7567848 C150.774011,14.2249172 150.557159,14.8376106 150.557159,15.5948836 C150.557159,16.3521565 150.774011,16.9648499 151.207722,17.4329823 C151.641433,17.9011146 152.250684,18.1351773 153.035494,18.1351773 C153.379709,18.1351773 153.67573,18.0594511 153.923564,17.9079965 C154.171399,17.756542 154.384809,17.5775529 154.563801,17.3710239 L156.608428,19.5189145 C156.126527,20.014584 155.558581,20.3622359 154.904572,20.5618806 C154.250564,20.7615253 153.627544,20.8613461 153.035494,20.8613461 C152.264453,20.8613461 151.53817,20.7374306 150.856624,20.4895958 C150.175079,20.2417611 149.583038,19.887225 149.080484,19.4259769 C148.57793,18.9647289 148.182089,18.4105511 147.892948,17.763427 C147.603808,17.1163028 147.45924,16.3934623 147.45924,15.5948836 C147.45924,14.7963048 147.603808,14.0734643 147.892948,13.4263401 C148.182089,12.779216 148.57793,12.2250382 149.080484,11.7637902 C149.583038,11.3025421 150.175079,10.948006 150.856624,10.7001713 C151.53817,10.4523365 152.264453,10.328421 153.035494,10.328421 C153.627544,10.328421 154.250564,10.4282418 154.904572,10.6278865 C155.558581,10.8275312 156.126527,11.1751831 156.608428,11.6708526 L154.563801,13.8187432 Z M167.223964,18.8786779 C166.728294,19.5120334 166.101833,20.0008113 165.34456,20.3450263 C164.587287,20.6892412 163.802488,20.8613461 162.990141,20.8613461 C162.2191,20.8613461 161.492817,20.7374306 160.811271,20.4895958 C160.129726,20.2417611 159.537685,19.887225 159.035131,19.4259769 C158.532577,18.9647289 158.136736,18.4105511 157.847595,17.763427 C157.558455,17.1163028 157.413887,16.3934623 157.413887,15.5948836 C157.413887,14.7963048 157.558455,14.0734643 157.847595,13.4263401 C158.136736,12.779216 158.532577,12.2250382 159.035131,11.7637902 C159.537685,11.3025421 160.129726,10.948006 160.811271,10.7001713 C161.492817,10.4523365 162.2191,10.328421 162.990141,10.328421 C163.706108,10.328421 164.356665,10.4523365 164.94183,10.7001713 C165.526996,10.948006 166.022658,11.3025421 166.428831,11.7637902 C166.835005,12.2250382 167.148236,12.779216 167.368534,13.4263401 C167.588831,14.0734643 167.698978,14.7963048 167.698978,15.5948836 L167.698978,16.5655649 L160.511806,16.5655649 C160.635723,17.1576146 160.904207,17.6291821 161.317265,17.9802813 C161.730323,18.3313806 162.239753,18.5069276 162.845572,18.5069276 C163.35501,18.5069276 163.785272,18.3933383 164.136371,18.1661565 C164.48747,17.9389746 164.793817,17.6463963 165.055421,17.2884127 L167.223964,18.8786779 Z M164.601059,14.4589799 C164.614828,13.9357731 164.442723,13.4883004 164.084739,13.1165482 C163.726756,12.7447961 163.265515,12.5589228 162.701002,12.5589228 C162.356787,12.5589228 162.053882,12.6139963 161.792279,12.7241451 C161.530676,12.8342939 161.306939,12.9754199 161.121063,13.1475274 C160.935187,13.3196349 160.790619,13.5192766 160.687355,13.7464585 C160.58409,13.9736403 160.525574,14.2111451 160.511806,14.4589799 L164.601059,14.4589799 Z M169.640341,18.8373723 C169.640341,18.5757689 169.68853,18.3279379 169.784911,18.0938717 C169.881291,17.8598055 170.015533,17.6567217 170.18764,17.4846142 C170.359747,17.3125068 170.562831,17.1782649 170.796897,17.0818848 C171.030964,16.9855046 171.278795,16.9373152 171.540398,16.9373152 C171.802001,16.9373152 172.049832,16.9855046 172.283899,17.0818848 C172.517965,17.1782649 172.721049,17.3125068 172.893156,17.4846142 C173.065264,17.6567217 173.199505,17.8598055 173.295886,18.0938717 C173.392266,18.3279379 173.440455,18.5757689 173.440455,18.8373723 C173.440455,19.0989757 173.392266,19.3468067 173.295886,19.5808729 C173.199505,19.8149391 173.065264,20.0180228 172.893156,20.1901303 C172.721049,20.3622378 172.517965,20.4964796 172.283899,20.5928598 C172.049832,20.68924 171.802001,20.7374294 171.540398,20.7374294 C171.278795,20.7374294 171.030964,20.68924 170.796897,20.5928598 C170.562831,20.4964796 170.359747,20.3622378 170.18764,20.1901303 C170.015533,20.0180228 169.881291,19.8149391 169.784911,19.5808729 C169.68853,19.3468067 169.640341,19.0989757 169.640341,18.8373723 Z M263.640341,18.8373723 C263.640341,18.5757689 263.68853,18.3279379 263.784911,18.0938717 C263.881291,17.8598055 264.015533,17.6567217 264.18764,17.4846142 C264.359747,17.3125068 264.562831,17.1782649 264.796897,17.0818848 C265.030964,16.9855046 265.278795,16.9373152 265.540398,16.9373152 C265.802001,16.9373152 266.049832,16.9855046 266.283899,17.0818848 C266.517965,17.1782649 266.721049,17.3125068 266.893156,17.4846142 C267.065264,17.6567217 267.199505,17.8598055 267.295886,18.0938717 C267.392266,18.3279379 267.440455,18.5757689 267.440455,18.8373723 C267.440455,19.0989757 267.392266,19.3468067 267.295886,19.5808729 C267.199505,19.8149391 267.065264,20.0180228 266.893156,20.1901303 C266.721049,20.3622378 266.517965,20.4964796 266.283899,20.5928598 C266.049832,20.68924 265.802001,20.7374294 265.540398,20.7374294 C265.278795,20.7374294 265.030964,20.68924 264.796897,20.5928598 C264.562831,20.4964796 264.359747,20.3622378 264.18764,20.1901303 C264.015533,20.0180228 263.881291,19.8149391 263.784911,19.5808729 C263.68853,19.3468067 263.640341,19.0989757 263.640341,18.8373723 Z M191.759484,9.79144831 C191.442806,9.40592756 191.053849,9.10990713 190.592601,8.90337815 C190.131353,8.69684917 189.597828,8.59358623 188.992009,8.59358623 C188.386191,8.59358623 187.825129,8.71061757 187.308807,8.94468374 C186.792484,9.17874991 186.345011,9.50574922 185.966375,9.92569148 C185.587739,10.3456337 185.291718,10.8447379 185.078305,11.4230191 C184.864892,12.0013002 184.758186,12.627762 184.758186,13.3024234 C184.758186,13.9908533 184.864892,14.6207572 185.078305,15.1921541 C185.291718,15.7635509 185.584296,16.259213 185.956049,16.6791553 C186.327801,17.0990975 186.764947,17.4260968 187.267501,17.660163 C187.770055,17.8942292 188.310464,18.0112605 188.888745,18.0112605 C189.549638,18.0112605 190.134795,17.8735766 190.644233,17.5982046 C191.153671,17.3228326 191.573607,16.9373177 191.904053,16.4416481 L194.588917,18.4449692 C193.96933,19.3123909 193.184531,19.9526211 192.234498,20.3656791 C191.284465,20.778737 190.306909,20.9852629 189.301801,20.9852629 C188.159008,20.9852629 187.105726,20.8062738 186.141924,20.4482903 C185.178122,20.0903067 184.345134,19.5774341 183.642936,18.9096571 C182.940737,18.24188 182.393443,17.432987 182.001038,16.4829537 C181.608633,15.5329204 181.412434,14.4727542 181.412434,13.3024234 C181.412434,12.1320925 181.608633,11.0719263 182.001038,10.121893 C182.393443,9.17185973 182.940737,8.3629667 183.642936,7.69518968 C184.345134,7.02741265 185.178122,6.51454005 186.141924,6.15655649 C187.105726,5.79857293 188.159008,5.61958383 189.301801,5.61958383 C189.714859,5.61958383 190.145121,5.65744691 190.592601,5.7331742 C191.04008,5.80890149 191.480669,5.92937492 191.91438,6.09459811 C192.348091,6.25982129 192.764584,6.48011556 193.163874,6.75548753 C193.563163,7.0308595 193.921141,7.3681851 194.237819,7.76747446 L191.759484,9.79144831 Z M195.580251,15.5948836 C195.580251,14.7963048 195.724819,14.0734643 196.013959,13.4263401 C196.3031,12.779216 196.698941,12.2250382 197.201495,11.7637902 C197.704049,11.3025421 198.29609,10.948006 198.977635,10.7001713 C199.659181,10.4523365 200.385464,10.328421 201.156505,10.328421 C201.927547,10.328421 202.653829,10.4523365 203.335375,10.7001713 C204.016921,10.948006 204.608962,11.3025421 205.111515,11.7637902 C205.614069,12.2250382 206.009911,12.779216 206.299051,13.4263401 C206.588192,14.0734643 206.73276,14.7963048 206.73276,15.5948836 C206.73276,16.3934623 206.588192,17.1163028 206.299051,17.763427 C206.009911,18.4105511 205.614069,18.9647289 205.111515,19.4259769 C204.608962,19.887225 204.016921,20.2417611 203.335375,20.4895958 C202.653829,20.7374306 201.927547,20.8613461 201.156505,20.8613461 C200.385464,20.8613461 199.659181,20.7374306 198.977635,20.4895958 C198.29609,20.2417611 197.704049,19.887225 197.201495,19.4259769 C196.698941,18.9647289 196.3031,18.4105511 196.013959,17.763427 C195.724819,17.1163028 195.580251,16.3934623 195.580251,15.5948836 Z M198.67817,15.5948836 C198.67817,16.3521565 198.895022,16.9648499 199.328733,17.4329823 C199.762444,17.9011146 200.371695,18.1351773 201.156505,18.1351773 C201.941315,18.1351773 202.550567,17.9011146 202.984278,17.4329823 C203.417988,16.9648499 203.634841,16.3521565 203.634841,15.5948836 C203.634841,14.8376106 203.417988,14.2249172 202.984278,13.7567848 C202.550567,13.2886525 201.941315,13.0545898 201.156505,13.0545898 C200.371695,13.0545898 199.762444,13.2886525 199.328733,13.7567848 C198.895022,14.2249172 198.67817,14.8376106 198.67817,15.5948836 Z M214.229724,13.5296041 C213.77536,12.9650916 213.176435,12.6828395 212.432931,12.6828395 C212.171328,12.6828395 211.916612,12.7447973 211.668778,12.8687147 C211.420943,12.9926321 211.297027,13.2060421 211.297027,13.5089513 C211.297027,13.7567861 211.424385,13.9392173 211.679104,14.0562504 C211.933823,14.1732835 212.25738,14.2765464 212.649785,14.3660423 C213.04219,14.4555382 213.462126,14.5519169 213.909606,14.6551814 C214.357085,14.7584459 214.777021,14.9202245 215.169426,15.1405221 C215.561831,15.3608197 215.885389,15.6602822 216.140108,16.0389186 C216.394827,16.4175551 216.522184,16.9235435 216.522184,17.556899 C216.522184,18.2040232 216.381058,18.7375483 216.098802,19.1574906 C215.816546,19.5774329 215.455126,19.9147585 215.01453,20.1694775 C214.573935,20.4241966 214.078273,20.6031857 213.527529,20.7064502 C212.976785,20.8097147 212.432934,20.8613461 211.895958,20.8613461 C211.19376,20.8613461 210.484688,20.7615253 209.768721,20.5618806 C209.052753,20.3622359 208.446944,20.0076998 207.951275,19.4982617 L209.830679,17.4123295 C210.11982,17.770313 210.439935,18.0422388 210.791034,18.2281148 C211.142133,18.4139909 211.551743,18.5069276 212.019875,18.5069276 C212.377859,18.5069276 212.701416,18.4552961 212.990557,18.3520316 C213.279697,18.2487671 213.424265,18.0594517 213.424265,17.7840798 C213.424265,17.5224764 213.296908,17.3262768 213.042188,17.1954751 C212.787469,17.0646734 212.463912,16.9545263 212.071507,16.8650304 C211.679102,16.7755345 211.259166,16.6791558 210.811687,16.5758913 C210.364207,16.4726268 209.944271,16.3177324 209.551866,16.1112034 C209.159461,15.9046744 208.835904,15.6120961 208.581185,15.2334597 C208.326466,14.8548232 208.199108,14.3488348 208.199108,13.7154793 C208.199108,13.1234295 208.319582,12.613999 208.560532,12.1871725 C208.801483,11.7603459 209.118156,11.4092519 209.510561,11.13388 C209.902966,10.858508 210.353881,10.6554242 210.863319,10.5246225 C211.372757,10.3938208 211.889072,10.328421 212.412278,10.328421 C213.073171,10.328421 213.740938,10.4247997 214.415599,10.6175601 C215.090261,10.8103205 215.661649,11.1545303 216.129781,11.6501998 L214.229724,13.5296041 Z M227.612735,18.8786779 C227.117065,19.5120334 226.490604,20.0008113 225.733331,20.3450263 C224.976058,20.6892412 224.191259,20.8613461 223.378912,20.8613461 C222.607871,20.8613461 221.881588,20.7374306 221.200042,20.4895958 C220.518497,20.2417611 219.926456,19.887225 219.423902,19.4259769 C218.921348,18.9647289 218.525507,18.4105511 218.236366,17.763427 C217.947226,17.1163028 217.802658,16.3934623 217.802658,15.5948836 C217.802658,14.7963048 217.947226,14.0734643 218.236366,13.4263401 C218.525507,12.779216 218.921348,12.2250382 219.423902,11.7637902 C219.926456,11.3025421 220.518497,10.948006 221.200042,10.7001713 C221.881588,10.4523365 222.607871,10.328421 223.378912,10.328421 C224.094879,10.328421 224.745436,10.4523365 225.330601,10.7001713 C225.915767,10.948006 226.411429,11.3025421 226.817602,11.7637902 C227.223776,12.2250382 227.537007,12.779216 227.757305,13.4263401 C227.977602,14.0734643 228.087749,14.7963048 228.087749,15.5948836 L228.087749,16.5655649 L220.900577,16.5655649 C221.024494,17.1576146 221.292978,17.6291821 221.706036,17.9802813 C222.119094,18.3313806 222.628524,18.5069276 223.234343,18.5069276 C223.743781,18.5069276 224.174043,18.3933383 224.525142,18.1661565 C224.876241,17.9389746 225.182588,17.6463963 225.444192,17.2884127 L227.612735,18.8786779 Z M224.98983,14.4589799 C225.003599,13.9357731 224.831494,13.4883004 224.47351,13.1165482 C224.115527,12.7447961 223.654286,12.5589228 223.089773,12.5589228 C222.745558,12.5589228 222.442653,12.6139963 222.18105,12.7241451 C221.919447,12.8342939 221.69571,12.9754199 221.509834,13.1475274 C221.323958,13.3196349 221.17939,13.5192766 221.076126,13.7464585 C220.972861,13.9736403 220.914345,14.2111451 220.900577,14.4589799 L224.98983,14.4589799 Z M236.761923,13.8187432 C236.610468,13.5984457 236.397058,13.4160145 236.121686,13.2714442 C235.846314,13.1268739 235.550294,13.0545898 235.233616,13.0545898 C234.448806,13.0545898 233.839555,13.2886525 233.405844,13.7567848 C232.972133,14.2249172 232.755281,14.8376106 232.755281,15.5948836 C232.755281,16.3521565 232.972133,16.9648499 233.405844,17.4329823 C233.839555,17.9011146 234.448806,18.1351773 235.233616,18.1351773 C235.577831,18.1351773 235.873852,18.0594511 236.121686,17.9079965 C236.369521,17.756542 236.582931,17.5775529 236.761923,17.3710239 L238.80655,19.5189145 C238.324649,20.014584 237.756702,20.3622359 237.102694,20.5618806 C236.448686,20.7615253 235.825666,20.8613461 235.233616,20.8613461 C234.462575,20.8613461 233.736292,20.7374306 233.054746,20.4895958 C232.373201,20.2417611 231.78116,19.887225 231.278606,19.4259769 C230.776052,18.9647289 230.380211,18.4105511 230.09107,17.763427 C229.80193,17.1163028 229.657362,16.3934623 229.657362,15.5948836 C229.657362,14.7963048 229.80193,14.0734643 230.09107,13.4263401 C230.380211,12.779216 230.776052,12.2250382 231.278606,11.7637902 C231.78116,11.3025421 232.373201,10.948006 233.054746,10.7001713 C233.736292,10.4523365 234.462575,10.328421 235.233616,10.328421 C235.825666,10.328421 236.448686,10.4282418 237.102694,10.6278865 C237.756702,10.8275312 238.324649,11.1751831 238.80655,11.6708526 L236.761923,13.8187432 Z M243.01972,5 L243.01972,11.9393389 L243.061025,11.9393389 C243.129868,11.7465786 243.2469,11.5538211 243.412123,11.3610607 C243.577346,11.1683003 243.776988,10.9961954 244.011054,10.8447408 C244.24512,10.6932862 244.520488,10.5693707 244.837166,10.4729905 C245.153843,10.3766103 245.498053,10.328421 245.869805,10.328421 C246.654615,10.328421 247.287961,10.4488944 247.769862,10.6898449 C248.251763,10.9307953 248.626952,11.2646789 248.89544,11.6915054 C249.163927,12.118332 249.346359,12.6208783 249.442739,13.1991594 C249.539119,13.7774405 249.587308,14.4039024 249.587308,15.0785637 L249.587308,20.6135126 L246.489389,20.6135126 L246.489389,15.6981475 C246.489389,15.409007 246.479063,15.1095444 246.45841,14.799751 C246.437757,14.4899575 246.375799,14.2042634 246.272535,13.94266 C246.16927,13.6810566 246.010934,13.4676466 245.79752,13.3024234 C245.584107,13.1372002 245.27776,13.0545898 244.878471,13.0545898 C244.479182,13.0545898 244.155625,13.1268739 243.90779,13.2714442 C243.659955,13.4160145 243.47064,13.6087719 243.339838,13.8497224 C243.209036,14.0906729 243.122984,14.3625986 243.081678,14.6655078 C243.040372,14.968417 243.01972,15.28509 243.01972,15.6155363 L243.01972,20.6135126 L239.9218,20.6135126 L239.9218,5 L243.01972,5 Z M258.075607,19.3536921 L258.034301,19.3536921 C257.690086,19.8906675 257.232287,20.2761825 256.66089,20.5102486 C256.089494,20.7443148 255.487126,20.8613461 254.853771,20.8613461 C254.385639,20.8613461 253.934724,20.7959463 253.501013,20.6651446 C253.067302,20.5343429 252.685229,20.3381433 252.354783,20.07654 C252.024336,19.8149366 251.762737,19.4913794 251.569977,19.1058586 C251.377216,18.7203379 251.280837,18.2728651 251.280837,17.763427 C251.280837,17.1851458 251.387542,16.6963679 251.600956,16.2970786 C251.814369,15.8977892 252.103505,15.5673478 252.468373,15.3057444 C252.833241,15.0441411 253.249735,14.8410573 253.717867,14.696487 C254.186,14.5519167 254.671335,14.4452117 255.173889,14.3763687 C255.676443,14.3075257 256.178989,14.2662205 256.681543,14.2524519 C257.184097,14.2386833 257.64878,14.2317991 258.075607,14.2317991 C258.075607,13.6810552 257.879407,13.2439087 257.487002,12.9203467 C257.094597,12.5967846 256.629914,12.435006 256.092939,12.435006 C255.5835,12.435006 255.118817,12.541711 254.698875,12.7551243 C254.278933,12.9685376 253.903744,13.2611159 253.573298,13.6328681 L251.921074,11.9393389 C252.499355,11.4023636 253.174006,10.9996381 253.945048,10.7311505 C254.716089,10.4626628 255.514656,10.328421 256.340772,10.328421 C257.2495,10.328421 257.996435,10.4420102 258.5816,10.6691921 C259.166766,10.896374 259.634891,11.2302575 259.98599,11.6708526 C260.33709,12.1114478 260.581479,12.6518571 260.719164,13.292097 C260.85685,13.9323368 260.925692,14.6723879 260.925692,15.5122724 L260.925692,20.6135126 L258.075607,20.6135126 L258.075607,19.3536921 Z M257.311453,16.2144674 C257.077387,16.2144674 256.784809,16.2247937 256.43371,16.2454466 C256.08261,16.2660995 255.745285,16.3246151 255.421723,16.4209953 C255.098161,16.5173755 254.822793,16.6619436 254.595611,16.854704 C254.368429,17.0474644 254.25484,17.315948 254.25484,17.660163 C254.25484,18.0319152 254.413176,18.307283 254.729854,18.4862748 C255.046532,18.6652666 255.376973,18.7547611 255.721188,18.7547611 C256.024097,18.7547611 256.316676,18.7134559 256.598932,18.6308443 C256.881188,18.5482327 257.132461,18.4312014 257.352759,18.2797468 C257.573057,18.1282923 257.748604,17.9355348 257.879405,17.7014686 C258.010207,17.4674024 258.075607,17.1920346 258.075607,16.8753568 L258.075607,16.2144674 L257.311453,16.2144674 Z" id="Vive.-Crece.-Cosecha" fill="#FFFFFF"></path>
                    </g>
                </g>
            </g>
        </g>
    </g>
</svg>