<?xml version="1.0" encoding="UTF-8"?>
<svg width="87px" height="87px" viewBox="0 0 87 87" version="1.1" xmlns="http://www.w3.org/2000/svg" xmlns:xlink="http://www.w3.org/1999/xlink">
    <!-- Generator: sketchtool 50.2 (55047) - http://www.bohemiancoding.com/sketch -->
    <title>67C9F631-4893-4416-B22D-34D40ACF5BD0</title>
    <desc>Created with sketchtool.</desc>
    <defs></defs>
    <g id="Unidades-de-negocio" stroke="none" stroke-width="1" fill="none" fill-rule="evenodd">
        <g id="inhabilitar_nave" transform="translate(-766.000000, -244.000000)">
            <g id="alerta/inhabilitar" transform="translate(571.000000, 218.000000)">
                <g id="alert_icon" transform="translate(186.000000, 17.000000)">
                    <polygon id="Shape" points="0 0 104 0 104 104 0 104"></polygon>
                    <path d="M48.15,65.55 L56.85,65.55 L56.85,74.25 L48.15,74.25 L48.15,65.55 Z M48.15,30.75 L56.85,30.75 L56.85,56.85 L48.15,56.85 L48.15,30.75 Z M52.4565,9 C28.4445,9 9,28.488 9,52.5 C9,76.512 28.4445,96 52.4565,96 C76.512,96 96,76.512 96,52.5 C96,28.488 76.512,9 52.4565,9 Z M52.5,87.3 C33.273,87.3 17.7,71.727 17.7,52.5 C17.7,33.273 33.273,17.7 52.5,17.7 C71.727,17.7 87.3,33.273 87.3,52.5 C87.3,71.727 71.727,87.3 52.5,87.3 Z" id="Shape" fill="#FEDC3B" fill-rule="nonzero"></path>
                </g>
            </g>
        </g>
    </g>
</svg>