<?xml version="1.0" encoding="UTF-8"?>
<svg width="20px" height="25px" viewBox="0 0 20 25" version="1.1" xmlns="http://www.w3.org/2000/svg" xmlns:xlink="http://www.w3.org/1999/xlink">
    <!-- Generator: sketchtool 50.2 (55047) - http://www.bohemiancoding.com/sketch -->
    <title>D86FCFF1-2666-48F6-9002-FFC6BB93409E</title>
    <desc>Created with sketchtool.</desc>
    <defs>
      .mat-icon-svg{
        fill: #FFFFFF;
      }
    </defs>
    <g id="Inicio-de-sesión/-Cerrar-sesión" stroke="none" stroke-width="1" fill="none" fill-rule="evenodd">
        <g id="menu_colapsado" transform="translate(-16.000000, -162.000000)">
            <g id="actividad" transform="translate(15.000000, 163.000000)">
                <polygon id="Shape" points="0 2.75 22 2.75 22 24.75 0 24.75"></polygon>
                <path d="M18.3333333,22 C17.0591667,22 15.785,21.5691667 14.6666667,20.79 C12.43,22.3575 9.57,22.3575 7.33333333,20.79 C6.215,21.5691667 4.94083333,22 3.66666667,22 L1.83333333,22 L1.83333333,23.8333333 L3.66666667,23.8333333 C4.93166667,23.8333333 6.17833333,23.5125 7.33333333,22.9258333 C9.64333333,24.1083333 12.3566667,24.1083333 14.6666667,22.9258333 C15.8216667,23.5216667 17.0683333,23.8333333 18.3333333,23.8333333 L20.1666667,23.8333333 L20.1666667,22 L18.3333333,22 Z" id="Shape" class="mat-icon-svg" fill-rule="nonzero"></path>
                <path d="M18.3333333,16.5 C17.0591667,16.5 15.785,16.0691667 14.6666667,15.29 C12.43,16.8575 9.57,16.8575 7.33333333,15.29 C6.215,16.0691667 4.94083333,16.5 3.66666667,16.5 L1.83333333,16.5 L1.83333333,18.3333333 L3.66666667,18.3333333 C4.93166667,18.3333333 6.17833333,18.0125 7.33333333,17.4258333 C9.64333333,18.6083333 12.3566667,18.6083333 14.6666667,17.4258333 C15.8216667,18.0216667 17.0683333,18.3333333 18.3333333,18.3333333 L20.1666667,18.3333333 L20.1666667,16.5 L18.3333333,16.5 Z" id="Shape" class="mat-icon-svg" fill-rule="nonzero"></path>
                <path d="M12.375,4.625 C11.0905243,4.625 10.0416667,3.57614237 10.0416667,2.29166667 C10.0416667,1.00719096 11.0905243,-0.0416666667 12.375,-0.0416666667 C13.6594757,-0.0416666667 14.7083333,1.00719096 14.7083333,2.29166667 C14.7083333,3.57614237 13.6594757,4.625 12.375,4.625 Z M7.62794352,11.5 L5,11.5 L5,6.36029766 L10.0718467,4.21451637 L10.2666667,4.175 C10.3388865,4.175 10.3940829,4.16711481 10.5352753,4.13887633 C10.7378329,4.09836481 10.8430532,4.08333333 11,4.08333333 C11.7940463,4.08333333 12.5021677,4.51436373 12.9823325,5.23500053 L13.9091216,6.7185972 C14.5835898,7.89891656 15.915862,8.66666667 17.4166667,8.66666667 L17.9166667,8.66666667 L17.9166667,11.5 L17.4166667,11.5 C15.6535892,11.5 13.9654534,10.8434622 12.6820082,9.72280232 L12.3693176,11.2862549 L14.25,13.077381 L14.25,20.6666667 L11.4166667,20.6666667 L11.4166667,14.8809524 L10.2857843,13.8039216 L8.74166667,20.6666667 L5.80761255,20.6666667 L7.62794352,11.5 Z" id="Shape" stroke="#2C2C2C" class="mat-icon-svg" fill-rule="nonzero"></path>
            </g>
        </g>
    </g>
</svg>
