<?xml version="1.0" encoding="UTF-8"?>
<svg width="20px" height="11px" viewBox="0 0 20 11" version="1.1" xmlns="http://www.w3.org/2000/svg" xmlns:xlink="http://www.w3.org/1999/xlink">
    <!-- Generator: sketchtool 50.2 (55047) - http://www.bohemiancoding.com/sketch -->
    <title>722FDF34-AD70-4F62-8016-C01E11636DD8</title>
    <desc>Created with sketchtool.</desc>
    <defs>
      .mat-icon-svg{
        fill: #FFFFFF;
      }
      <polygon id="path-1" points="0 0 20 0 20 20 0 20"></polygon>
    </defs>
    <g id="Inicio-de-sesión/-Cerrar-sesión" stroke="none" stroke-width="1" fill="none" fill-rule="evenodd">
        <g id="menu_colapsado" transform="translate(-16.000000, -120.000000)">
            <g id="agroa" transform="translate(16.000000, 115.000000)">
                <path d="M17.0306359,8.49842468 L13.275,12.1466007 C13.3166667,12.279934 13.3333333,12.429934 13.3333333,12.579934 C13.3333333,13.4966007 12.5833333,14.2466007 11.6666667,14.2466007 C10.75,14.2466007 10,13.4966007 10,12.579934 C10,12.429934 10.0166667,12.279934 10.0583333,12.1466007 L7.93333333,10.0216007 C7.8,10.0632673 7.65,10.079934 7.5,10.079934 C7.35,10.079934 7.2,10.0632673 7.06666667,10.0216007 L3.275,13.8216007 C3.31666667,13.954934 3.33333333,14.0966007 3.33333333,14.2466007 C3.33333333,15.1632673 2.58333333,15.9132673 1.66666667,15.9132673 C0.75,15.9132673 0,15.1632673 0,14.2466007 C0,13.329934 0.75,12.579934 1.66666667,12.579934 C1.81666667,12.579934 1.95833333,12.5966007 2.09166667,12.6382673 L5.89166667,8.84660066 C5.85,8.71326733 5.83333333,8.56326733 5.83333333,8.41326733 C5.83333333,7.49660066 6.58333333,6.74660066 7.5,6.74660066 C8.41666667,6.74660066 9.16666667,7.49660066 9.16666667,8.41326733 C9.16666667,8.56326733 9.15,8.71326733 9.10833333,8.84660066 L11.2333333,10.9716007 C11.3666667,10.929934 11.5166667,10.9132673 11.6666667,10.9132673 C11.8166667,10.9132673 11.9666667,10.929934 12.1,10.9716007 L15.8219023,7.28969106 L15.6547855,7.12257426 L14.6068647,6.07465347 L19.4561716,5 L18.3815182,9.84930693 L17.2052805,8.67306931 L17.0306359,8.49842468 Z" id="Shape" class="mat-icon-svg" fill-rule="nonzero"></path>
                <mask id="mask-2" class="mat-icon-svg">
                    <use xlink:href="#path-1"></use>
                </mask>
                <g id="a"></g>
            </g>
        </g>
    </g>
</svg>
