<?xml version="1.0" encoding="UTF-8"?>
<svg width="23px" height="55px" viewBox="0 0 23 55" version="1.1" xmlns="http://www.w3.org/2000/svg" xmlns:xlink="http://www.w3.org/1999/xlink">
    <!-- Generator: sketchtool 50.2 (55047) - http://www.bohemiancoding.com/sketch -->
    <title>35C5C9F1-6DFE-4CEE-AA74-DF6E8F7D2293</title>
    <desc>Created with sketchtool.</desc>
    <defs>
      .mat-icon-svg{
        fill: #FFFFFF;
      }
      </defs>
    <g id="Actividades-Iconos" stroke="none" stroke-width="1" fill="none" fill-rule="evenodd">
        <g id="iconos_actividades" transform="translate(-80.000000, -28.000000)" class="mat-icon-svg" fill-rule="nonzero">
            <g id="Group-13" transform="translate(2.000000, 0.000000)">
                <g id="alinear_planta" transform="translate(78.000000, 28.000000)">
                    <path d="M12.4583333,55 L12.4583333,45.6230953 L16.2916667,45.6230953 C19.9947865,45.6189929 22.9958073,42.6826152 23,39.059262 L23,38.1215716 L19.1666667,38.1215716 C15.4635469,38.125674 12.462526,41.0620517 12.4583333,44.6854048 L12.4583333,36.2461906 L16.2916667,36.2461906 C19.9947865,36.2420882 22.9958073,33.3057105 23,29.6823574 L23,28.7446669 L19.1666667,28.7446669 C15.4635469,28.7487693 12.462526,31.685147 12.4583333,35.3085002 L12.4583333,28.0286933 L13.3582083,27.148202 C15.9911094,24.5720146 15.9911094,20.3953069 13.3582083,17.8191195 C13.3582083,17.8191195 12.7388056,17.2127463 11.5,16 L9.64179167,17.8181818 C7.00889063,20.3943692 7.00889063,24.5710769 9.64179167,27.1472643 C9.64179167,27.1472643 9.94175,27.4407614 10.5416667,28.0277556 L10.5416667,35.3085002 C10.537474,31.685147 7.53645312,28.7487693 3.83333333,28.7446669 L0,28.7446669 L0,29.6823574 C0.00419270833,33.3057105 3.00521354,36.2420882 6.70833333,36.2461906 L10.5416667,36.2461906 L10.5416667,44.6854048 C10.537474,41.0620517 7.53645312,38.125674 3.83333333,38.1215716 L0,38.1215716 L0,39.059262 C0.00419270833,42.6826152 3.00521354,45.6189929 6.70833333,45.6230953 L10.5416667,45.6230953 L10.5416667,55 L12.4583333,55 Z M19.1666667,39.9969525 L20.9875,39.9969525 C20.5290573,42.1783722 18.5678281,43.7449013 16.2916667,43.7477144 L14.4708333,43.7477144 C14.929276,41.5662947 16.8905052,39.9997656 19.1666667,39.9969525 Z M19.1666667,30.6200478 L20.9875,30.6200478 C20.5290573,32.8014675 18.5678281,34.3679966 16.2916667,34.3708097 L14.4708333,34.3708097 C14.929276,32.18939 16.8905052,30.6228609 19.1666667,30.6200478 Z M6.70833333,34.3708097 C4.43217188,34.3679966 2.47094271,32.8014675 2.0125,30.6200478 L3.83333333,30.6200478 C6.10949479,30.6228609 8.07072396,32.18939 8.52916667,34.3708097 L6.70833333,34.3708097 Z M6.70833333,43.7477144 C4.43217188,43.7449013 2.47094271,42.1783722 2.0125,39.9969525 L3.83333333,39.9969525 C6.10949479,39.9997656 8.07072396,41.5662947 8.52916667,43.7477144 L6.70833333,43.7477144 Z M11.5,26.3145952 L10.996875,25.8223077 C10.0886146,24.938886 9.5795,23.736298 9.58333333,22.4831919 C9.5795,21.2300858 10.0886146,20.0274978 10.996875,19.1440761 L11.5,18.6517886 L12.003125,19.1440761 C13.8872083,20.9881617 13.8872083,23.9772844 12.003125,25.82137 L11.5,26.3145952 Z" id="Shape"></path>
                    <path d="M16.9983985,5.57311363 L8.89544219,5.57311363 L9.98718785,5.04851617 L11.7099425,3.49281333 C12.0697678,3.11338464 12.0208145,2.54243265 11.6006427,2.21749879 C11.2256681,1.9275004 10.6726589,1.9275004 10.2976843,2.21749879 L6.29127824,5.83541237 C5.90290725,6.18815894 5.90290725,6.75798033 6.29127824,7.11072691 L10.2976843,10.7286405 C10.480101,10.8968735 10.7281226,10.994218 10.9887894,10.999984 C11.5419238,11.0029236 11.9930201,10.6003176 11.9961501,10.1008194 C11.9977777,9.85785391 11.8909819,9.62449849 11.6999264,9.45332595 L9.98718785,7.89762311 L8.89544219,7.38207042 L16.9983985,7.38207042 C17.5515329,7.38207042 18,6.97709022 18,6.47759203 C18,5.97809384 17.5515329,5.57311363 16.9983985,5.57311363 Z" id="Shape" transform="translate(12.000000, 6.500000) rotate(-270.000000) translate(-12.000000, -6.500000) "></path>
                </g>
            </g>
        </g>
    </g>
</svg>
