<?xml version="1.0" encoding="UTF-8"?>
<svg width="41px" height="53px" viewBox="0 0 41 53" version="1.1" xmlns="http://www.w3.org/2000/svg" xmlns:xlink="http://www.w3.org/1999/xlink">
    <!-- Generator: sketchtool 50.2 (55047) - http://www.bohemiancoding.com/sketch -->
    <title>2EBC7DE1-5B76-4F06-A25A-A30D288F0BDD</title>
    <desc>Created with sketchtool.</desc>
    <defs>
      .mat-icon-svg{
        fill: #FFFFFF;
      }
    </defs>
    <g id="Actividades-Iconos" stroke="none" stroke-width="1" fill="none" fill-rule="evenodd">
        <g id="iconos_actividades" transform="translate(-254.000000, -29.000000)" class="mat-icon-svg" fill-rule="nonzero">
            <g id="Group-12" transform="translate(183.000000, 0.000000)">
                <g id="APUNTADOR" transform="translate(71.000000, 29.000000)">
                    <path d="M29.3243089,13.857862 L11.675092,13.857862 C11.1018205,13.857862 10.6375723,14.3370127 10.6375723,14.9256663 C10.6375723,15.5149249 11.1018205,15.9934707 11.675092,15.9934707 L29.3237099,15.9934707 C29.8957834,15.9934707 30.3606306,15.5149249 30.3606306,14.9256663 C30.3624277,14.3370127 29.8957834,13.857862 29.3243089,13.857862 Z M29.3243089,22.2436048 L11.675092,22.2436048 C11.1018205,22.2436048 10.6375723,22.7221506 10.6375723,23.3114092 C10.6375723,23.9000628 11.1018205,24.3786085 11.675092,24.3786085 L29.3237099,24.3786085 C29.8957834,24.3786085 30.3606306,23.9000628 30.3606306,23.3114092 C30.3624277,22.7221506 29.8957834,22.2436048 29.3243089,22.2436048 Z M29.3243089,30.6311626 L11.675092,30.6311626 C11.1018205,30.6311626 10.6375723,31.1103133 10.6375723,31.6995719 C10.6375723,32.2888305 11.1018205,32.7673763 11.675092,32.7673763 L29.3237099,32.7673763 C29.8957834,32.7673763 30.3606306,32.2888305 30.3606306,31.6995719 C30.3624277,31.1103133 29.8957834,30.6311626 29.3243089,30.6311626 Z M29.3243089,39.0163004 L11.675092,39.0163004 C11.1018205,39.0163004 10.6375723,39.4948462 10.6375723,40.0841048 C10.6375723,40.6727584 11.1018205,41.1513041 11.675092,41.1513041 L29.3237099,41.1513041 C29.8957834,41.1513041 30.3606306,40.6727584 30.3606306,40.0841048 C30.3624277,39.4948462 29.8957834,39.0163004 29.3243089,39.0163004 Z M38.9243615,1.69517722 L32.9550289,1.69517722 C32.6405383,1.69517722 32.3452165,1.77261572 32.0786482,1.90147823 C31.4622465,0.765915187 30.3234907,0 29.0176056,0 L11.9793992,0 C10.6765093,0 9.53715446,0.766520176 8.92135176,1.90208321 C8.65418444,1.77261572 8.35946175,1.69517722 8.04497107,1.69517722 L2.07563848,1.69517722 C0.929095319,1.69517722 0,2.65287369 0,3.83018093 L0,50.8656013 C0,52.0465384 0.929095319,53 2.07563848,53 L38.9243615,53 C40.0709047,53 41,52.0465384 41,50.8656013 L41,3.83018093 C40.9982029,2.65287369 40.0709047,1.69517722 38.9243615,1.69517722 Z M11.9793992,2 L29.0176056,2 C29.0176056,2 30.0327595,2 30.0327595,2.91509046 C30.0327595,3.83018093 29.0176056,3.83018093 29.0176056,3.83018093 L11.9793992,3.83018093 C11.9793992,3.83018093 10.9995009,3.83018093 10.9995009,2.91509046 C10.9995009,2 11.9793992,2 11.9793992,2 Z M39,51 L2,51 L2,4.05663325 L6.40605306,4.05663325 C6.76192657,4.05663325 7.09610875,3.97163062 7.39775392,3.83018093 C8.09526601,5.07666481 9.38386707,5.91805804 10.8582002,5.91805804 L30.1384105,5.91805804 C31.6161329,5.91805804 32.9040561,5.07666481 33.6008904,3.83084501 C33.9032134,3.97163062 34.2367177,4.05663325 34.5932691,4.05663325 L38.9993221,4.05663325 L38.9993221,51 L39,51 Z" id="Shape"></path>
                </g>
            </g>
        </g>
    </g>
</svg>
