<?xml version="1.0" encoding="UTF-8"?>
<svg width="55px" height="46px" viewBox="0 0 55 46" version="1.1" xmlns="http://www.w3.org/2000/svg" xmlns:xlink="http://www.w3.org/1999/xlink">
    <!-- Generator: sketchtool 50.2 (55047) - http://www.bohemiancoding.com/sketch -->
    <title>1E1DDDFB-3F80-4E76-BA36-A1A889EF43EA</title>
    <desc>Created with sketchtool.</desc>
    <defs>
      .mat-icon-svg{
        fill: #FFFFFF;
      }
    </defs>
    <g id="Actividades-Iconos" stroke="none" stroke-width="1" fill="none" fill-rule="evenodd">
        <g id="iconos_actividades" transform="translate(-607.000000, -33.000000)" class="mat-icon-svg">
            <g id="Group-16" transform="translate(545.000000, 0.000000)">
                <g id="arrancar_planta" transform="translate(62.000000, 33.000000)">
                    <path d="M31.9032258,33.9064516 L31.9032258,31.3363871 L31.9032258,28.0184516 L31.9032258,22.2580645 L25.9677419,22.2580645 L25.9677419,19.4654194 L25.9677419,16.1474839 L25.9677419,15.1480968 C27.899,13.2316774 30.1708065,11.7834194 32.6451613,10.8537742 L32.6451613,12.6129032 C32.6451613,16.2943871 35.6403548,19.2903226 39.3225806,19.2903226 L40.0645161,19.2903226 L40.0645161,15.5806452 C40.0645161,13.1255806 38.7290323,10.9813871 36.7502903,9.82174194 C37.5960968,9.70748387 38.4545161,9.64516129 39.3225806,9.64516129 L40.0645161,9.64516129 L40.0645161,8.16129032 L39.3225806,8.16129032 C38.9894516,8.16129032 38.6585484,8.16945161 38.3276452,8.18577419 C39.4034516,6.99941935 40.0645161,5.43245161 40.0645161,3.70967742 L40.0645161,0 L39.3225806,0 C36.6530968,0 34.3516129,1.57809677 33.2839677,3.84619355 C32.3558065,2.42612903 30.7547097,1.48387097 28.9354839,1.48387097 L28.1935484,1.48387097 L28.1935484,5.19354839 C28.1935484,7.25019355 29.3977097,9.02564516 31.1353226,9.86625806 C29.2738065,10.6801613 27.5347097,11.776 25.9677419,13.1322581 L25.9677419,9.82025806 L25.9677419,6.50232258 L25.9677419,0 L14.0967742,0 L14.0967742,6.50232258 L14.0967742,9.82025806 L14.0967742,16.1474839 L14.0967742,19.4654194 L14.0967742,21.2935484 C12.5298065,19.9372903 10.7907097,18.8414516 8.92919355,18.0275484 C10.6668065,17.1869355 11.8709677,15.4114839 11.8709677,13.3548387 L11.8709677,9.64516129 L11.1290323,9.64516129 C9.30980645,9.64516129 7.70870968,10.5874194 6.78054839,12.0074839 C5.71290323,9.7393871 3.41141935,8.16129032 0.741935484,8.16129032 L0,8.16129032 L0,11.8709677 C0,13.5937419 0.661064516,15.1607097 1.73687097,16.3470645 C1.40596774,16.3307419 1.07506452,16.3225806 0.741935484,16.3225806 L0,16.3225806 L0,17.8064516 L0.741935484,17.8064516 C1.61,17.8064516 2.46841935,17.8687742 3.31422581,17.9830323 C1.33548387,19.1426774 0,21.286871 0,23.7419355 L0,27.4516129 L0.741935484,27.4516129 C4.42416129,27.4516129 7.41935484,24.4556774 7.41935484,20.7741935 L7.41935484,19.0158065 C9.89370968,19.9454516 12.1655161,21.3929677 14.0967742,23.310129 L14.0967742,25.7933871 L14.0967742,29.1105806 L14.0967742,35.4378065 L14.0967742,38.7557419 L14.0967742,46 L31.9032258,46 L31.9032258,39.4976774 L31.9032258,36.1797419 L31.9032258,35.9222903 C31.9032258,35.9222903 31.9032258,35.2503441 31.9032258,33.9064516 Z M34.1290323,6.67741935 C34.1290323,4.06506452 36.0669677,1.89787097 38.5806452,1.53654839 L38.5806452,3.70967742 C38.5806452,5.94809677 37.156129,7.8556129 35.167,8.58419355 C35.0957742,8.59903226 35.0252903,8.61683871 34.9540645,8.63167742 L36.972129,5.60458065 L35.7375484,4.78177419 L34.1290323,7.19454839 L34.1290323,6.67741935 Z M34.1290323,12.0957742 L35.7375484,14.5085484 L36.972129,13.6857419 L34.9325484,10.6267419 C37.0433548,11.2863226 38.5806452,13.2554194 38.5806452,15.5806452 L38.5806452,17.7537742 C36.0669677,17.3924516 34.1290323,15.2252581 34.1290323,12.6129032 L34.1290323,12.0957742 Z M29.6774194,5.19354839 L29.6774194,3.04267742 C31.3682903,3.38693548 32.6451613,4.8863871 32.6451613,6.67741935 L32.6451613,8.82829032 C30.9542903,8.48403226 29.6774194,6.98532258 29.6774194,5.19354839 Z M5.93548387,20.7741935 C5.93548387,23.3865484 3.99754839,25.5537419 1.48387097,25.9150645 L1.48387097,23.7419355 C1.48387097,21.4167097 3.02116129,19.4476129 5.13196774,18.7872903 L3.0923871,21.8462903 L4.32696774,22.6690968 L5.93548387,20.2570645 L5.93548387,20.7741935 Z M5.93548387,15.3558387 L4.32696774,12.9430645 L3.0923871,13.765871 L5.11045161,16.7929677 C5.03922581,16.7773871 4.96874194,16.7595806 4.89751613,16.7454839 C2.9083871,16.0169032 1.48387097,14.1093871 1.48387097,11.8709677 L1.48387097,9.69783871 C3.99754839,10.0591613 5.93548387,12.2263548 5.93548387,14.8387097 L5.93548387,15.3558387 Z M7.41935484,14.8387097 C7.41935484,13.0469355 8.69622581,11.5482258 10.3870968,11.2039677 L10.3870968,13.3548387 C10.3870968,15.1466129 9.11022581,16.6453226 7.41935484,16.9895806 L7.41935484,14.8387097 Z M24.7672903,8.90322581 L24.483871,9.47006452 L24.483871,16.4976774 L24.7672903,17.0645161 L21.516129,17.0645161 L21.516129,18.5483871 L24.7672903,18.5483871 L24.483871,19.1152258 L24.483871,26.7096774 L21.516129,26.7096774 L21.516129,28.1935484 L24.3963226,28.1935484 L23.6543871,29.6774194 L24.483871,31.3363871 L24.483871,36.1797419 L23.6543871,37.8387097 L24.483871,39.4976774 L24.483871,44.516129 L15.5806452,44.516129 L15.5806452,38.4055484 L15.2972258,37.8387097 L20.0322581,37.8387097 L20.0322581,36.3548387 L15.2972258,36.3548387 L15.5806452,35.788 L15.5806452,28.7603871 L15.2972258,28.1935484 L20.0322581,28.1935484 L20.0322581,26.7096774 L15.2972258,26.7096774 L15.5806452,26.1428387 L15.5806452,19.1152258 L15.2972258,18.5483871 L20.0322581,18.5483871 L20.0322581,17.0645161 L15.2972258,17.0645161 L15.5806452,16.4976774 L15.5806452,9.47006452 L15.2972258,8.90322581 L20.0322581,8.90322581 L20.0322581,7.41935484 L15.2972258,7.41935484 L15.5806452,6.85251613 L15.5806452,1.48387097 L24.483871,1.48387097 L24.483871,6.85251613 L24.7672903,7.41935484 L21.516129,7.41935484 L21.516129,8.90322581 L24.7672903,8.90322581 Z M30.7027742,30.4193548 L30.4193548,30.9861935 L30.4193548,36.5299355 L30.7027742,37.0967742 L29.6774194,37.0967742 L29.6774194,38.5806452 L30.7027742,38.5806452 L30.4193548,39.1474839 L30.4193548,44.516129 L25.9677419,44.516129 L25.9677419,39.1474839 L25.6843226,38.5806452 L28.1935484,38.5806452 L28.1935484,37.0967742 L25.6843226,37.0967742 L25.9677419,36.5299355 L25.9677419,30.9861935 L25.6843226,30.4193548 L28.1935484,30.4193548 L28.1935484,28.9354839 L25.6843226,28.9354839 L25.9677419,28.3686452 L25.9677419,23.7419355 L30.4193548,23.7419355 L30.4193548,28.3686452 L30.7027742,28.9354839 L29.6774194,28.9354839 L29.6774194,30.4193548 L30.7027742,30.4193548 Z" id="Shape" fill-rule="nonzero"></path>
                    <rect id="Rectangle" x="40" y="37" width="2" height="2"></rect>
                    <rect id="Rectangle" x="38" y="26" width="2" height="2"></rect>
                    <rect id="Rectangle" x="46" y="39" width="2" height="2"></rect>
                    <rect id="Rectangle" x="38" y="43" width="2" height="2"></rect>
                    <rect id="Rectangle" x="34" y="31" width="2" height="2"></rect>
                    <path d="M53.6447626,27.6774194 L54.3866981,27.6774194 L54.3866981,29.1612903 L53.6447626,29.1612903 C52.6550207,29.1612903 51.6771497,29.2391935 50.7170852,29.3868387 C52.0377304,30.3298387 52.9028271,31.8708387 52.9028271,33.6129032 L52.9028271,37.3225806 L52.1608917,37.3225806 C49.2977626,37.3225806 46.9673433,34.9929032 46.9673433,32.1290323 L46.9673433,30.3699032 C44.4929884,31.2995484 42.221182,32.7478065 40.2899239,34.6642258 C39.9307458,35.0187942 39.5802149,35.0187942 39.2383314,34.6642258 C38.8964478,34.3096574 38.9223852,33.9592165 39.3161437,33.6129032 L40.2899239,32.6483871 C41.8568917,31.292129 43.5959884,30.1962903 45.4575046,29.3823871 C43.7198917,28.5417742 42.5157304,26.7663226 42.5157304,24.7096774 L42.5157304,21 L43.2576658,21 C45.1481175,21 46.8004078,22.0186774 47.7092788,23.5322258 C48.6181497,22.0186774 50.27044,21 52.1608917,21 L52.9028271,21 L52.9028271,24.7096774 C52.9028271,25.8478065 52.5303755,26.8983871 51.9071497,27.7545806 C52.4821497,27.7063548 53.0608594,27.6774194 53.6447626,27.6774194 Z M46.9673433,28.3444194 L46.9673433,26.1935484 C46.9673433,24.4025161 45.6904723,22.9030645 43.9996013,22.5588065 L43.9996013,24.7096774 C43.9996013,26.5014516 45.2764723,28.0001613 46.9673433,28.3444194 Z M51.4189562,33.6129032 C51.4189562,31.821129 50.1420852,30.3224194 48.4512142,29.9781613 L48.4512142,32.1290323 C48.4512142,33.9200645 49.7280852,35.4195161 51.4189562,35.7637742 L51.4189562,33.6129032 Z M51.4189562,24.7096774 L51.4189562,22.5588065 C49.7280852,22.9030645 48.4512142,24.4017742 48.4512142,26.1935484 L48.4512142,28.3436774 C48.4749562,28.3377419 48.4979562,28.3303226 48.5209562,28.3243871 C50.1762142,27.9519355 51.4189562,26.4754839 51.4189562,24.7096774 Z" id="Combined-Shape"></path>
                </g>
            </g>
        </g>
    </g>
</svg>
