<?xml version="1.0" encoding="UTF-8"?>
<svg width="50px" height="49px" viewBox="0 0 50 49" version="1.1" xmlns="http://www.w3.org/2000/svg" xmlns:xlink="http://www.w3.org/1999/xlink">
    <!-- Generator: sketchtool 50.2 (55047) - http://www.bohemiancoding.com/sketch -->
    <title>17A46504-FF6A-44B6-8A21-22E57B3AFA84</title>
    <desc>Created with sketchtool.</desc>
    <defs>
      .mat-icon-svg{
        fill: #FFFFFF;
      }
    </defs>
    <g id="Actividades-Iconos" stroke="none" stroke-width="1" fill="none" fill-rule="evenodd">
        <g id="iconos_actividades" transform="translate(-790.000000, -32.000000)" class="mat-icon-svg">
            <g id="Group-17" transform="translate(725.000000, 0.000000)">
                <g id="arreglo_racimo" transform="translate(65.000000, 32.000000)">
                    <path d="M32.1434896,6.98958333 C29.8502604,4.65 23.3617188,-0.69140625 12.6763021,0.257552083 C12.4286458,0.2796875 12.2020833,0.40390625 12.0505208,0.599739583 C11.8989583,0.79609375 11.8367188,1.04635417 11.8786458,1.29088542 C11.9885417,1.92864583 14.6044271,16.9583333 18.1838542,20.6098958 C20.0932292,22.5578125 22.6278646,23.5351562 25.1648438,23.5351562 C27.6283854,23.5351562 30.0932292,22.6132812 31.9898438,20.7627604 C35.8382813,17.0078125 35.9075521,10.8289062 32.1434896,6.98958333 Z M30.7466146,19.4953125 C27.5992188,22.5664062 22.5338542,22.5104167 19.4546875,19.3695312 C16.9867188,16.8515625 14.690625,6.725 13.8039063,1.95572917 C23.1528646,1.46510417 28.8260417,6.14244792 30.8723958,8.22994792 C33.9507813,11.3697917 33.8947917,16.4236979 30.7466146,19.4953125 Z" id="Shape" fill-rule="nonzero"></path>
                    <path d="M32.0723958,25.4822917 C31.3666667,23.7390625 30.8549479,21.7098958 30.3604167,19.7476562 C29.8466146,17.7098958 29.315625,15.6023437 28.5604167,13.7885417 C26.1328125,7.9578125 18.3914062,3.90807292 18.0630208,3.73828125 C17.6270833,3.51302083 17.0908854,3.68359375 16.8653646,4.11796875 C16.6395833,4.55260417 16.8098958,5.08776042 17.2453125,5.31302083 C17.3200521,5.3515625 24.7414063,9.23932292 26.9182292,14.4690104 C27.6231771,16.1619792 28.1151042,18.1138021 28.6359375,20.1802083 C29.1453125,22.2010417 29.671875,24.2903646 30.4231771,26.1463542 C30.5627604,26.4911458 30.8960938,26.7015625 31.2476563,26.7015625 C31.3583333,26.7015625 31.4710938,26.6807292 31.5815104,26.6367187 C32.0359375,26.453125 32.2565104,25.9367187 32.0723958,25.4822917 Z" id="Shape" fill-rule="nonzero"></path>
                    <path d="M31.6567708,12.7747396 C31.2361979,12.5192708 30.6901042,12.6526042 30.4348958,13.0708333 L28.4184896,16.3760417 L20.5770833,15.4653646 C20.0903646,15.4054687 19.6481771,15.7572917 19.5914063,16.2434896 C19.5346354,16.7302083 19.8838542,17.1700521 20.3713542,17.2270833 L28.7783854,18.2036458 C28.8130208,18.2080729 28.8473958,18.2098958 28.8815104,18.2098958 C29.1890625,18.2098958 29.4783854,18.0502604 29.6411458,17.7841146 L31.9536458,13.9934896 C32.209375,13.5747396 32.0760417,13.0294271 31.6567708,12.7747396 Z" id="Shape" fill-rule="nonzero"></path>
                    <path d="M25.8052083,5.92760417 C25.3346354,5.78671875 24.8398438,6.05572917 24.7002604,6.52526042 L24.0208333,8.81067708 L19.3666667,8.70494792 C19.3598958,8.70442708 19.3533854,8.70442708 19.3460938,8.70442708 C18.8648438,8.70442708 18.46875,9.08880208 18.4575521,9.57109375 C18.4463542,10.0609375 18.8354167,10.4671875 19.3260417,10.4778646 L24.659375,10.5992188 C24.6661458,10.5997396 24.6731771,10.5997396 24.6796875,10.5997396 C25.0721354,10.5997396 25.4192708,10.3424479 25.5320313,9.965625 L26.4044271,7.02994792 C26.5445313,6.56015625 26.2760417,6.06692708 25.8052083,5.92760417 Z" id="Shape" fill-rule="nonzero"></path>
                    <path d="M29.2804688,8.77291667 C28.8268229,8.58541667 28.3067708,8.79791667 28.1174479,9.24947917 L26.7557292,12.4997396 L20.6135417,11.5304688 C20.1294271,11.4575521 19.6734375,11.7838542 19.5966146,12.2677083 C19.5200521,12.7518229 19.8507813,13.2059896 20.3356771,13.2822917 L27.1677083,14.3604167 C27.2143229,14.3674479 27.2606771,14.3710938 27.3067708,14.3710938 C27.6604167,14.3710938 27.9867188,14.1604167 28.1268229,13.8263021 L29.7578125,9.93333333 C29.9471354,9.48151042 29.7333333,8.96223958 29.2804688,8.77291667 Z" id="Shape" fill-rule="nonzero"></path>
                    <path d="M38.615625,20.7744792 C38.5690104,20.5208333 38.6351563,20.2651042 38.8018229,20.0549479 C39.0648438,19.7234375 39.6299479,19.6638021 40.0614583,19.9223958 L41.8174479,20.9752604 L42.7333333,19.4552083 L40.9773438,18.4023437 C39.7671875,17.6765625 38.2320313,17.9143229 37.4075521,18.9546875 C36.9263021,19.5622396 36.7294271,20.3419271 36.8666667,21.0929687 C37.0039063,21.8440104 37.4604167,22.5010417 38.1182292,22.8955729 L41.8174479,25.1130208 L42.7330729,23.5927083 L39.0338542,21.3752604 C38.8138021,21.2432292 38.6614583,21.0242187 38.615625,20.7744792 Z" id="Shape" fill-rule="nonzero"></path>
                    <path d="M47.9049479,26.2859375 L46.8872396,18.6041667 L44.534375,14.2419271 C43.8632812,12.9955729 42.3348958,12.4966146 41.0669271,13.0778646 L41.0645833,13.0739583 L40.9289063,13.1463542 C40.9270833,13.1471354 40.9257813,13.1481771 40.9239583,13.1489583 L40.9263021,13.1533854 C39.7369792,13.8809896 39.3023438,15.4257812 39.9622396,16.6742187 L41.4372396,19.4627604 L41.3221354,25.8059896 L40.9528646,26.3914062 C40.2039062,25.1598958 39.0119792,23.5638021 37.7270833,23.2757812 C37.1247396,23.1398437 36.5502604,23.2757812 36.0648437,23.6664062 C34.0640625,25.2770833 37.1377604,31.6859375 39.2377604,35.5072917 L39.2541667,42.7049479 L41.0328125,42.7010417 L41.0151042,35.0489583 L40.9049479,34.8497396 C38.4471354,30.4096354 36.7200521,25.815625 37.1817708,25.0471354 C37.2489583,24.9924479 37.2765625,24.9924479 37.3372396,25.00625 C38.1088542,25.1791667 39.4367187,27.1622396 40.0986979,28.528125 L40.796875,29.9684896 L43.0911458,26.3325521 L43.2231771,19.0382813 L41.5346354,15.8463542 C41.3208333,15.4419271 41.4598958,14.925 41.8354167,14.6778646 C42.253125,14.5018229 42.7479167,14.6721354 42.96875,15.0817708 L45.1674479,19.1583333 L46.1630208,26.6729167 L46.1731771,26.8463542 L46.2825521,27.0143229 C46.2994792,27.0440104 47.9265625,30.1380208 45.5630208,42.240625 L47.3078125,42.5802083 C49.5596354,31.0494792 48.3416667,27.20625 47.9049479,26.2859375 Z" id="Shape" fill-rule="nonzero"></path>
                    <path d="M48.8888021,41.4960938 L37.3333333,41.4960938 C36.8427083,41.4960938 36.4445312,41.8929688 36.4445312,42.3828125 L36.4445312,47.7036458 C36.4445312,48.1934896 36.8427083,48.5903646 37.3333333,48.5903646 L48.8888021,48.5903646 C49.3794271,48.5903646 49.7776042,48.1934896 49.7776042,47.7036458 L49.7776042,42.3828125 C49.7778646,41.8929688 49.3796875,41.4960938 48.8888021,41.4960938 Z M48,46.8166667 L38.2221354,46.8166667 L38.2221354,43.2695312 L48,43.2695312 L48,46.8166667 Z" id="Shape" fill-rule="nonzero"></path>
                    <path d="M12.1875,18.9539062 C11.3625,17.9143229 9.82890625,17.6760417 8.61770833,18.4023437 L6.81979167,19.4802083 L7.73567708,21.0002604 L9.53333333,19.9229167 C9.96536458,19.6638021 10.5307292,19.7234375 10.7929688,20.0544271 C10.9596354,20.2645833 11.0257812,20.5205729 10.9796875,20.7744792 C10.934375,21.0242187 10.7820312,21.2434896 10.5614583,21.3752604 L6.75442708,23.6578125 L7.6703125,25.1778646 L11.4770833,22.8953125 C12.1354167,22.5005208 12.5914062,21.84375 12.7286458,21.0927083 C12.8661458,20.3414062 12.6690104,19.5619792 12.1875,18.9539062 Z" id="Shape" fill-rule="nonzero"></path>
                    <path d="M13.5309896,23.6666667 C13.0455729,23.2760417 12.4710938,23.1395833 11.86875,23.2760417 C10.584375,23.5640625 9.39192708,25.1604167 8.64348958,26.3919271 L8.27369792,25.80625 L8.15859375,19.4630208 L9.63359375,16.6744792 C10.2934896,15.4260417 9.85885417,13.88125 8.66953125,13.1536458 L8.67161458,13.1492187 C8.66979167,13.1484375 8.66848958,13.1473958 8.66666667,13.1466146 L8.53098958,13.0742187 L8.52864583,13.078125 C7.26067708,12.496875 5.73255208,12.9958333 5.06119792,14.2421875 L2.70833333,18.6044271 L1.69114583,26.2864583 C1.25416667,27.2072917 0.0364583333,31.0505208 2.28854167,42.5807292 L4.03333333,42.2411458 C1.66979167,30.1385417 3.296875,27.0447917 3.29765625,27.0403646 L3.40703125,26.8723958 L4.42890625,19.1591146 L6.62760417,15.0825521 C6.84791667,14.6731771 7.34322917,14.5033854 7.7609375,14.6786458 C8.13645833,14.9263021 8.27552083,15.4427083 8.06145833,15.8471354 L6.3734375,19.0390625 L6.50546875,26.3333333 L8.80052083,29.9690104 L9.49817708,28.5286458 C10.1598958,27.1627604 11.4875,25.1796875 12.2591146,25.0067708 C12.3205729,24.9934896 12.3476563,24.9934896 12.3880208,25.0192708 C12.8768229,25.815625 11.1497396,30.4098958 8.69192708,34.85 L8.58177083,35.0492187 L8.56432292,42.7013021 L10.3421875,42.7057292 L10.3580729,35.5083333 C12.4583333,31.6864583 15.5320313,25.2773437 13.5309896,23.6666667 Z" id="Shape" fill-rule="nonzero"></path>
                    <path d="M12.4445312,41.4960938 L0.888802083,41.4960938 C0.398177083,41.4960938 0,41.8929688 0,42.3828125 L0,47.7036458 C0,48.1934896 0.398177083,48.5903646 0.888802083,48.5903646 L12.4442708,48.5903646 C12.9348958,48.5903646 13.3330729,48.1934896 13.3330729,47.7036458 L13.3330729,42.3828125 C13.3333333,41.8929688 12.9351562,41.4960938 12.4445312,41.4960938 Z M11.5554687,46.8166667 L1.77786458,46.8166667 L1.77786458,43.2695312 L11.5557292,43.2695312 L11.5557292,46.8166667 L11.5554687,46.8166667 Z" id="Shape" fill-rule="nonzero"></path>
                    <rect id="Rectangle-2" x="38" y="8" width="2" height="2"></rect>
                    <rect id="Rectangle-2" x="18" y="30" width="2" height="2"></rect>
                    <rect id="Rectangle-2" x="32" y="34" width="2" height="2"></rect>
                    <rect id="Rectangle-2" x="8" y="7" width="2" height="2"></rect>
                    <rect id="Rectangle-2" x="23" y="38" width="2" height="2"></rect>
                    <rect id="Rectangle-2" x="33" y="0" width="2" height="2"></rect>
                </g>
            </g>
        </g>
    </g>
</svg>
