<?xml version="1.0" encoding="UTF-8"?>
<svg width="36px" height="55px" viewBox="0 0 36 55" version="1.1" xmlns="http://www.w3.org/2000/svg" xmlns:xlink="http://www.w3.org/1999/xlink">
    <!-- Generator: sketchtool 50.2 (55047) - http://www.bohemiancoding.com/sketch -->
    <title>CAC1C6E6-5763-47CB-AED9-75AB8CF73DB8</title>
    <desc>Created with sketchtool.</desc>
    <defs>
      .mat-icon-svg{
        fill: #FFFFFF;
      }
    </defs>
    <g id="Actividades-Iconos" stroke="none" stroke-width="1" fill="none" fill-rule="evenodd">
        <g id="iconos_actividades" transform="translate(-978.000000, -29.000000)" class="mat-icon-svg" fill-rule="nonzero">
            <g id="bajar_planta" transform="translate(978.000000, 29.000000)">
                <path d="M18.4583333,55 L18.4583333,45.6230953 L22.2916667,45.6230953 C25.9947865,45.6189929 28.9958073,42.6826152 29,39.059262 L29,38.1215716 L25.1666667,38.1215716 C21.4635469,38.125674 18.462526,41.0620517 18.4583333,44.6854048 L18.4583333,36.2461906 L22.2916667,36.2461906 C25.9947865,36.2420882 28.9958073,33.3057105 29,29.6823574 L29,28.7446669 L25.1666667,28.7446669 C21.4635469,28.7487693 18.462526,31.685147 18.4583333,35.3085002 L18.4583333,28.0286933 L19.3582083,27.148202 C21.9911094,24.5720146 21.9911094,20.3953069 19.3582083,17.8191195 C19.3582083,17.8191195 18.7388056,17.2127463 17.5,16 L15.6417917,17.8181818 C13.0088906,20.3943692 13.0088906,24.5710769 15.6417917,27.1472643 C15.6417917,27.1472643 15.94175,27.4407614 16.5416667,28.0277556 L16.5416667,35.3085002 C16.537474,31.685147 13.5364531,28.7487693 9.83333333,28.7446669 L6,28.7446669 L6,29.6823574 C6.00419271,33.3057105 9.00521354,36.2420882 12.7083333,36.2461906 L16.5416667,36.2461906 L16.5416667,44.6854048 C16.537474,41.0620517 13.5364531,38.125674 9.83333333,38.1215716 L6,38.1215716 L6,39.059262 C6.00419271,42.6826152 9.00521354,45.6189929 12.7083333,45.6230953 L16.5416667,45.6230953 L16.5416667,55 L18.4583333,55 Z M25.1666667,39.9969525 L26.9875,39.9969525 C26.5290573,42.1783722 24.5678281,43.7449013 22.2916667,43.7477144 L20.4708333,43.7477144 C20.929276,41.5662947 22.8905052,39.9997656 25.1666667,39.9969525 Z M25.1666667,30.6200478 L26.9875,30.6200478 C26.5290573,32.8014675 24.5678281,34.3679966 22.2916667,34.3708097 L20.4708333,34.3708097 C20.929276,32.18939 22.8905052,30.6228609 25.1666667,30.6200478 Z M12.7083333,34.3708097 C10.4321719,34.3679966 8.47094271,32.8014675 8.0125,30.6200478 L9.83333333,30.6200478 C12.1094948,30.6228609 14.070724,32.18939 14.5291667,34.3708097 L12.7083333,34.3708097 Z M12.7083333,43.7477144 C10.4321719,43.7449013 8.47094271,42.1783722 8.0125,39.9969525 L9.83333333,39.9969525 C12.1094948,39.9997656 14.070724,41.5662947 14.5291667,43.7477144 L12.7083333,43.7477144 Z M17.5,26.3145952 L16.996875,25.8223077 C16.0886146,24.938886 15.5795,23.736298 15.5833333,22.4831919 C15.5795,21.2300858 16.0886146,20.0274978 16.996875,19.1440761 L17.5,18.6517886 L18.003125,19.1440761 C19.8872083,20.9881617 19.8872083,23.9772844 18.003125,25.82137 L17.5,26.3145952 Z" id="Shape"></path>
                <path d="M22.4983985,6 L14.3954422,6 L11.7912782,6 C11.7912782,6 11,6 11,6.9044784 C11,7.80895679 11.7912782,7.80895679 11.7912782,7.80895679 L14.3954422,7.80895679 L22.4983985,7.80895679 C23.0515329,7.80895679 23.5,7.40397659 23.5,6.9044784 C23.5,6.4049802 23.0515329,6 22.4983985,6 Z" id="Shape" transform="translate(17.250000, 6.904478) rotate(-270.000000) translate(-17.250000, -6.904478) "></path>
                <path d="M19.4983985,11 L1.39544219,11 L-1.20872176,11 C-1.20872176,11 -2,11 -2,11.9044784 C-2,12.8089568 -1.20872176,12.8089568 -1.20872176,12.8089568 L1.39544219,12.8089568 L19.4983985,12.8089568 C20.0515329,12.8089568 20.5,12.4039766 20.5,11.9044784 C20.5,11.4049802 20.0515329,11 19.4983985,11 Z" id="Shape" transform="translate(9.250000, 11.904478) rotate(-270.000000) translate(-9.250000, -11.904478) "></path>
                <path d="M26.9983985,26.5 L-22.1045578,26.5 L-24.7087218,26.5 C-24.7087218,26.5 -25.5,26.5 -25.5,27.4044784 C-25.5,28.3089568 -24.7087218,28.3089568 -24.7087218,28.3089568 L-22.1045578,28.3089568 L26.9983985,28.3089568 C27.5515329,28.3089568 28,27.9039766 28,27.4044784 C28,26.9049802 27.5515329,26.5 26.9983985,26.5 Z" id="Shape" transform="translate(1.250000, 27.404478) rotate(-270.000000) translate(-1.250000, -27.404478) "></path>
                <path d="M36.4983985,11 L18.3954422,11 L15.7912782,11 C15.7912782,11 15,11 15,11.9044784 C15,12.8089568 15.7912782,12.8089568 15.7912782,12.8089568 L18.3954422,12.8089568 L36.4983985,12.8089568 C37.0515329,12.8089568 37.5,12.4039766 37.5,11.9044784 C37.5,11.4049802 37.0515329,11 36.4983985,11 Z" id="Shape" transform="translate(26.250000, 11.904478) rotate(-270.000000) translate(-26.250000, -11.904478) "></path>
                <path d="M59.9983985,26.5 L10.8954422,26.5 L8.29127824,26.5 C8.29127824,26.5 7.5,26.5 7.5,27.4044784 C7.5,28.3089568 8.29127824,28.3089568 8.29127824,28.3089568 L10.8954422,28.3089568 L59.9983985,28.3089568 C60.5515329,28.3089568 61,27.9039766 61,27.4044784 C61,26.9049802 60.5515329,26.5 59.9983985,26.5 Z" id="Shape" transform="translate(34.250000, 27.404478) rotate(-270.000000) translate(-34.250000, -27.404478) "></path>
            </g>
        </g>
    </g>
</svg>
