<?xml version="1.0" encoding="UTF-8"?>
<svg width="41px" height="56px" viewBox="0 0 41 56" version="1.1" xmlns="http://www.w3.org/2000/svg" xmlns:xlink="http://www.w3.org/1999/xlink">
    <!-- Generator: sketchtool 50.2 (55047) - http://www.bohemiancoding.com/sketch -->
    <title>71BD2B85-87D5-4289-BA0D-FBF5D03FEC52</title>
    <desc>Created with sketchtool.</desc>
    <defs>
      .mat-icon-svg{
        fill: #FFFFFF;
      }
    </defs>
    <g id="Actividades-Iconos" stroke="none" stroke-width="1" fill="none" fill-rule="evenodd">
        <g id="iconos_actividades" transform="translate(-252.000000, -142.000000)" class="mat-icon-svg" fill-rule="nonzero">
            <g id="Group-15" transform="translate(183.000000, 114.000000)">
                <g id="barrer_canaleta" transform="translate(69.000000, 28.000000)">
                    <path d="M29.6570767,41.6266667 L29.6570767,36.4 C29.6570767,36.0246056 29.4628733,35.6756167 29.14321,35.4766222 L20.91041,30.3512222 L20.91041,3.26666667 C20.91041,1.46251389 19.4419267,0 17.63041,0 C15.8188933,0 14.35041,1.46251389 14.35041,3.26666667 L14.35041,30.3512222 L6.11761,35.4766222 C5.79794667,35.6756167 5.60374333,36.0246056 5.60374333,36.4 L5.60374333,41.8444444 C5.61071333,41.9153583 5.62506333,41.9854556 5.64638333,42.0535111 L0.227823333,54.4755556 C-0.0136666667,55.0266694 0.239166667,55.6685694 0.79253,55.9090778 C0.9307,55.9691028 1.07966667,56 1.23041,56 L34.03041,56 C34.6342033,56 35.1237433,55.5125861 35.12388,54.9112472 C35.12388,54.7672417 35.0953167,54.6247333 35.0395567,54.4918889 L29.6570767,41.6266667 Z M16.5370767,3.26666667 C16.5370767,2.66532778 17.0266167,2.17777778 17.63041,2.17777778 C18.2342033,2.17777778 18.7237433,2.66532778 18.7237433,3.26666667 L18.7237433,25.5111111 L16.5370767,25.5111111 L16.5370767,3.26666667 Z M16.5370767,27.6888889 L18.7237433,27.6888889 L18.7237433,29.8666667 L16.5370767,29.8666667 L16.5370767,27.6888889 Z M7.79041,37.0032444 L15.75753,32.0444444 L19.50329,32.0444444 L27.47041,37.0032444 L27.47041,40.7555556 L7.79041,40.7555556 L7.79041,37.0032444 Z M29.3509433,53.8222222 L27.4135567,48.0336889 C27.22277,47.4624306 26.6029867,47.1533222 26.0293967,47.3433333 C25.4558067,47.5333444 25.1454367,48.1506083 25.3362233,48.7218667 L27.04729,53.8222222 L23.8842767,53.8222222 L21.94689,48.0336889 C21.7561033,47.4624306 21.13632,47.1533222 20.56273,47.3433333 C19.98914,47.5333444 19.67877,48.1506083 19.8695567,48.7218667 L21.5806233,53.8222222 L13.6801967,53.8222222 L15.38689,48.7218667 C15.5776767,48.1506083 15.2673067,47.5333444 14.6937167,47.3433333 C14.1201267,47.1533222 13.5003433,47.4624306 13.3095567,48.0336889 L11.3765433,53.8222222 L8.21353,53.8222222 L9.92022333,48.7218667 C10.11101,48.1506083 9.80064,47.5333444 9.22705,47.3433333 C8.65346,47.1533222 8.03367667,47.4624306 7.84289,48.0336889 L5.90987667,53.8222222 L2.89665,53.8222222 L7.64609,42.9333333 L27.83449,42.9333333 L32.39041,53.8222222 L29.3509433,53.8222222 Z" id="Shape"></path>
                    <path d="M27.47041,28.7777778 L28.5637433,28.7777778 L28.5637433,29.8666667 C28.5637433,30.4680056 29.0532833,30.9555556 29.6570767,30.9555556 C30.26087,30.9555556 30.75041,30.4680056 30.75041,29.8666667 L30.75041,28.7777778 L31.8437433,28.7777778 C32.4475367,28.7777778 32.9370767,28.2902278 32.9370767,27.6888889 C32.9370767,27.08755 32.4475367,26.6 31.8437433,26.6 L30.75041,26.6 L30.75041,25.5111111 C30.75041,24.9097722 30.26087,24.4222222 29.6570767,24.4222222 C29.0532833,24.4222222 28.5637433,24.9097722 28.5637433,25.5111111 L28.5637433,26.6 L27.47041,26.6 C26.8666167,26.6 26.3770767,27.08755 26.3770767,27.6888889 C26.3770767,28.2902278 26.8666167,28.7777778 27.47041,28.7777778 Z" id="Shape"></path>
                    <path d="M39.4970767,32.0444444 L38.4037433,32.0444444 L38.4037433,30.9555556 C38.4037433,30.3542167 37.9142033,29.8666667 37.31041,29.8666667 C36.7066167,29.8666667 36.2170767,30.3542167 36.2170767,30.9555556 L36.2170767,32.0444444 L35.1237433,32.0444444 C34.51995,32.0444444 34.03041,32.5319944 34.03041,33.1333333 C34.03041,33.7346722 34.51995,34.2222222 35.1237433,34.2222222 L36.2170767,34.2222222 L36.2170767,35.3111111 C36.2170767,35.91245 36.7066167,36.4 37.31041,36.4 C37.9142033,36.4 38.4037433,35.91245 38.4037433,35.3111111 L38.4037433,34.2222222 L39.4970767,34.2222222 C40.10087,34.2222222 40.59041,33.7346722 40.59041,33.1333333 C40.59041,32.5319944 40.10087,32.0444444 39.4970767,32.0444444 Z" id="Shape"></path>
                    <path d="M20.91041,36.4 L14.35041,36.4 C13.7466167,36.4 13.2570767,36.88755 13.2570767,37.4888889 C13.2570767,38.0902278 13.7466167,38.5777778 14.35041,38.5777778 L20.91041,38.5777778 C21.5142033,38.5777778 22.0037433,38.0902278 22.0037433,37.4888889 C22.0037433,36.88755 21.5142033,36.4 20.91041,36.4 Z" id="Shape"></path>
                </g>
            </g>
        </g>
    </g>
</svg>
