<?xml version="1.0" encoding="UTF-8"?>
<svg width="42px" height="54px" viewBox="0 0 42 54" version="1.1" xmlns="http://www.w3.org/2000/svg" xmlns:xlink="http://www.w3.org/1999/xlink">
    <!-- Generator: sketchtool 50.2 (55047) - http://www.bohemiancoding.com/sketch -->
    <title>EC0E0A3F-01B5-4B4D-891D-26BD492A6169</title>
    <desc>Created with sketchtool.</desc>
    <defs>
      .mat-icon-svg{
        fill: #FFFFFF;
      }
    </defs>
    <g id="Actividades-Iconos" stroke="none" stroke-width="1" fill="none" fill-rule="evenodd">
        <g id="iconos_actividades" transform="translate(-794.000000, -143.000000)" class="mat-icon-svg" fill-rule="nonzero">
            <g id="Group-18" transform="translate(725.000000, 114.000000)">
                <g id="capar_planta" transform="translate(90.000000, 56.000000) rotate(-180.000000) translate(-90.000000, -56.000000) translate(69.000000, 29.000000)">
                    <path d="M25.2898389,3.77335028 L19.5964914,0.343207693 C19.2243515,0.11882392 18.8012873,0 18.3722166,0 L13.1418893,0 C12.5180002,0 11.9228376,0.245661545 11.4686965,0.690836741 C0,11.9114071 0,12.6594451 0,13.2052061 C0,14.1616005 0.780840752,14.8850448 4.77200771,15.7538411 C5.26897759,15.8618879 5.73330363,15.8624406 6.19423471,15.7563281 L6.19475701,15.7557754 C6.87923314,15.5977119 7.52819276,15.207251 8.17689123,14.5631148 L12.1314971,11.9876755 C12.8749933,11.5043661 13.8313273,11.7287499 14.310539,12.4961313 L15.6499812,14.6443572 C16.0975936,15.3622748 16.6420929,16.0053056 17.2696382,16.5568697 L20.2104568,19.1403228 C20.8615056,19.7123356 21.6561874,20 22.4532195,20 C23.1899257,20 23.9289824,19.7537858 24.5560053,19.257765 L26.2404277,17.9263844 L34,18.0286283 L34,3.77335028 L25.2898389,3.77335028 Z M32.2100727,16.1183265 L25.6538831,16.0315574 L23.4818923,17.7492539 C22.8431175,18.2532884 21.9674791,18.2292473 21.3550805,17.6917763 L18.4147842,15.1083232 C17.9232985,14.6758594 17.4952724,14.1707196 17.1445469,13.6086548 L15.8051047,11.4604289 C15.1517055,10.4131204 14.0794206,9.8438709 12.9789313,9.8438709 C12.3691443,9.8438709 11.7510004,10.0182381 11.1903098,10.3843816 L7.15579179,13.0117719 L7.0030186,13.1372278 C6.57655942,13.5730076 6.18640019,13.8272355 5.81086541,13.9145573 C5.59698294,13.9631922 5.38127242,13.9618105 5.13291805,13.9073726 C3.40148856,13.5304521 2.51044219,13.2201282 2.06518016,13.0236543 C3.26777937,11.5121035 7.38142604,7.26373383 12.685659,2.07416823 C12.8081387,1.95396264 12.9705745,1.88736598 13.1411059,1.88736598 L18.3714332,1.88736598 C18.4892122,1.88736598 18.604902,1.9194208 18.7070119,1.98131977 L24.8142834,5.66043992 L32.2098116,5.66043992 L32.2098116,16.1183265 L32.2100727,16.1183265 Z" id="Shape"></path>
                    <path d="M33,3 L33,20 C33,20.5522847 33.4477153,21 34,21 L41,21 C41.5522847,21 42,20.5522847 42,20 L42,3 C42,2.44771525 41.5522847,2 41,2 L34,2 C33.4477153,2 33,2.44771525 33,3 Z M40.2000525,19.1906529 L34.7999475,19.1906529 L34.7999475,3.80961217 L40.2000525,3.80961217 L40.2000525,19.1906529 Z" id="Shape"></path>
                    <path d="M13.4583333,54 L13.4583333,44.6230953 L17.2916667,44.6230953 C20.9947865,44.6189929 23.9958073,41.6826152 24,38.059262 L24,37.1215716 L20.1666667,37.1215716 C16.4635469,37.125674 13.462526,40.0620517 13.4583333,43.6854048 L13.4583333,35.2461906 L17.2916667,35.2461906 C20.9947865,35.2420882 23.9958073,32.3057105 24,28.6823574 L24,27.7446669 L20.1666667,27.7446669 C16.4635469,27.7487693 13.462526,30.685147 13.4583333,34.3085002 L13.4583333,27.0286933 L14.3582083,26.148202 C16.9911094,23.5720146 16.9911094,19.3953069 14.3582083,16.8191195 C14.3582083,16.8191195 13.7388056,16.2127463 12.5,15 L10.6417917,16.8181818 C8.00889063,19.3943692 8.00889063,23.5710769 10.6417917,26.1472643 C10.6417917,26.1472643 10.94175,26.4407614 11.5416667,27.0277556 L11.5416667,34.3085002 C11.537474,30.685147 8.53645312,27.7487693 4.83333333,27.7446669 L1,27.7446669 L1,28.6823574 C1.00419271,32.3057105 4.00521354,35.2420882 7.70833333,35.2461906 L11.5416667,35.2461906 L11.5416667,43.6854048 C11.537474,40.0620517 8.53645312,37.125674 4.83333333,37.1215716 L1,37.1215716 L1,38.059262 C1.00419271,41.6826152 4.00521354,44.6189929 7.70833333,44.6230953 L11.5416667,44.6230953 L11.5416667,54 L13.4583333,54 Z M20.1666667,38.9969525 L21.9875,38.9969525 C21.5290573,41.1783722 19.5678281,42.7449013 17.2916667,42.7477144 L15.4708333,42.7477144 C15.929276,40.5662947 17.8905052,38.9997656 20.1666667,38.9969525 Z M20.1666667,29.6200478 L21.9875,29.6200478 C21.5290573,31.8014675 19.5678281,33.3679966 17.2916667,33.3708097 L15.4708333,33.3708097 C15.929276,31.18939 17.8905052,29.6228609 20.1666667,29.6200478 Z M7.70833333,33.3708097 C5.43217188,33.3679966 3.47094271,31.8014675 3.0125,29.6200478 L4.83333333,29.6200478 C7.10949479,29.6228609 9.07072396,31.18939 9.52916667,33.3708097 L7.70833333,33.3708097 Z M7.70833333,42.7477144 C5.43217188,42.7449013 3.47094271,41.1783722 3.0125,38.9969525 L4.83333333,38.9969525 C7.10949479,38.9997656 9.07072396,40.5662947 9.52916667,42.7477144 L7.70833333,42.7477144 Z M12.5,25.3145952 L11.996875,24.8223077 C11.0886146,23.938886 10.5795,22.736298 10.5833333,21.4831919 C10.5795,20.2300858 11.0886146,19.0274978 11.996875,18.1440761 L12.5,17.6517886 L13.003125,18.1440761 C14.8872083,19.9881617 14.8872083,22.9772844 13.003125,24.82137 L12.5,25.3145952 Z" id="Shape" transform="translate(12.500000, 34.500000) rotate(-180.000000) translate(-12.500000, -34.500000) "></path>
                </g>
            </g>
        </g>
    </g>
</svg>
