<?xml version="1.0" encoding="UTF-8"?>
<svg width="53px" height="41px" viewBox="0 0 53 41" version="1.1" xmlns="http://www.w3.org/2000/svg" xmlns:xlink="http://www.w3.org/1999/xlink">
    <!-- Generator: sketchtool 50.2 (55047) - http://www.bohemiancoding.com/sketch -->
    <title>415C8333-DD3A-45AC-B0BB-2EEFDE59FF46</title>
    <desc>Created with sketchtool.</desc>
    <defs>
      .mat-icon-svg{
        fill: #FFFFFF;
      }
    </defs>
    <g id="Actividades-Iconos" stroke="none" stroke-width="1" fill="none" fill-rule="evenodd">
        <g id="iconos_actividades" transform="translate(-608.000000, -150.000000)" class="mat-icon-svg">
            <g id="Group-7" transform="translate(545.000000, 114.000000)">
                <g id="capar_broto" transform="translate(63.000000, 36.000000)">
                    <path d="M36.2898389,3.77335028 L30.5964914,0.343207693 C30.2243515,0.11882392 29.8012873,0 29.3722166,0 L24.1418893,0 C23.5180002,0 22.9228376,0.245661545 22.4686965,0.690836741 C11,11.9114071 11,12.6594451 11,13.2052061 C11,14.1616005 11.7808408,14.8850448 15.7720077,15.7538411 C16.2689776,15.8618879 16.7333036,15.8624406 17.1942347,15.7563281 L17.194757,15.7557754 C17.8792331,15.5977119 18.5281928,15.207251 19.1768912,14.5631148 L23.1314971,11.9876755 C23.8749933,11.5043661 24.8313273,11.7287499 25.310539,12.4961313 L26.6499812,14.6443572 C27.0975936,15.3622748 27.6420929,16.0053056 28.2696382,16.5568697 L31.2104568,19.1403228 C31.8615056,19.7123356 32.6561874,20 33.4532195,20 C34.1899257,20 34.9289824,19.7537858 35.5560053,19.257765 L37.2404277,17.9263844 L45,18.0286283 L45,3.77335028 L36.2898389,3.77335028 Z M43.2100727,16.1183265 L36.6538831,16.0315574 L34.4818923,17.7492539 C33.8431175,18.2532884 32.9674791,18.2292473 32.3550805,17.6917763 L29.4147842,15.1083232 C28.9232985,14.6758594 28.4952724,14.1707196 28.1445469,13.6086548 L26.8051047,11.4604289 C26.1517055,10.4131204 25.0794206,9.8438709 23.9789313,9.8438709 C23.3691443,9.8438709 22.7510004,10.0182381 22.1903098,10.3843816 L18.1557918,13.0117719 L18.0030186,13.1372278 C17.5765594,13.5730076 17.1864002,13.8272355 16.8108654,13.9145573 C16.5969829,13.9631922 16.3812724,13.9618105 16.1329181,13.9073726 C14.4014886,13.5304521 13.5104422,13.2201282 13.0651802,13.0236543 C14.2677794,11.5121035 18.381426,7.26373383 23.685659,2.07416823 C23.8081387,1.95396264 23.9705745,1.88736598 24.1411059,1.88736598 L29.3714332,1.88736598 C29.4892122,1.88736598 29.604902,1.9194208 29.7070119,1.98131977 L35.8142834,5.66043992 L43.2098116,5.66043992 L43.2098116,16.1183265 L43.2100727,16.1183265 Z" id="Shape" fill-rule="nonzero"></path>
                    <path d="M44,3 L44,20 C44,20.5522847 44.4477153,21 45,21 L52,21 C52.5522847,21 53,20.5522847 53,20 L53,3 C53,2.44771525 52.5522847,2 52,2 L45,2 C44.4477153,2 44,2.44771525 44,3 Z M51.2000525,19.1906529 L45.7999475,19.1906529 L45.7999475,3.80961217 L51.2000525,3.80961217 L51.2000525,19.1906529 Z" id="Shape" fill-rule="nonzero"></path>
                    <rect id="Rectangle" transform="translate(2.000000, 38.000000) scale(-1, 1) translate(-2.000000, -38.000000) " x="1" y="37" width="2" height="2"></rect>
                    <rect id="Rectangle" transform="translate(17.000000, 36.000000) scale(-1, 1) translate(-17.000000, -36.000000) " x="16" y="35" width="2" height="2"></rect>
                    <rect id="Rectangle" transform="translate(8.000000, 35.000000) scale(-1, 1) translate(-8.000000, -35.000000) " x="7" y="34" width="2" height="2"></rect>
                    <rect id="Rectangle" transform="translate(12.000000, 40.000000) scale(-1, 1) translate(-12.000000, -40.000000) " x="11" y="39" width="2" height="2"></rect>
                    <rect id="Rectangle" transform="translate(1.000000, 23.000000) scale(-1, 1) translate(-1.000000, -23.000000) " x="0" y="22" width="2" height="2"></rect>
                    <path d="M24.9391759,20.4090909 L26,20.4090909 L26,22.5 L24.9391759,22.5 C23.5240365,22.5 22.1258703,22.6097727 20.7531638,22.8178182 C22.6414308,24.1465909 23.8783517,26.318 23.8783517,28.7727273 L23.8783517,34 L22.8175276,34 C18.7238073,34 15.3917587,30.7172727 15.3917587,26.6818182 L15.3917587,24.2030455 C11.8539102,25.513 8.60566673,27.5537273 5.84434151,30.2541364 C5.33078629,30.7537555 4.82959502,30.7537555 4.3407677,30.2541364 C3.85194039,29.7545172 3.88902591,29.2607142 4.45202426,28.7727273 L5.84434151,27.4136364 C8.08480208,25.5025455 10.5713738,23.9584091 13.2329816,22.8115455 C10.7485315,21.6270455 9.02681391,19.1252727 9.02681391,16.2272727 L9.02681391,11 L10.087638,11 C12.7906179,11 15.1530733,12.4354091 16.4525828,14.5681364 C17.7520924,12.4354091 20.1145477,11 22.8175276,11 L23.8783517,11 L23.8783517,16.2272727 C23.8783517,17.831 23.345818,19.3113636 22.4547258,20.5178182 C23.2768645,20.4498636 24.1043073,20.4090909 24.9391759,20.4090909 Z M15.3917587,21.3489545 L15.3917587,18.3181818 C15.3917587,15.7944545 13.5660804,13.6815909 11.1484622,13.1965 L11.1484622,16.2272727 C11.1484622,18.7520455 12.9741405,20.8638636 15.3917587,21.3489545 Z M21.7567035,28.7727273 C21.7567035,26.2479545 19.9310251,24.1361364 17.513407,23.6510455 L17.513407,26.6818182 C17.513407,29.2055455 19.3390853,31.3184091 21.7567035,31.8035 L21.7567035,28.7727273 Z M21.7567035,16.2272727 L21.7567035,13.1965 C19.3390853,13.6815909 17.513407,15.7934091 17.513407,18.3181818 L17.513407,21.3479091 C17.5473533,21.3395455 17.5802389,21.3290909 17.6131244,21.3207273 C19.9798231,20.7959091 21.7567035,18.7154545 21.7567035,16.2272727 Z" id="Combined-Shape" transform="translate(15.000000, 22.500000) scale(-1, 1) rotate(78.000000) translate(-15.000000, -22.500000) "></path>
                </g>
            </g>
        </g>
    </g>
</svg>
