<?xml version="1.0" encoding="UTF-8"?>
<svg width="15px" height="18px" viewBox="0 0 15 18" version="1.1" xmlns="http://www.w3.org/2000/svg" xmlns:xlink="http://www.w3.org/1999/xlink">
    <!-- Generator: sketchtool 50.2 (55047) - http://www.bohemiancoding.com/sketch -->
    <title>A292B09A-3B58-491D-BF48-CFFAD3EC3BFF</title>
    <desc>Created with sketchtool.</desc>
    <defs></defs>
    <g id="Inicio-de-sesión/-Cerrar-sesión" stroke="none" stroke-width="1" fill="none" fill-rule="evenodd" opacity="0.8">
        <g id="menu_colapsado" transform="translate(-18.000000, -466.000000)" fill="#FFFFFF" fill-rule="nonzero">
            <g id="notificaciones" transform="translate(18.000000, 466.000000)">
                <path d="M7.33380702,18 C8.61740088,18 9.66761404,17.1692308 9.66761404,16.1538462 L5,16.1538462 C5,17.1692308 6.03854412,18 7.33380702,18 Z M12.9425183,12.4615385 L12.9425183,7.84615385 C12.9425183,5.01230769 11.4263947,2.64 8.78242313,2.01230769 L8.78242313,1.38461538 C8.78242313,0.618461538 8.16303118,0 7.39572474,0 C6.6284183,0 6.00902635,0.618461538 6.00902635,1.38461538 L6.00902635,2.01230769 C3.3558101,2.64 1.84893118,5.00307692 1.84893118,7.84615385 L1.84893118,12.4615385 L0,14.3076923 L0,15.2307692 L14.7914495,15.2307692 L14.7914495,14.3076923 L12.9425183,12.4615385 Z" id="Shape"></path>
            </g>
        </g>
    </g>
</svg>
