<?xml version="1.0" encoding="UTF-8"?>
<svg width="20px" height="19px" viewBox="0 0 20 19" version="1.1" xmlns="http://www.w3.org/2000/svg" xmlns:xlink="http://www.w3.org/1999/xlink">
    <!-- Generator: sketchtool 50.2 (55047) - http://www.bohemiancoding.com/sketch -->
    <title>2298EE56-91F5-4CE3-B7F5-B9D65561DCC3</title>
    <desc>Created with sketchtool.</desc>
    <defs>
      .mat-icon-svg{
        fill: #FFFFFF;
      }
    </defs>
    <g id="Inicio-de-sesión/-Cerrar-sesión" stroke="none" stroke-width="1" fill="none" fill-rule="evenodd">
        <g id="menu_colapsado" transform="translate(-16.000000, -266.000000)" class="mat-icon-svg" fill-rule="nonzero">
            <g id="open-folder-with-document" transform="translate(16.000000, 266.000000)">
                <path d="M19.8709275,11.4412142 L16.3378415,18.1278921 C16.1649916,18.460371 15.6750084,18.8120405 15.2966273,18.8120405 L1.12812816,18.8146374 C0.828802698,18.8146374 0.541821248,18.6959865 0.330320405,18.484317 C0.118819562,18.2726138 0,17.9859359 0,17.6865093 L0.00229342327,6.68451939 C0.00229342327,6.06232715 0.506677909,5.55747049 1.12893761,5.55686341 L2.16485666,5.55588533 L2.16485666,6.51696459 L1.47180438,6.51696459 C1.33615514,6.51696459 1.20586847,6.57079258 1.10988196,6.66677909 C1.01399663,6.7627656 0.960067454,6.8929511 0.960067454,7.02870152 L0.961079258,17.342226 C0.961079258,17.6251265 1.1903204,17.8539629 1.47291737,17.8539629 L2.18269815,17.8539629 L5.53109612,11.0804047 C5.72026981,10.7020236 6.0777403,10.3962226 6.45558179,10.3962226 L14.6559191,10.3962226 L14.6587184,7.6703204 C15.1941653,7.71996627 15.6167622,8.16411467 15.6167622,8.71224283 L15.6167622,10.3962563 L19.3777403,10.3962563 C19.8218887,10.4008094 20.1958853,10.84 19.8709275,11.4412142 Z M2.81814503,14.4442496 C2.78755481,11.0726138 2.81814503,0.957436762 2.81814503,0.957436762 C2.81814503,0.447082631 3.23318718,0.0323440135 3.74303541,0.0323440135 L11.1499157,0.0323440135 C11.2685666,0.0323440135 11.3817538,0.081989882 11.4619224,0.1693086 L13.8565261,2.77102867 C13.9282968,2.84937605 13.9685329,2.95193929 13.9685329,3.05821248 L13.9685329,9.79814503 L5.56994196,9.79814503 L3.59527825,13.5961889 L3.00080944,14.798887 C3.00084317,14.7986847 2.82121417,14.7855312 2.81814503,14.4442496 Z M11.5544013,2.67055649 L12.7082631,2.67055649 L11.5544013,1.41632378 L11.5544013,2.67055649 Z M11.9752108,4.23834739 L4.81662732,4.23834739 C4.55288364,4.23834739 4.33878583,4.45264755 4.33878583,4.71639123 C4.33878583,4.97993255 4.553086,5.1943339 4.81662732,5.1943339 L11.9754132,5.1943339 C12.2391568,5.1943339 12.4538954,4.97976391 12.4538954,4.71639123 C12.453457,4.45284992 12.2387858,4.23834739 11.9752108,4.23834739 Z M12.453457,7.50003373 C12.453457,7.23649241 12.2389882,7.0223946 11.9752108,7.0223946 L4.81662732,7.0223946 C4.55288364,7.0223946 4.33878583,7.23689713 4.33878583,7.50003373 C4.33878583,7.76357504 4.553086,7.97767285 4.81662732,7.97767285 L11.9754132,7.97767285 C12.2387858,7.97770658 12.453457,7.76357504 12.453457,7.50003373 Z" id="Shape"></path>
            </g>
        </g>
    </g>
</svg>
