<?xml version="1.0" encoding="UTF-8"?>
<svg width="13px" height="20px" viewBox="0 0 13 20" version="1.1" xmlns="http://www.w3.org/2000/svg" xmlns:xlink="http://www.w3.org/1999/xlink">
    <!-- Generator: sketchtool 50.2 (55047) - http://www.bohemiancoding.com/sketch -->
    <title>FB499423-66D6-4960-AE0C-B6DCEEB6CB8B</title>
    <desc>Created with sketchtool.</desc>
    <defs>
      .mat-icon-svg{
        fill: #FFFFFF;
      }
    </defs>
    <g id="Inicio-de-sesión/-Cerrar-sesión" stroke="none" stroke-width="1" fill-rule="evenodd">
        <g id="menu_colapsado" transform="translate(-19.000000, -215.000000)" class="mat-icon-svg" fill-rule="nonzero">
            <g id="rendimiento" transform="translate(19.000000, 215.000000)">
                <path d="M6.92935167,8.00943026 C7.4794499,7.48825147 8.81540275,6.04165029 8.81540275,4.27127701 C8.81540275,2.08911591 6.78601179,0.398585462 6.69925344,0.327544204 L6.30066798,0 L5.90208251,0.327544204 C5.81532417,0.398585462 3.7859332,2.08911591 3.7859332,4.27127701 C3.7859332,6.04165029 5.12188605,7.48825147 5.67198428,8.00943026 L5.67198428,13.0728487 L2.52856582,13.0728487 L2.52856582,18.1023183 C2.52856582,19.1439686 3.3729666,19.9883694 4.4146169,19.9883694 L8.18671906,19.9883694 C9.22836935,19.9883694 10.0727701,19.1439686 10.0727701,18.1023183 L10.0727701,13.0728487 L6.92935167,13.0728487 L6.92935167,8.00943026 Z" id="Shape"></path>
                <path d="M12.5717878,7.36565815 L12.5214931,6.85202358 L12.0078585,6.80172888 C11.9198428,6.79292731 9.83701375,6.60306483 8.60605108,7.8340275 C7.37508841,9.06499018 7.56495088,11.1478193 7.57375246,11.235835 L7.62404715,11.7494695 L8.13768173,11.7997642 C8.15968566,11.7997642 8.30365422,11.8154813 8.52746562,11.8154813 C9.62777996,11.8588605 10.7037721,11.4844794 11.5394892,10.7674656 C12.7704519,9.53650295 12.5805894,7.45367387 12.5717878,7.36565815 Z" id="Shape"></path>
                <path d="M4.07387033,11.8154813 C4.29705305,11.8154813 4.44165029,11.802279 4.46365422,11.7997642 L4.9772888,11.7494695 L5.0275835,11.235835 C5.03638507,11.1478193 5.22624754,9.06499018 3.99528487,7.8340275 C2.7643222,6.60306483 0.68086444,6.79229862 0.593477407,6.80172888 L0.0798428291,6.85202358 L0.0295481336,7.36565815 C0.0207465619,7.45367387 -0.169115914,9.53650295 1.06184676,10.7674656 C1.89740668,11.4847544 2.9735167,11.8591749 4.07387033,11.8154813 Z" id="Shape"></path>
                <rect id="Rectangle-path" x="1.27119843" y="1.75654224" width="1.25736739" height="1.25736739"></rect>
                <rect id="Rectangle-path" x="1.27119843" y="4.27127701" width="1.25736739" height="1.25736739"></rect>
                <rect id="Rectangle-path" x="10.0727701" y="1.75654224" width="1.25736739" height="1.25736739"></rect>
                <rect id="Rectangle-path" x="10.0727701" y="4.27127701" width="1.25736739" height="1.25736739"></rect>
            </g>
        </g>
    </g>
</svg>
