<?xml version="1.0" encoding="UTF-8"?>
<svg width="19px" height="19px" viewBox="0 0 19 19" version="1.1" xmlns="http://www.w3.org/2000/svg" xmlns:xlink="http://www.w3.org/1999/xlink">
    <!-- Generator: sketchtool 50.2 (55047) - http://www.bohemiancoding.com/sketch -->
    <title>7757B35B-3A75-48F9-9821-C9FB751516FB</title>
    <desc>Created with sketchtool.</desc>
    <defs></defs>
    <g id="Inicio-de-sesión/-Cerrar-sesión" stroke="none" stroke-width="1" fill="none" fill-rule="evenodd" opacity="0.8">
        <g id="menu_colapsado" transform="translate(-16.000000, -416.000000)">
            <g id="spam" transform="translate(16.000000, 416.000000)">
                <rect id="Background" x="0" y="0" width="19" height="19"></rect>
                <path d="M9.49989583,14.7991042 C8.78389583,14.7991042 8.19989583,14.2191042 8.19989583,13.5001042 C8.19989583,12.7831042 8.78389583,12.2011042 9.49989583,12.2011042 C10.2168958,12.2011042 10.7998958,12.7831042 10.7998958,13.5001042 C10.7998958,14.2191042 10.2168958,14.7991042 9.49989583,14.7991042 L9.49989583,14.7991042 Z M8.49889583,4.50010417 L10.4988958,4.50010417 L10.4988958,10.4991042 L8.49889583,10.4991042 L8.49889583,4.50010417 Z M13.2278958,0.500104167 L5.77089583,0.500104167 L0.499895833,5.77210417 L0.499895833,13.2281042 L5.77089583,18.4991042 L13.2278958,18.4991042 L18.5008958,13.2281042 L18.5008958,5.77210417 L13.2278958,0.500104167 L13.2278958,0.500104167 Z" id="Fill-4" fill="#FFFFFF"></path>
            </g>
        </g>
    </g>
</svg>