<?xml version="1.0" encoding="UTF-8"?>
<svg width="21px" height="21px" viewBox="0 0 21 21" version="1.1" xmlns="http://www.w3.org/2000/svg" xmlns:xlink="http://www.w3.org/1999/xlink">
    <!-- Generator: sketchtool 50.2 (55047) - http://www.bohemiancoding.com/sketch -->
    <title>0CB642DE-2C74-44B2-BC00-9EEB5A50BB9A</title>
    <desc>Created with sketchtool.</desc>
    <defs></defs>
    <g id="Inicio-de-sesión/-Cerrar-sesión" stroke="none" stroke-width="1" fill="none" fill-rule="evenodd" opacity="0.8">
        <g id="menu_colapsado" transform="translate(-15.000000, -566.000000)">
            <g id="trampa" transform="translate(15.000000, 566.000000)">
                <path d="M17,3 L21,3 L21,6 L18,6 L18,9 L21,9 L21,13 L18,13 L18,16 L21,16 L21,19 L17,19 L17,21 L14,21 L14,19 L12,19 L12,21 L9,21 L9,19 L7,19 L7,21 L4,21 L4,19 L1.3500312e-13,19 L1.3500312e-13,16 L4,16 L4,13 L1.3500312e-13,13 L1.3500312e-13,9 L4,9 L4,6 L1.3500312e-13,6 L1.3500312e-13,3 L4,3 L4,-2.7554553e-16 L7,2.7554553e-16 L7,3 L9,3 L9,-2.7554553e-16 L12,2.7554553e-16 L12,3 L14,3 L14,-2.7554553e-16 L17,2.7554553e-16 L17,3 Z" id="Shape" fill="#FFFFFF" fill-rule="nonzero"></path>
                <path d="M15.3326776,8.01747519 L13.6627952,8.01747519 C13.3953763,7.52304737 13.0269325,7.09834655 12.5812343,6.77506682 L13.549885,5.74183945 L12.7119724,4.84806609 L11.4224191,6.22358964 C11.1490576,6.15386264 10.8697534,6.11582973 10.5785639,6.11582973 C10.2873745,6.11582973 10.0080703,6.15386264 9.74065141,6.22358964 L8.44515544,4.84806609 L7.60724291,5.74183945 L8.56995092,6.77506682 C8.13019541,7.09834655 7.7617516,7.52304737 7.49433271,8.01747519 L5.82445029,8.01747519 L5.82445029,9.28523883 L7.06646248,9.28523883 C7.03674927,9.49441983 7.0129787,9.70360083 7.0129787,9.91912065 L7.0129787,10.5530025 L5.82445029,10.5530025 L5.82445029,11.8207661 L7.0129787,11.8207661 L7.0129787,12.4546479 C7.0129787,12.6701678 7.03674927,12.8793488 7.06646248,13.0885298 L5.82445029,13.0885298 L5.82445029,14.3562934 L7.49433271,14.3562934 C8.11236748,15.4909419 9.2592974,16.2579389 10.5785639,16.2579389 C11.8978305,16.2579389 13.0447604,15.4909419 13.6627952,14.3562934 L15.3326776,14.3562934 L15.3326776,13.0885298 L14.0906654,13.0885298 C14.1203786,12.8793488 14.1441492,12.6701678 14.1441492,12.4546479 L14.1441492,11.8207661 L15.3326776,11.8207661 L15.3326776,10.5530025 L14.1441492,10.5530025 L14.1441492,9.91912065 C14.1441492,9.70360083 14.1203786,9.49441983 14.0906654,9.28523883 L15.3326776,9.28523883 L15.3326776,8.01747519 Z" id="Path" fill="#2C2C2C" transform="translate(10.578564, 10.553002) rotate(-52.000000) translate(-10.578564, -10.553002) "></path>
            </g>
        </g>
    </g>
</svg>